{
	"patcher" : 	{
		"fileversion" : 1,
		"rect" : [ 102.0, 76.0, 494.0, 207.0 ],
		"bglocked" : 0,
		"defrect" : [ 102.0, 76.0, 494.0, 207.0 ],
		"openrect" : [ 0.0, 0.0, 0.0, 0.0 ],
		"openinpresentation" : 0,
		"default_fontsize" : 12.0,
		"default_fontface" : 0,
		"default_fontname" : "Arial",
		"gridonopen" : 0,
		"gridsize" : [ 15.0, 15.0 ],
		"gridsnaponopen" : 0,
		"toolbarvisible" : 1,
		"boxanimatetime" : 200,
		"imprint" : 0,
		"enablehscroll" : 1,
		"enablevscroll" : 1,
		"devicewidth" : 0.0,
		"boxes" : [ 			{
				"box" : 				{
					"maxclass" : "newobj",
					"text" : "+ 1",
					"numoutlets" : 1,
					"outlettype" : [ "int" ],
					"fontname" : "Arial",
					"patching_rect" : [ 159.0, 119.0, 32.5, 20.0 ],
					"id" : "obj-2",
					"numinlets" : 2,
					"fontsize" : 12.0
				}

			}
, 			{
				"box" : 				{
					"maxclass" : "message",
					"text" : "1",
					"numoutlets" : 1,
					"outlettype" : [ "" ],
					"fontname" : "Arial",
					"patching_rect" : [ 376.0, 101.0, 32.5, 18.0 ],
					"id" : "obj-21",
					"numinlets" : 2,
					"fontsize" : 12.0
				}

			}
, 			{
				"box" : 				{
					"maxclass" : "newobj",
					"text" : "r startup",
					"numoutlets" : 1,
					"outlettype" : [ "" ],
					"fontname" : "Arial",
					"patching_rect" : [ 372.0, 69.0, 55.0, 20.0 ],
					"id" : "obj-20",
					"numinlets" : 0,
					"fontsize" : 12.0
				}

			}
, 			{
				"box" : 				{
					"maxclass" : "newobj",
					"text" : "p modeselektor",
					"numoutlets" : 1,
					"outlettype" : [ "" ],
					"fontname" : "Arial",
					"patching_rect" : [ 264.0, 33.0, 93.0, 20.0 ],
					"id" : "obj-8",
					"numinlets" : 0,
					"fontsize" : 12.0,
					"patcher" : 					{
						"fileversion" : 1,
						"rect" : [ 686.0, 230.0, 640.0, 480.0 ],
						"bglocked" : 0,
						"defrect" : [ 686.0, 230.0, 640.0, 480.0 ],
						"openrect" : [ 0.0, 0.0, 0.0, 0.0 ],
						"openinpresentation" : 0,
						"default_fontsize" : 12.0,
						"default_fontface" : 0,
						"default_fontname" : "Arial",
						"gridonopen" : 0,
						"gridsize" : [ 15.0, 15.0 ],
						"gridsnaponopen" : 0,
						"toolbarvisible" : 1,
						"boxanimatetime" : 200,
						"imprint" : 0,
						"enablehscroll" : 1,
						"enablevscroll" : 1,
						"devicewidth" : 0.0,
						"boxes" : [ 							{
								"box" : 								{
									"maxclass" : "newobj",
									"text" : "r selektor2",
									"numoutlets" : 1,
									"outlettype" : [ "" ],
									"fontname" : "Arial",
									"patching_rect" : [ 188.0, 57.0, 67.0, 20.0 ],
									"id" : "obj-10",
									"numinlets" : 0,
									"fontsize" : 12.0
								}

							}
, 							{
								"box" : 								{
									"maxclass" : "newobj",
									"text" : "r selektor3",
									"numoutlets" : 1,
									"outlettype" : [ "" ],
									"fontname" : "Arial",
									"patching_rect" : [ 261.0, 54.0, 67.0, 20.0 ],
									"id" : "obj-9",
									"numinlets" : 0,
									"fontsize" : 12.0
								}

							}
, 							{
								"box" : 								{
									"maxclass" : "newobj",
									"text" : "r selektor1",
									"numoutlets" : 1,
									"outlettype" : [ "" ],
									"fontname" : "Arial",
									"patching_rect" : [ 117.0, 59.0, 67.0, 20.0 ],
									"id" : "obj-2",
									"numinlets" : 0,
									"fontsize" : 12.0
								}

							}
, 							{
								"box" : 								{
									"maxclass" : "newobj",
									"text" : "bangbang",
									"numoutlets" : 2,
									"outlettype" : [ "bang", "bang" ],
									"fontname" : "Arial",
									"patching_rect" : [ 222.0, 98.0, 64.0, 20.0 ],
									"id" : "obj-5",
									"numinlets" : 1,
									"fontsize" : 12.0
								}

							}
, 							{
								"box" : 								{
									"maxclass" : "newobj",
									"text" : "bangbang",
									"numoutlets" : 2,
									"outlettype" : [ "bang", "bang" ],
									"fontname" : "Arial",
									"patching_rect" : [ 146.0, 99.0, 64.0, 20.0 ],
									"id" : "obj-3",
									"numinlets" : 1,
									"fontsize" : 12.0
								}

							}
, 							{
								"box" : 								{
									"maxclass" : "newobj",
									"text" : "bucket 2",
									"numoutlets" : 2,
									"outlettype" : [ "", "" ],
									"fontname" : "Arial",
									"patching_rect" : [ 181.0, 180.0, 56.0, 20.0 ],
									"id" : "obj-42",
									"numinlets" : 1,
									"fontsize" : 12.0
								}

							}
, 							{
								"box" : 								{
									"maxclass" : "number",
									"numoutlets" : 2,
									"outlettype" : [ "int", "bang" ],
									"fontname" : "Arial",
									"patching_rect" : [ 218.0, 217.0, 50.0, 20.0 ],
									"id" : "obj-34",
									"numinlets" : 1,
									"fontsize" : 12.0
								}

							}
, 							{
								"box" : 								{
									"maxclass" : "number",
									"numoutlets" : 2,
									"outlettype" : [ "int", "bang" ],
									"fontname" : "Arial",
									"patching_rect" : [ 159.0, 217.0, 50.0, 20.0 ],
									"id" : "obj-33",
									"numinlets" : 1,
									"fontsize" : 12.0
								}

							}
, 							{
								"box" : 								{
									"maxclass" : "newobj",
									"text" : "if $i1 != $i2 then $i1",
									"numoutlets" : 1,
									"outlettype" : [ "" ],
									"fontname" : "Arial",
									"patching_rect" : [ 157.0, 248.0, 115.0, 20.0 ],
									"id" : "obj-32",
									"numinlets" : 2,
									"fontsize" : 12.0
								}

							}
, 							{
								"box" : 								{
									"maxclass" : "message",
									"text" : "1",
									"numoutlets" : 1,
									"outlettype" : [ "" ],
									"fontname" : "Arial",
									"patching_rect" : [ 233.0, 134.0, 32.5, 18.0 ],
									"id" : "obj-28",
									"numinlets" : 2,
									"fontsize" : 12.0
								}

							}
, 							{
								"box" : 								{
									"maxclass" : "message",
									"text" : "0",
									"numoutlets" : 1,
									"outlettype" : [ "" ],
									"fontname" : "Arial",
									"patching_rect" : [ 170.0, 132.0, 32.5, 18.0 ],
									"id" : "obj-27",
									"numinlets" : 2,
									"fontsize" : 12.0
								}

							}
, 							{
								"box" : 								{
									"maxclass" : "outlet",
									"numoutlets" : 0,
									"patching_rect" : [ 157.0, 304.0, 25.0, 25.0 ],
									"id" : "obj-15",
									"numinlets" : 1,
									"comment" : ""
								}

							}
 ],
						"lines" : [ 							{
								"patchline" : 								{
									"source" : [ "obj-28", 0 ],
									"destination" : [ "obj-42", 0 ],
									"hidden" : 0,
									"midpoints" : [  ]
								}

							}
, 							{
								"patchline" : 								{
									"source" : [ "obj-27", 0 ],
									"destination" : [ "obj-42", 0 ],
									"hidden" : 0,
									"midpoints" : [  ]
								}

							}
, 							{
								"patchline" : 								{
									"source" : [ "obj-42", 1 ],
									"destination" : [ "obj-34", 0 ],
									"hidden" : 0,
									"midpoints" : [  ]
								}

							}
, 							{
								"patchline" : 								{
									"source" : [ "obj-42", 0 ],
									"destination" : [ "obj-33", 0 ],
									"hidden" : 0,
									"midpoints" : [  ]
								}

							}
, 							{
								"patchline" : 								{
									"source" : [ "obj-3", 0 ],
									"destination" : [ "obj-27", 0 ],
									"hidden" : 0,
									"midpoints" : [  ]
								}

							}
, 							{
								"patchline" : 								{
									"source" : [ "obj-3", 1 ],
									"destination" : [ "obj-27", 0 ],
									"hidden" : 0,
									"midpoints" : [  ]
								}

							}
, 							{
								"patchline" : 								{
									"source" : [ "obj-5", 0 ],
									"destination" : [ "obj-28", 0 ],
									"hidden" : 0,
									"midpoints" : [  ]
								}

							}
, 							{
								"patchline" : 								{
									"source" : [ "obj-5", 1 ],
									"destination" : [ "obj-28", 0 ],
									"hidden" : 0,
									"midpoints" : [  ]
								}

							}
, 							{
								"patchline" : 								{
									"source" : [ "obj-33", 0 ],
									"destination" : [ "obj-32", 0 ],
									"hidden" : 0,
									"midpoints" : [  ]
								}

							}
, 							{
								"patchline" : 								{
									"source" : [ "obj-34", 0 ],
									"destination" : [ "obj-32", 1 ],
									"hidden" : 0,
									"midpoints" : [  ]
								}

							}
, 							{
								"patchline" : 								{
									"source" : [ "obj-9", 0 ],
									"destination" : [ "obj-5", 0 ],
									"hidden" : 0,
									"midpoints" : [  ]
								}

							}
, 							{
								"patchline" : 								{
									"source" : [ "obj-10", 0 ],
									"destination" : [ "obj-3", 0 ],
									"hidden" : 0,
									"midpoints" : [  ]
								}

							}
, 							{
								"patchline" : 								{
									"source" : [ "obj-2", 0 ],
									"destination" : [ "obj-3", 0 ],
									"hidden" : 0,
									"midpoints" : [  ]
								}

							}
, 							{
								"patchline" : 								{
									"source" : [ "obj-32", 0 ],
									"destination" : [ "obj-15", 0 ],
									"hidden" : 0,
									"midpoints" : [  ]
								}

							}
 ]
					}
,
					"saved_object_attributes" : 					{
						"default_fontface" : 0,
						"default_fontname" : "Arial",
						"fontname" : "Arial",
						"default_fontsize" : 12.0,
						"globalpatchername" : "",
						"fontface" : 0,
						"fontsize" : 12.0
					}

				}

			}
, 			{
				"box" : 				{
					"maxclass" : "newobj",
					"text" : "p mode2",
					"numoutlets" : 2,
					"outlettype" : [ "", "" ],
					"fontname" : "Arial",
					"patching_rect" : [ 131.0, 35.0, 57.0, 20.0 ],
					"id" : "obj-7",
					"numinlets" : 0,
					"fontsize" : 12.0,
					"patcher" : 					{
						"fileversion" : 1,
						"rect" : [ 374.0, 57.0, 746.0, 537.0 ],
						"bglocked" : 0,
						"defrect" : [ 374.0, 57.0, 746.0, 537.0 ],
						"openrect" : [ 0.0, 0.0, 0.0, 0.0 ],
						"openinpresentation" : 0,
						"default_fontsize" : 12.0,
						"default_fontface" : 0,
						"default_fontname" : "Arial",
						"gridonopen" : 0,
						"gridsize" : [ 15.0, 15.0 ],
						"gridsnaponopen" : 0,
						"toolbarvisible" : 1,
						"boxanimatetime" : 200,
						"imprint" : 0,
						"enablehscroll" : 1,
						"enablevscroll" : 1,
						"devicewidth" : 0.0,
						"boxes" : [ 							{
								"box" : 								{
									"maxclass" : "newobj",
									"text" : "s selektor2",
									"numoutlets" : 0,
									"fontname" : "Arial",
									"patching_rect" : [ 462.0, 351.0, 69.0, 20.0 ],
									"id" : "obj-48",
									"numinlets" : 1,
									"fontsize" : 12.0
								}

							}
, 							{
								"box" : 								{
									"maxclass" : "message",
									"text" : "205",
									"numoutlets" : 1,
									"outlettype" : [ "" ],
									"fontname" : "Arial",
									"patching_rect" : [ 589.0, 216.0, 32.5, 18.0 ],
									"id" : "obj-45",
									"numinlets" : 2,
									"fontsize" : 12.0
								}

							}
, 							{
								"box" : 								{
									"maxclass" : "message",
									"text" : "bang",
									"numoutlets" : 1,
									"outlettype" : [ "" ],
									"fontname" : "Arial",
									"patching_rect" : [ 612.0, 160.0, 37.0, 18.0 ],
									"id" : "obj-46",
									"numinlets" : 2,
									"fontsize" : 12.0
								}

							}
, 							{
								"box" : 								{
									"maxclass" : "newobj",
									"text" : "gate",
									"numoutlets" : 1,
									"outlettype" : [ "" ],
									"fontname" : "Arial",
									"patching_rect" : [ 594.0, 184.0, 34.0, 20.0 ],
									"id" : "obj-47",
									"numinlets" : 2,
									"fontsize" : 12.0
								}

							}
, 							{
								"box" : 								{
									"maxclass" : "message",
									"text" : "195",
									"numoutlets" : 1,
									"outlettype" : [ "" ],
									"fontname" : "Arial",
									"patching_rect" : [ 541.0, 217.0, 32.5, 18.0 ],
									"id" : "obj-42",
									"numinlets" : 2,
									"fontsize" : 12.0
								}

							}
, 							{
								"box" : 								{
									"maxclass" : "message",
									"text" : "bang",
									"numoutlets" : 1,
									"outlettype" : [ "" ],
									"fontname" : "Arial",
									"patching_rect" : [ 565.0, 158.0, 37.0, 18.0 ],
									"id" : "obj-43",
									"numinlets" : 2,
									"fontsize" : 12.0
								}

							}
, 							{
								"box" : 								{
									"maxclass" : "newobj",
									"text" : "gate",
									"numoutlets" : 1,
									"outlettype" : [ "" ],
									"fontname" : "Arial",
									"patching_rect" : [ 547.0, 182.0, 34.0, 20.0 ],
									"id" : "obj-44",
									"numinlets" : 2,
									"fontsize" : 12.0
								}

							}
, 							{
								"box" : 								{
									"maxclass" : "message",
									"text" : "185",
									"numoutlets" : 1,
									"outlettype" : [ "" ],
									"fontname" : "Arial",
									"patching_rect" : [ 482.0, 216.0, 32.5, 18.0 ],
									"id" : "obj-28",
									"numinlets" : 2,
									"fontsize" : 12.0
								}

							}
, 							{
								"box" : 								{
									"maxclass" : "message",
									"text" : "bang",
									"numoutlets" : 1,
									"outlettype" : [ "" ],
									"fontname" : "Arial",
									"patching_rect" : [ 505.0, 160.0, 37.0, 18.0 ],
									"id" : "obj-40",
									"numinlets" : 2,
									"fontsize" : 12.0
								}

							}
, 							{
								"box" : 								{
									"maxclass" : "newobj",
									"text" : "gate",
									"numoutlets" : 1,
									"outlettype" : [ "" ],
									"fontname" : "Arial",
									"patching_rect" : [ 487.0, 184.0, 34.0, 20.0 ],
									"id" : "obj-41",
									"numinlets" : 2,
									"fontsize" : 12.0
								}

							}
, 							{
								"box" : 								{
									"maxclass" : "message",
									"text" : "175",
									"numoutlets" : 1,
									"outlettype" : [ "" ],
									"fontname" : "Arial",
									"patching_rect" : [ 434.0, 214.0, 32.5, 18.0 ],
									"id" : "obj-25",
									"numinlets" : 2,
									"fontsize" : 12.0
								}

							}
, 							{
								"box" : 								{
									"maxclass" : "message",
									"text" : "bang",
									"numoutlets" : 1,
									"outlettype" : [ "" ],
									"fontname" : "Arial",
									"patching_rect" : [ 457.0, 158.0, 37.0, 18.0 ],
									"id" : "obj-26",
									"numinlets" : 2,
									"fontsize" : 12.0
								}

							}
, 							{
								"box" : 								{
									"maxclass" : "newobj",
									"text" : "gate",
									"numoutlets" : 1,
									"outlettype" : [ "" ],
									"fontname" : "Arial",
									"patching_rect" : [ 439.0, 182.0, 34.0, 20.0 ],
									"id" : "obj-27",
									"numinlets" : 2,
									"fontsize" : 12.0
								}

							}
, 							{
								"box" : 								{
									"maxclass" : "message",
									"text" : "165",
									"numoutlets" : 1,
									"outlettype" : [ "" ],
									"fontname" : "Arial",
									"patching_rect" : [ 388.0, 210.0, 32.5, 18.0 ],
									"id" : "obj-7",
									"numinlets" : 2,
									"fontsize" : 12.0
								}

							}
, 							{
								"box" : 								{
									"maxclass" : "message",
									"text" : "bang",
									"numoutlets" : 1,
									"outlettype" : [ "" ],
									"fontname" : "Arial",
									"patching_rect" : [ 411.0, 154.0, 37.0, 18.0 ],
									"id" : "obj-23",
									"numinlets" : 2,
									"fontsize" : 12.0
								}

							}
, 							{
								"box" : 								{
									"maxclass" : "newobj",
									"text" : "gate",
									"numoutlets" : 1,
									"outlettype" : [ "" ],
									"fontname" : "Arial",
									"patching_rect" : [ 393.0, 178.0, 34.0, 20.0 ],
									"id" : "obj-24",
									"numinlets" : 2,
									"fontsize" : 12.0
								}

							}
, 							{
								"box" : 								{
									"maxclass" : "outlet",
									"numoutlets" : 0,
									"patching_rect" : [ 179.0, 348.0, 25.0, 25.0 ],
									"id" : "obj-39",
									"numinlets" : 1,
									"comment" : ""
								}

							}
, 							{
								"box" : 								{
									"maxclass" : "message",
									"text" : "155",
									"numoutlets" : 1,
									"outlettype" : [ "" ],
									"fontname" : "Arial",
									"patching_rect" : [ 336.0, 212.0, 32.5, 18.0 ],
									"id" : "obj-37",
									"numinlets" : 2,
									"fontsize" : 12.0
								}

							}
, 							{
								"box" : 								{
									"maxclass" : "message",
									"text" : "145",
									"numoutlets" : 1,
									"outlettype" : [ "" ],
									"fontname" : "Arial",
									"patching_rect" : [ 289.0, 214.0, 32.5, 18.0 ],
									"id" : "obj-38",
									"numinlets" : 2,
									"fontsize" : 12.0
								}

							}
, 							{
								"box" : 								{
									"maxclass" : "message",
									"text" : "135",
									"numoutlets" : 1,
									"outlettype" : [ "" ],
									"fontname" : "Arial",
									"patching_rect" : [ 242.0, 212.0, 32.5, 18.0 ],
									"id" : "obj-35",
									"numinlets" : 2,
									"fontsize" : 12.0
								}

							}
, 							{
								"box" : 								{
									"maxclass" : "message",
									"text" : "125",
									"numoutlets" : 1,
									"outlettype" : [ "" ],
									"fontname" : "Arial",
									"patching_rect" : [ 199.0, 212.0, 32.5, 18.0 ],
									"id" : "obj-36",
									"numinlets" : 2,
									"fontsize" : 12.0
								}

							}
, 							{
								"box" : 								{
									"maxclass" : "message",
									"text" : "115",
									"numoutlets" : 1,
									"outlettype" : [ "" ],
									"fontname" : "Arial",
									"patching_rect" : [ 158.0, 209.0, 32.5, 18.0 ],
									"id" : "obj-33",
									"numinlets" : 2,
									"fontsize" : 12.0
								}

							}
, 							{
								"box" : 								{
									"maxclass" : "message",
									"text" : "105",
									"numoutlets" : 1,
									"outlettype" : [ "" ],
									"fontname" : "Arial",
									"patching_rect" : [ 113.0, 209.0, 32.5, 18.0 ],
									"id" : "obj-34",
									"numinlets" : 2,
									"fontsize" : 12.0
								}

							}
, 							{
								"box" : 								{
									"maxclass" : "message",
									"text" : "bang",
									"numoutlets" : 1,
									"outlettype" : [ "" ],
									"fontname" : "Arial",
									"patching_rect" : [ 359.0, 156.0, 37.0, 18.0 ],
									"id" : "obj-21",
									"numinlets" : 2,
									"fontsize" : 12.0
								}

							}
, 							{
								"box" : 								{
									"maxclass" : "newobj",
									"text" : "gate",
									"numoutlets" : 1,
									"outlettype" : [ "" ],
									"fontname" : "Arial",
									"patching_rect" : [ 341.0, 180.0, 34.0, 20.0 ],
									"id" : "obj-22",
									"numinlets" : 2,
									"fontsize" : 12.0
								}

							}
, 							{
								"box" : 								{
									"maxclass" : "message",
									"text" : "bang",
									"numoutlets" : 1,
									"outlettype" : [ "" ],
									"fontname" : "Arial",
									"patching_rect" : [ 313.0, 155.0, 37.0, 18.0 ],
									"id" : "obj-19",
									"numinlets" : 2,
									"fontsize" : 12.0
								}

							}
, 							{
								"box" : 								{
									"maxclass" : "newobj",
									"text" : "gate",
									"numoutlets" : 1,
									"outlettype" : [ "" ],
									"fontname" : "Arial",
									"patching_rect" : [ 295.0, 179.0, 34.0, 20.0 ],
									"id" : "obj-20",
									"numinlets" : 2,
									"fontsize" : 12.0
								}

							}
, 							{
								"box" : 								{
									"maxclass" : "message",
									"text" : "bang",
									"numoutlets" : 1,
									"outlettype" : [ "" ],
									"fontname" : "Arial",
									"patching_rect" : [ 267.0, 155.0, 37.0, 18.0 ],
									"id" : "obj-17",
									"numinlets" : 2,
									"fontsize" : 12.0
								}

							}
, 							{
								"box" : 								{
									"maxclass" : "newobj",
									"text" : "gate",
									"numoutlets" : 1,
									"outlettype" : [ "" ],
									"fontname" : "Arial",
									"patching_rect" : [ 249.0, 179.0, 34.0, 20.0 ],
									"id" : "obj-18",
									"numinlets" : 2,
									"fontsize" : 12.0
								}

							}
, 							{
								"box" : 								{
									"maxclass" : "message",
									"text" : "bang",
									"numoutlets" : 1,
									"outlettype" : [ "" ],
									"fontname" : "Arial",
									"patching_rect" : [ 218.0, 151.0, 37.0, 18.0 ],
									"id" : "obj-15",
									"numinlets" : 2,
									"fontsize" : 12.0
								}

							}
, 							{
								"box" : 								{
									"maxclass" : "newobj",
									"text" : "gate",
									"numoutlets" : 1,
									"outlettype" : [ "" ],
									"fontname" : "Arial",
									"patching_rect" : [ 200.0, 175.0, 34.0, 20.0 ],
									"id" : "obj-16",
									"numinlets" : 2,
									"fontsize" : 12.0
								}

							}
, 							{
								"box" : 								{
									"maxclass" : "message",
									"text" : "bang",
									"numoutlets" : 1,
									"outlettype" : [ "" ],
									"fontname" : "Arial",
									"patching_rect" : [ 172.0, 147.0, 37.0, 18.0 ],
									"id" : "obj-13",
									"numinlets" : 2,
									"fontsize" : 12.0
								}

							}
, 							{
								"box" : 								{
									"maxclass" : "newobj",
									"text" : "gate",
									"numoutlets" : 1,
									"outlettype" : [ "" ],
									"fontname" : "Arial",
									"patching_rect" : [ 154.0, 171.0, 34.0, 20.0 ],
									"id" : "obj-14",
									"numinlets" : 2,
									"fontsize" : 12.0
								}

							}
, 							{
								"box" : 								{
									"maxclass" : "message",
									"text" : "bang",
									"numoutlets" : 1,
									"outlettype" : [ "" ],
									"fontname" : "Arial",
									"patching_rect" : [ 128.0, 145.0, 37.0, 18.0 ],
									"id" : "obj-11",
									"numinlets" : 2,
									"fontsize" : 12.0
								}

							}
, 							{
								"box" : 								{
									"maxclass" : "newobj",
									"text" : "gate",
									"numoutlets" : 1,
									"outlettype" : [ "" ],
									"fontname" : "Arial",
									"patching_rect" : [ 110.0, 169.0, 34.0, 20.0 ],
									"id" : "obj-12",
									"numinlets" : 2,
									"fontsize" : 12.0
								}

							}
, 							{
								"box" : 								{
									"maxclass" : "message",
									"text" : "95",
									"numoutlets" : 1,
									"outlettype" : [ "" ],
									"fontname" : "Arial",
									"patching_rect" : [ 69.0, 209.0, 32.5, 18.0 ],
									"id" : "obj-8",
									"numinlets" : 2,
									"fontsize" : 12.0
								}

							}
, 							{
								"box" : 								{
									"maxclass" : "message",
									"text" : "bang",
									"numoutlets" : 1,
									"outlettype" : [ "" ],
									"fontname" : "Arial",
									"patching_rect" : [ 74.0, 145.0, 37.0, 18.0 ],
									"id" : "obj-9",
									"numinlets" : 2,
									"fontsize" : 12.0
								}

							}
, 							{
								"box" : 								{
									"maxclass" : "newobj",
									"text" : "gate",
									"numoutlets" : 1,
									"outlettype" : [ "" ],
									"fontname" : "Arial",
									"patching_rect" : [ 56.0, 169.0, 34.0, 20.0 ],
									"id" : "obj-10",
									"numinlets" : 2,
									"fontsize" : 12.0
								}

							}
, 							{
								"box" : 								{
									"maxclass" : "number",
									"numoutlets" : 2,
									"outlettype" : [ "int", "bang" ],
									"fontname" : "Arial",
									"patching_rect" : [ 688.0, 163.0, 52.0, 20.0 ],
									"id" : "obj-29",
									"numinlets" : 1,
									"fontsize" : 12.0
								}

							}
, 							{
								"box" : 								{
									"maxclass" : "newobj",
									"text" : "* 255.",
									"numoutlets" : 1,
									"outlettype" : [ "float" ],
									"fontname" : "Arial",
									"patching_rect" : [ 688.0, 140.0, 44.0, 20.0 ],
									"id" : "obj-30",
									"numinlets" : 2,
									"fontsize" : 12.0
								}

							}
, 							{
								"box" : 								{
									"maxclass" : "slider",
									"numoutlets" : 1,
									"outlettype" : [ "" ],
									"size" : 255.0,
									"patching_rect" : [ 688.0, 192.0, 22.0, 103.0 ],
									"id" : "obj-31",
									"numinlets" : 1
								}

							}
, 							{
								"box" : 								{
									"maxclass" : "outlet",
									"numoutlets" : 0,
									"patching_rect" : [ 686.0, 339.0, 25.0, 25.0 ],
									"id" : "obj-6",
									"numinlets" : 1,
									"comment" : ""
								}

							}
, 							{
								"box" : 								{
									"maxclass" : "message",
									"text" : "85",
									"numoutlets" : 1,
									"outlettype" : [ "" ],
									"fontname" : "Arial",
									"patching_rect" : [ 20.0, 207.0, 32.5, 18.0 ],
									"id" : "obj-3",
									"numinlets" : 2,
									"fontsize" : 12.0
								}

							}
, 							{
								"box" : 								{
									"maxclass" : "message",
									"text" : "bang",
									"numoutlets" : 1,
									"outlettype" : [ "" ],
									"fontname" : "Arial",
									"patching_rect" : [ 20.0, 144.0, 37.0, 18.0 ],
									"id" : "obj-5",
									"numinlets" : 2,
									"fontsize" : 12.0
								}

							}
, 							{
								"box" : 								{
									"maxclass" : "newobj",
									"text" : "gate",
									"numoutlets" : 1,
									"outlettype" : [ "" ],
									"fontname" : "Arial",
									"patching_rect" : [ 2.0, 168.0, 34.0, 20.0 ],
									"id" : "obj-4",
									"numinlets" : 2,
									"fontsize" : 12.0
								}

							}
, 							{
								"box" : 								{
									"maxclass" : "newobj",
									"text" : "osc-route /2/fader1 /2/push1 /2/push2 /2/push3 /2/push4 /2/push5 /2/push6 /2/push7 /2/push8 /2/push9 /2/push10 /2/push11 /2/push12 /2/push13",
									"linecount" : 2,
									"numoutlets" : 15,
									"outlettype" : [ "", "", "", "", "", "", "", "", "", "", "", "", "", "", "" ],
									"fontname" : "Arial",
									"patching_rect" : [ 49.0, 93.0, 559.0, 34.0 ],
									"id" : "obj-2",
									"numinlets" : 1,
									"fontsize" : 12.0
								}

							}
, 							{
								"box" : 								{
									"maxclass" : "newobj",
									"text" : "udpreceive 8000",
									"numoutlets" : 1,
									"outlettype" : [ "" ],
									"fontname" : "Arial",
									"patching_rect" : [ 159.0, 56.0, 99.0, 20.0 ],
									"id" : "obj-1",
									"numinlets" : 1,
									"fontsize" : 12.0
								}

							}
 ],
						"lines" : [ 							{
								"patchline" : 								{
									"source" : [ "obj-2", 10 ],
									"destination" : [ "obj-27", 0 ],
									"hidden" : 0,
									"midpoints" : [  ]
								}

							}
, 							{
								"patchline" : 								{
									"source" : [ "obj-2", 10 ],
									"destination" : [ "obj-26", 0 ],
									"hidden" : 0,
									"midpoints" : [  ]
								}

							}
, 							{
								"patchline" : 								{
									"source" : [ "obj-2", 11 ],
									"destination" : [ "obj-41", 0 ],
									"hidden" : 0,
									"midpoints" : [  ]
								}

							}
, 							{
								"patchline" : 								{
									"source" : [ "obj-2", 11 ],
									"destination" : [ "obj-40", 0 ],
									"hidden" : 0,
									"midpoints" : [  ]
								}

							}
, 							{
								"patchline" : 								{
									"source" : [ "obj-2", 12 ],
									"destination" : [ "obj-44", 0 ],
									"hidden" : 0,
									"midpoints" : [  ]
								}

							}
, 							{
								"patchline" : 								{
									"source" : [ "obj-2", 12 ],
									"destination" : [ "obj-43", 0 ],
									"hidden" : 0,
									"midpoints" : [  ]
								}

							}
, 							{
								"patchline" : 								{
									"source" : [ "obj-2", 13 ],
									"destination" : [ "obj-47", 0 ],
									"hidden" : 0,
									"midpoints" : [  ]
								}

							}
, 							{
								"patchline" : 								{
									"source" : [ "obj-2", 13 ],
									"destination" : [ "obj-46", 0 ],
									"hidden" : 0,
									"midpoints" : [  ]
								}

							}
, 							{
								"patchline" : 								{
									"source" : [ "obj-47", 0 ],
									"destination" : [ "obj-45", 0 ],
									"hidden" : 0,
									"midpoints" : [  ]
								}

							}
, 							{
								"patchline" : 								{
									"source" : [ "obj-46", 0 ],
									"destination" : [ "obj-47", 1 ],
									"hidden" : 0,
									"midpoints" : [  ]
								}

							}
, 							{
								"patchline" : 								{
									"source" : [ "obj-44", 0 ],
									"destination" : [ "obj-42", 0 ],
									"hidden" : 0,
									"midpoints" : [  ]
								}

							}
, 							{
								"patchline" : 								{
									"source" : [ "obj-43", 0 ],
									"destination" : [ "obj-44", 1 ],
									"hidden" : 0,
									"midpoints" : [  ]
								}

							}
, 							{
								"patchline" : 								{
									"source" : [ "obj-41", 0 ],
									"destination" : [ "obj-28", 0 ],
									"hidden" : 0,
									"midpoints" : [  ]
								}

							}
, 							{
								"patchline" : 								{
									"source" : [ "obj-40", 0 ],
									"destination" : [ "obj-41", 1 ],
									"hidden" : 0,
									"midpoints" : [  ]
								}

							}
, 							{
								"patchline" : 								{
									"source" : [ "obj-27", 0 ],
									"destination" : [ "obj-25", 0 ],
									"hidden" : 0,
									"midpoints" : [  ]
								}

							}
, 							{
								"patchline" : 								{
									"source" : [ "obj-26", 0 ],
									"destination" : [ "obj-27", 1 ],
									"hidden" : 0,
									"midpoints" : [  ]
								}

							}
, 							{
								"patchline" : 								{
									"source" : [ "obj-2", 9 ],
									"destination" : [ "obj-24", 0 ],
									"hidden" : 0,
									"midpoints" : [  ]
								}

							}
, 							{
								"patchline" : 								{
									"source" : [ "obj-2", 9 ],
									"destination" : [ "obj-23", 0 ],
									"hidden" : 0,
									"midpoints" : [  ]
								}

							}
, 							{
								"patchline" : 								{
									"source" : [ "obj-24", 0 ],
									"destination" : [ "obj-7", 0 ],
									"hidden" : 0,
									"midpoints" : [  ]
								}

							}
, 							{
								"patchline" : 								{
									"source" : [ "obj-23", 0 ],
									"destination" : [ "obj-24", 1 ],
									"hidden" : 0,
									"midpoints" : [  ]
								}

							}
, 							{
								"patchline" : 								{
									"source" : [ "obj-2", 8 ],
									"destination" : [ "obj-22", 0 ],
									"hidden" : 0,
									"midpoints" : [  ]
								}

							}
, 							{
								"patchline" : 								{
									"source" : [ "obj-2", 8 ],
									"destination" : [ "obj-21", 0 ],
									"hidden" : 0,
									"midpoints" : [  ]
								}

							}
, 							{
								"patchline" : 								{
									"source" : [ "obj-2", 7 ],
									"destination" : [ "obj-20", 0 ],
									"hidden" : 0,
									"midpoints" : [  ]
								}

							}
, 							{
								"patchline" : 								{
									"source" : [ "obj-2", 7 ],
									"destination" : [ "obj-19", 0 ],
									"hidden" : 0,
									"midpoints" : [  ]
								}

							}
, 							{
								"patchline" : 								{
									"source" : [ "obj-2", 6 ],
									"destination" : [ "obj-18", 0 ],
									"hidden" : 0,
									"midpoints" : [  ]
								}

							}
, 							{
								"patchline" : 								{
									"source" : [ "obj-2", 6 ],
									"destination" : [ "obj-17", 0 ],
									"hidden" : 0,
									"midpoints" : [  ]
								}

							}
, 							{
								"patchline" : 								{
									"source" : [ "obj-2", 5 ],
									"destination" : [ "obj-16", 0 ],
									"hidden" : 0,
									"midpoints" : [  ]
								}

							}
, 							{
								"patchline" : 								{
									"source" : [ "obj-2", 5 ],
									"destination" : [ "obj-15", 0 ],
									"hidden" : 0,
									"midpoints" : [  ]
								}

							}
, 							{
								"patchline" : 								{
									"source" : [ "obj-2", 4 ],
									"destination" : [ "obj-14", 0 ],
									"hidden" : 0,
									"midpoints" : [  ]
								}

							}
, 							{
								"patchline" : 								{
									"source" : [ "obj-2", 4 ],
									"destination" : [ "obj-13", 0 ],
									"hidden" : 0,
									"midpoints" : [  ]
								}

							}
, 							{
								"patchline" : 								{
									"source" : [ "obj-2", 3 ],
									"destination" : [ "obj-12", 0 ],
									"hidden" : 0,
									"midpoints" : [  ]
								}

							}
, 							{
								"patchline" : 								{
									"source" : [ "obj-2", 3 ],
									"destination" : [ "obj-11", 0 ],
									"hidden" : 0,
									"midpoints" : [  ]
								}

							}
, 							{
								"patchline" : 								{
									"source" : [ "obj-2", 2 ],
									"destination" : [ "obj-10", 0 ],
									"hidden" : 0,
									"midpoints" : [  ]
								}

							}
, 							{
								"patchline" : 								{
									"source" : [ "obj-2", 2 ],
									"destination" : [ "obj-9", 0 ],
									"hidden" : 0,
									"midpoints" : [  ]
								}

							}
, 							{
								"patchline" : 								{
									"source" : [ "obj-2", 0 ],
									"destination" : [ "obj-30", 0 ],
									"hidden" : 0,
									"midpoints" : [  ]
								}

							}
, 							{
								"patchline" : 								{
									"source" : [ "obj-2", 1 ],
									"destination" : [ "obj-4", 0 ],
									"hidden" : 0,
									"midpoints" : [  ]
								}

							}
, 							{
								"patchline" : 								{
									"source" : [ "obj-2", 1 ],
									"destination" : [ "obj-5", 0 ],
									"hidden" : 0,
									"midpoints" : [  ]
								}

							}
, 							{
								"patchline" : 								{
									"source" : [ "obj-1", 0 ],
									"destination" : [ "obj-2", 0 ],
									"hidden" : 0,
									"midpoints" : [  ]
								}

							}
, 							{
								"patchline" : 								{
									"source" : [ "obj-5", 0 ],
									"destination" : [ "obj-4", 1 ],
									"hidden" : 0,
									"midpoints" : [  ]
								}

							}
, 							{
								"patchline" : 								{
									"source" : [ "obj-4", 0 ],
									"destination" : [ "obj-3", 0 ],
									"hidden" : 0,
									"midpoints" : [  ]
								}

							}
, 							{
								"patchline" : 								{
									"source" : [ "obj-29", 0 ],
									"destination" : [ "obj-31", 0 ],
									"hidden" : 0,
									"midpoints" : [  ]
								}

							}
, 							{
								"patchline" : 								{
									"source" : [ "obj-30", 0 ],
									"destination" : [ "obj-29", 0 ],
									"hidden" : 0,
									"midpoints" : [  ]
								}

							}
, 							{
								"patchline" : 								{
									"source" : [ "obj-10", 0 ],
									"destination" : [ "obj-8", 0 ],
									"hidden" : 0,
									"midpoints" : [  ]
								}

							}
, 							{
								"patchline" : 								{
									"source" : [ "obj-9", 0 ],
									"destination" : [ "obj-10", 1 ],
									"hidden" : 0,
									"midpoints" : [  ]
								}

							}
, 							{
								"patchline" : 								{
									"source" : [ "obj-11", 0 ],
									"destination" : [ "obj-12", 1 ],
									"hidden" : 0,
									"midpoints" : [  ]
								}

							}
, 							{
								"patchline" : 								{
									"source" : [ "obj-13", 0 ],
									"destination" : [ "obj-14", 1 ],
									"hidden" : 0,
									"midpoints" : [  ]
								}

							}
, 							{
								"patchline" : 								{
									"source" : [ "obj-15", 0 ],
									"destination" : [ "obj-16", 1 ],
									"hidden" : 0,
									"midpoints" : [  ]
								}

							}
, 							{
								"patchline" : 								{
									"source" : [ "obj-17", 0 ],
									"destination" : [ "obj-18", 1 ],
									"hidden" : 0,
									"midpoints" : [  ]
								}

							}
, 							{
								"patchline" : 								{
									"source" : [ "obj-19", 0 ],
									"destination" : [ "obj-20", 1 ],
									"hidden" : 0,
									"midpoints" : [  ]
								}

							}
, 							{
								"patchline" : 								{
									"source" : [ "obj-21", 0 ],
									"destination" : [ "obj-22", 1 ],
									"hidden" : 0,
									"midpoints" : [  ]
								}

							}
, 							{
								"patchline" : 								{
									"source" : [ "obj-12", 0 ],
									"destination" : [ "obj-34", 0 ],
									"hidden" : 0,
									"midpoints" : [  ]
								}

							}
, 							{
								"patchline" : 								{
									"source" : [ "obj-14", 0 ],
									"destination" : [ "obj-33", 0 ],
									"hidden" : 0,
									"midpoints" : [  ]
								}

							}
, 							{
								"patchline" : 								{
									"source" : [ "obj-16", 0 ],
									"destination" : [ "obj-36", 0 ],
									"hidden" : 0,
									"midpoints" : [  ]
								}

							}
, 							{
								"patchline" : 								{
									"source" : [ "obj-18", 0 ],
									"destination" : [ "obj-35", 0 ],
									"hidden" : 0,
									"midpoints" : [  ]
								}

							}
, 							{
								"patchline" : 								{
									"source" : [ "obj-20", 0 ],
									"destination" : [ "obj-38", 0 ],
									"hidden" : 0,
									"midpoints" : [  ]
								}

							}
, 							{
								"patchline" : 								{
									"source" : [ "obj-22", 0 ],
									"destination" : [ "obj-37", 0 ],
									"hidden" : 0,
									"midpoints" : [  ]
								}

							}
, 							{
								"patchline" : 								{
									"source" : [ "obj-45", 0 ],
									"destination" : [ "obj-48", 0 ],
									"hidden" : 0,
									"midpoints" : [  ]
								}

							}
, 							{
								"patchline" : 								{
									"source" : [ "obj-42", 0 ],
									"destination" : [ "obj-48", 0 ],
									"hidden" : 0,
									"midpoints" : [  ]
								}

							}
, 							{
								"patchline" : 								{
									"source" : [ "obj-28", 0 ],
									"destination" : [ "obj-48", 0 ],
									"hidden" : 0,
									"midpoints" : [  ]
								}

							}
, 							{
								"patchline" : 								{
									"source" : [ "obj-25", 0 ],
									"destination" : [ "obj-48", 0 ],
									"hidden" : 0,
									"midpoints" : [  ]
								}

							}
, 							{
								"patchline" : 								{
									"source" : [ "obj-7", 0 ],
									"destination" : [ "obj-48", 0 ],
									"hidden" : 0,
									"midpoints" : [  ]
								}

							}
, 							{
								"patchline" : 								{
									"source" : [ "obj-37", 0 ],
									"destination" : [ "obj-48", 0 ],
									"hidden" : 0,
									"midpoints" : [  ]
								}

							}
, 							{
								"patchline" : 								{
									"source" : [ "obj-38", 0 ],
									"destination" : [ "obj-48", 0 ],
									"hidden" : 0,
									"midpoints" : [  ]
								}

							}
, 							{
								"patchline" : 								{
									"source" : [ "obj-35", 0 ],
									"destination" : [ "obj-48", 0 ],
									"hidden" : 0,
									"midpoints" : [  ]
								}

							}
, 							{
								"patchline" : 								{
									"source" : [ "obj-36", 0 ],
									"destination" : [ "obj-48", 0 ],
									"hidden" : 0,
									"midpoints" : [  ]
								}

							}
, 							{
								"patchline" : 								{
									"source" : [ "obj-33", 0 ],
									"destination" : [ "obj-48", 0 ],
									"hidden" : 0,
									"midpoints" : [  ]
								}

							}
, 							{
								"patchline" : 								{
									"source" : [ "obj-34", 0 ],
									"destination" : [ "obj-48", 0 ],
									"hidden" : 0,
									"midpoints" : [  ]
								}

							}
, 							{
								"patchline" : 								{
									"source" : [ "obj-8", 0 ],
									"destination" : [ "obj-48", 0 ],
									"hidden" : 0,
									"midpoints" : [  ]
								}

							}
, 							{
								"patchline" : 								{
									"source" : [ "obj-3", 0 ],
									"destination" : [ "obj-48", 0 ],
									"hidden" : 0,
									"midpoints" : [  ]
								}

							}
, 							{
								"patchline" : 								{
									"source" : [ "obj-3", 0 ],
									"destination" : [ "obj-39", 0 ],
									"hidden" : 0,
									"midpoints" : [  ]
								}

							}
, 							{
								"patchline" : 								{
									"source" : [ "obj-8", 0 ],
									"destination" : [ "obj-39", 0 ],
									"hidden" : 0,
									"midpoints" : [  ]
								}

							}
, 							{
								"patchline" : 								{
									"source" : [ "obj-34", 0 ],
									"destination" : [ "obj-39", 0 ],
									"hidden" : 0,
									"midpoints" : [  ]
								}

							}
, 							{
								"patchline" : 								{
									"source" : [ "obj-33", 0 ],
									"destination" : [ "obj-39", 0 ],
									"hidden" : 0,
									"midpoints" : [  ]
								}

							}
, 							{
								"patchline" : 								{
									"source" : [ "obj-36", 0 ],
									"destination" : [ "obj-39", 0 ],
									"hidden" : 0,
									"midpoints" : [  ]
								}

							}
, 							{
								"patchline" : 								{
									"source" : [ "obj-35", 0 ],
									"destination" : [ "obj-39", 0 ],
									"hidden" : 0,
									"midpoints" : [  ]
								}

							}
, 							{
								"patchline" : 								{
									"source" : [ "obj-38", 0 ],
									"destination" : [ "obj-39", 0 ],
									"hidden" : 0,
									"midpoints" : [  ]
								}

							}
, 							{
								"patchline" : 								{
									"source" : [ "obj-37", 0 ],
									"destination" : [ "obj-39", 0 ],
									"hidden" : 0,
									"midpoints" : [  ]
								}

							}
, 							{
								"patchline" : 								{
									"source" : [ "obj-7", 0 ],
									"destination" : [ "obj-39", 0 ],
									"hidden" : 0,
									"midpoints" : [  ]
								}

							}
, 							{
								"patchline" : 								{
									"source" : [ "obj-25", 0 ],
									"destination" : [ "obj-39", 0 ],
									"hidden" : 0,
									"midpoints" : [  ]
								}

							}
, 							{
								"patchline" : 								{
									"source" : [ "obj-28", 0 ],
									"destination" : [ "obj-39", 0 ],
									"hidden" : 0,
									"midpoints" : [  ]
								}

							}
, 							{
								"patchline" : 								{
									"source" : [ "obj-42", 0 ],
									"destination" : [ "obj-39", 0 ],
									"hidden" : 0,
									"midpoints" : [  ]
								}

							}
, 							{
								"patchline" : 								{
									"source" : [ "obj-45", 0 ],
									"destination" : [ "obj-39", 0 ],
									"hidden" : 0,
									"midpoints" : [  ]
								}

							}
, 							{
								"patchline" : 								{
									"source" : [ "obj-31", 0 ],
									"destination" : [ "obj-48", 0 ],
									"hidden" : 0,
									"midpoints" : [  ]
								}

							}
, 							{
								"patchline" : 								{
									"source" : [ "obj-31", 0 ],
									"destination" : [ "obj-6", 0 ],
									"hidden" : 0,
									"midpoints" : [  ]
								}

							}
 ]
					}
,
					"saved_object_attributes" : 					{
						"default_fontface" : 0,
						"default_fontname" : "Arial",
						"fontname" : "Arial",
						"default_fontsize" : 12.0,
						"globalpatchername" : "",
						"fontface" : 0,
						"fontsize" : 12.0
					}

				}

			}
, 			{
				"box" : 				{
					"maxclass" : "newobj",
					"text" : "p mode1",
					"numoutlets" : 3,
					"outlettype" : [ "", "", "" ],
					"fontname" : "Arial",
					"patching_rect" : [ 198.0, 34.0, 57.0, 20.0 ],
					"id" : "obj-5",
					"numinlets" : 0,
					"fontsize" : 12.0,
					"patcher" : 					{
						"fileversion" : 1,
						"rect" : [ 748.0, 78.0, 640.0, 480.0 ],
						"bglocked" : 0,
						"defrect" : [ 748.0, 78.0, 640.0, 480.0 ],
						"openrect" : [ 0.0, 0.0, 0.0, 0.0 ],
						"openinpresentation" : 0,
						"default_fontsize" : 12.0,
						"default_fontface" : 0,
						"default_fontname" : "Arial",
						"gridonopen" : 0,
						"gridsize" : [ 15.0, 15.0 ],
						"gridsnaponopen" : 0,
						"toolbarvisible" : 1,
						"boxanimatetime" : 200,
						"imprint" : 0,
						"enablehscroll" : 1,
						"enablevscroll" : 1,
						"devicewidth" : 0.0,
						"boxes" : [ 							{
								"box" : 								{
									"maxclass" : "newobj",
									"text" : "s selektor1",
									"numoutlets" : 0,
									"fontname" : "Arial",
									"patching_rect" : [ 268.0, 364.0, 69.0, 20.0 ],
									"id" : "obj-7",
									"numinlets" : 1,
									"fontsize" : 12.0
								}

							}
, 							{
								"box" : 								{
									"maxclass" : "outlet",
									"numoutlets" : 0,
									"patching_rect" : [ 513.0, 311.0, 25.0, 25.0 ],
									"id" : "obj-40",
									"numinlets" : 1,
									"comment" : ""
								}

							}
, 							{
								"box" : 								{
									"maxclass" : "outlet",
									"numoutlets" : 0,
									"patching_rect" : [ 111.0, 360.0, 25.0, 25.0 ],
									"id" : "obj-39",
									"numinlets" : 1,
									"comment" : ""
								}

							}
, 							{
								"box" : 								{
									"maxclass" : "message",
									"text" : "0",
									"numoutlets" : 1,
									"outlettype" : [ "" ],
									"fontname" : "Arial",
									"patching_rect" : [ 362.0, 194.0, 32.5, 18.0 ],
									"id" : "obj-37",
									"numinlets" : 2,
									"fontsize" : 12.0
								}

							}
, 							{
								"box" : 								{
									"maxclass" : "message",
									"text" : "75",
									"numoutlets" : 1,
									"outlettype" : [ "" ],
									"fontname" : "Arial",
									"patching_rect" : [ 314.0, 196.0, 32.5, 18.0 ],
									"id" : "obj-38",
									"numinlets" : 2,
									"fontsize" : 12.0
								}

							}
, 							{
								"box" : 								{
									"maxclass" : "message",
									"text" : "65",
									"numoutlets" : 1,
									"outlettype" : [ "" ],
									"fontname" : "Arial",
									"patching_rect" : [ 264.0, 194.0, 32.5, 18.0 ],
									"id" : "obj-35",
									"numinlets" : 2,
									"fontsize" : 12.0
								}

							}
, 							{
								"box" : 								{
									"maxclass" : "message",
									"text" : "55",
									"numoutlets" : 1,
									"outlettype" : [ "" ],
									"fontname" : "Arial",
									"patching_rect" : [ 216.0, 196.0, 32.5, 18.0 ],
									"id" : "obj-36",
									"numinlets" : 2,
									"fontsize" : 12.0
								}

							}
, 							{
								"box" : 								{
									"maxclass" : "message",
									"text" : "45",
									"numoutlets" : 1,
									"outlettype" : [ "" ],
									"fontname" : "Arial",
									"patching_rect" : [ 173.0, 195.0, 32.5, 18.0 ],
									"id" : "obj-33",
									"numinlets" : 2,
									"fontsize" : 12.0
								}

							}
, 							{
								"box" : 								{
									"maxclass" : "message",
									"text" : "35",
									"numoutlets" : 1,
									"outlettype" : [ "" ],
									"fontname" : "Arial",
									"patching_rect" : [ 125.0, 197.0, 32.5, 18.0 ],
									"id" : "obj-34",
									"numinlets" : 2,
									"fontsize" : 12.0
								}

							}
, 							{
								"box" : 								{
									"maxclass" : "number",
									"numoutlets" : 2,
									"outlettype" : [ "int", "bang" ],
									"fontname" : "Arial",
									"patching_rect" : [ 510.0, 140.0, 52.0, 20.0 ],
									"id" : "obj-25",
									"numinlets" : 1,
									"fontsize" : 12.0
								}

							}
, 							{
								"box" : 								{
									"maxclass" : "newobj",
									"text" : "* 127.",
									"numoutlets" : 1,
									"outlettype" : [ "float" ],
									"fontname" : "Arial",
									"patching_rect" : [ 510.0, 117.0, 42.0, 20.0 ],
									"id" : "obj-26",
									"numinlets" : 2,
									"fontsize" : 12.0
								}

							}
, 							{
								"box" : 								{
									"maxclass" : "slider",
									"numoutlets" : 1,
									"outlettype" : [ "" ],
									"patching_rect" : [ 510.0, 169.0, 22.0, 103.0 ],
									"id" : "obj-27",
									"numinlets" : 1
								}

							}
, 							{
								"box" : 								{
									"maxclass" : "message",
									"text" : "bang",
									"numoutlets" : 1,
									"outlettype" : [ "" ],
									"fontname" : "Arial",
									"patching_rect" : [ 385.0, 138.0, 37.0, 18.0 ],
									"id" : "obj-21",
									"numinlets" : 2,
									"fontsize" : 12.0
								}

							}
, 							{
								"box" : 								{
									"maxclass" : "newobj",
									"text" : "gate",
									"numoutlets" : 1,
									"outlettype" : [ "" ],
									"fontname" : "Arial",
									"patching_rect" : [ 367.0, 162.0, 34.0, 20.0 ],
									"id" : "obj-22",
									"numinlets" : 2,
									"fontsize" : 12.0
								}

							}
, 							{
								"box" : 								{
									"maxclass" : "message",
									"text" : "bang",
									"numoutlets" : 1,
									"outlettype" : [ "" ],
									"fontname" : "Arial",
									"patching_rect" : [ 338.0, 137.0, 37.0, 18.0 ],
									"id" : "obj-19",
									"numinlets" : 2,
									"fontsize" : 12.0
								}

							}
, 							{
								"box" : 								{
									"maxclass" : "newobj",
									"text" : "gate",
									"numoutlets" : 1,
									"outlettype" : [ "" ],
									"fontname" : "Arial",
									"patching_rect" : [ 320.0, 161.0, 34.0, 20.0 ],
									"id" : "obj-20",
									"numinlets" : 2,
									"fontsize" : 12.0
								}

							}
, 							{
								"box" : 								{
									"maxclass" : "message",
									"text" : "bang",
									"numoutlets" : 1,
									"outlettype" : [ "" ],
									"fontname" : "Arial",
									"patching_rect" : [ 289.0, 137.0, 37.0, 18.0 ],
									"id" : "obj-17",
									"numinlets" : 2,
									"fontsize" : 12.0
								}

							}
, 							{
								"box" : 								{
									"maxclass" : "newobj",
									"text" : "gate",
									"numoutlets" : 1,
									"outlettype" : [ "" ],
									"fontname" : "Arial",
									"patching_rect" : [ 271.0, 161.0, 34.0, 20.0 ],
									"id" : "obj-18",
									"numinlets" : 2,
									"fontsize" : 12.0
								}

							}
, 							{
								"box" : 								{
									"maxclass" : "message",
									"text" : "bang",
									"numoutlets" : 1,
									"outlettype" : [ "" ],
									"fontname" : "Arial",
									"patching_rect" : [ 235.0, 135.0, 37.0, 18.0 ],
									"id" : "obj-15",
									"numinlets" : 2,
									"fontsize" : 12.0
								}

							}
, 							{
								"box" : 								{
									"maxclass" : "newobj",
									"text" : "gate",
									"numoutlets" : 1,
									"outlettype" : [ "" ],
									"fontname" : "Arial",
									"patching_rect" : [ 217.0, 159.0, 34.0, 20.0 ],
									"id" : "obj-16",
									"numinlets" : 2,
									"fontsize" : 12.0
								}

							}
, 							{
								"box" : 								{
									"maxclass" : "message",
									"text" : "bang",
									"numoutlets" : 1,
									"outlettype" : [ "" ],
									"fontname" : "Arial",
									"patching_rect" : [ 187.0, 133.0, 37.0, 18.0 ],
									"id" : "obj-13",
									"numinlets" : 2,
									"fontsize" : 12.0
								}

							}
, 							{
								"box" : 								{
									"maxclass" : "newobj",
									"text" : "gate",
									"numoutlets" : 1,
									"outlettype" : [ "" ],
									"fontname" : "Arial",
									"patching_rect" : [ 169.0, 157.0, 34.0, 20.0 ],
									"id" : "obj-14",
									"numinlets" : 2,
									"fontsize" : 12.0
								}

							}
, 							{
								"box" : 								{
									"maxclass" : "message",
									"text" : "bang",
									"numoutlets" : 1,
									"outlettype" : [ "" ],
									"fontname" : "Arial",
									"patching_rect" : [ 140.0, 133.0, 37.0, 18.0 ],
									"id" : "obj-11",
									"numinlets" : 2,
									"fontsize" : 12.0
								}

							}
, 							{
								"box" : 								{
									"maxclass" : "newobj",
									"text" : "gate",
									"numoutlets" : 1,
									"outlettype" : [ "" ],
									"fontname" : "Arial",
									"patching_rect" : [ 122.0, 157.0, 34.0, 20.0 ],
									"id" : "obj-12",
									"numinlets" : 2,
									"fontsize" : 12.0
								}

							}
, 							{
								"box" : 								{
									"maxclass" : "message",
									"text" : "25",
									"numoutlets" : 1,
									"outlettype" : [ "" ],
									"fontname" : "Arial",
									"patching_rect" : [ 85.0, 196.0, 32.5, 18.0 ],
									"id" : "obj-8",
									"numinlets" : 2,
									"fontsize" : 12.0
								}

							}
, 							{
								"box" : 								{
									"maxclass" : "message",
									"text" : "bang",
									"numoutlets" : 1,
									"outlettype" : [ "" ],
									"fontname" : "Arial",
									"patching_rect" : [ 90.0, 132.0, 37.0, 18.0 ],
									"id" : "obj-9",
									"numinlets" : 2,
									"fontsize" : 12.0
								}

							}
, 							{
								"box" : 								{
									"maxclass" : "newobj",
									"text" : "gate",
									"numoutlets" : 1,
									"outlettype" : [ "" ],
									"fontname" : "Arial",
									"patching_rect" : [ 72.0, 156.0, 34.0, 20.0 ],
									"id" : "obj-10",
									"numinlets" : 2,
									"fontsize" : 12.0
								}

							}
, 							{
								"box" : 								{
									"maxclass" : "number",
									"numoutlets" : 2,
									"outlettype" : [ "int", "bang" ],
									"fontname" : "Arial",
									"patching_rect" : [ 452.0, 140.0, 52.0, 20.0 ],
									"id" : "obj-29",
									"numinlets" : 1,
									"fontsize" : 12.0
								}

							}
, 							{
								"box" : 								{
									"maxclass" : "newobj",
									"text" : "* 255.",
									"numoutlets" : 1,
									"outlettype" : [ "float" ],
									"fontname" : "Arial",
									"patching_rect" : [ 452.0, 117.0, 44.0, 20.0 ],
									"id" : "obj-30",
									"numinlets" : 2,
									"fontsize" : 12.0
								}

							}
, 							{
								"box" : 								{
									"maxclass" : "slider",
									"numoutlets" : 1,
									"outlettype" : [ "" ],
									"size" : 255.0,
									"patching_rect" : [ 452.0, 169.0, 22.0, 103.0 ],
									"id" : "obj-31",
									"numinlets" : 1
								}

							}
, 							{
								"box" : 								{
									"maxclass" : "outlet",
									"numoutlets" : 0,
									"patching_rect" : [ 450.0, 316.0, 25.0, 25.0 ],
									"id" : "obj-6",
									"numinlets" : 1,
									"comment" : ""
								}

							}
, 							{
								"box" : 								{
									"maxclass" : "message",
									"text" : "15",
									"numoutlets" : 1,
									"outlettype" : [ "" ],
									"fontname" : "Arial",
									"patching_rect" : [ 37.0, 198.0, 32.5, 18.0 ],
									"id" : "obj-3",
									"numinlets" : 2,
									"fontsize" : 12.0
								}

							}
, 							{
								"box" : 								{
									"maxclass" : "message",
									"text" : "bang",
									"numoutlets" : 1,
									"outlettype" : [ "" ],
									"fontname" : "Arial",
									"patching_rect" : [ 37.0, 135.0, 37.0, 18.0 ],
									"id" : "obj-5",
									"numinlets" : 2,
									"fontsize" : 12.0
								}

							}
, 							{
								"box" : 								{
									"maxclass" : "newobj",
									"text" : "gate",
									"numoutlets" : 1,
									"outlettype" : [ "" ],
									"fontname" : "Arial",
									"patching_rect" : [ 19.0, 159.0, 34.0, 20.0 ],
									"id" : "obj-4",
									"numinlets" : 2,
									"fontsize" : 12.0
								}

							}
, 							{
								"box" : 								{
									"maxclass" : "newobj",
									"text" : "osc-route /1/fader1 /1/push1 /1/push2 /1/push3 /1/push4 /1/push5 /1/push6 /1/push7 /1/push9 /1/fader2",
									"numoutlets" : 11,
									"outlettype" : [ "", "", "", "", "", "", "", "", "", "", "" ],
									"fontname" : "Arial",
									"patching_rect" : [ 34.0, 78.0, 557.0, 20.0 ],
									"id" : "obj-2",
									"numinlets" : 1,
									"fontsize" : 12.0
								}

							}
, 							{
								"box" : 								{
									"maxclass" : "newobj",
									"text" : "udpreceive 8000",
									"numoutlets" : 1,
									"outlettype" : [ "" ],
									"fontname" : "Arial",
									"patching_rect" : [ 144.0, 41.0, 99.0, 20.0 ],
									"id" : "obj-1",
									"numinlets" : 1,
									"fontsize" : 12.0
								}

							}
 ],
						"lines" : [ 							{
								"patchline" : 								{
									"source" : [ "obj-2", 9 ],
									"destination" : [ "obj-26", 0 ],
									"hidden" : 0,
									"midpoints" : [  ]
								}

							}
, 							{
								"patchline" : 								{
									"source" : [ "obj-1", 0 ],
									"destination" : [ "obj-2", 0 ],
									"hidden" : 0,
									"midpoints" : [  ]
								}

							}
, 							{
								"patchline" : 								{
									"source" : [ "obj-2", 1 ],
									"destination" : [ "obj-5", 0 ],
									"hidden" : 0,
									"midpoints" : [  ]
								}

							}
, 							{
								"patchline" : 								{
									"source" : [ "obj-2", 1 ],
									"destination" : [ "obj-4", 0 ],
									"hidden" : 0,
									"midpoints" : [  ]
								}

							}
, 							{
								"patchline" : 								{
									"source" : [ "obj-2", 0 ],
									"destination" : [ "obj-30", 0 ],
									"hidden" : 0,
									"midpoints" : [  ]
								}

							}
, 							{
								"patchline" : 								{
									"source" : [ "obj-2", 2 ],
									"destination" : [ "obj-9", 0 ],
									"hidden" : 0,
									"midpoints" : [  ]
								}

							}
, 							{
								"patchline" : 								{
									"source" : [ "obj-2", 2 ],
									"destination" : [ "obj-10", 0 ],
									"hidden" : 0,
									"midpoints" : [  ]
								}

							}
, 							{
								"patchline" : 								{
									"source" : [ "obj-2", 3 ],
									"destination" : [ "obj-11", 0 ],
									"hidden" : 0,
									"midpoints" : [  ]
								}

							}
, 							{
								"patchline" : 								{
									"source" : [ "obj-2", 3 ],
									"destination" : [ "obj-12", 0 ],
									"hidden" : 0,
									"midpoints" : [  ]
								}

							}
, 							{
								"patchline" : 								{
									"source" : [ "obj-2", 4 ],
									"destination" : [ "obj-13", 0 ],
									"hidden" : 0,
									"midpoints" : [  ]
								}

							}
, 							{
								"patchline" : 								{
									"source" : [ "obj-2", 4 ],
									"destination" : [ "obj-14", 0 ],
									"hidden" : 0,
									"midpoints" : [  ]
								}

							}
, 							{
								"patchline" : 								{
									"source" : [ "obj-2", 5 ],
									"destination" : [ "obj-15", 0 ],
									"hidden" : 0,
									"midpoints" : [  ]
								}

							}
, 							{
								"patchline" : 								{
									"source" : [ "obj-2", 5 ],
									"destination" : [ "obj-16", 0 ],
									"hidden" : 0,
									"midpoints" : [  ]
								}

							}
, 							{
								"patchline" : 								{
									"source" : [ "obj-2", 6 ],
									"destination" : [ "obj-17", 0 ],
									"hidden" : 0,
									"midpoints" : [  ]
								}

							}
, 							{
								"patchline" : 								{
									"source" : [ "obj-2", 6 ],
									"destination" : [ "obj-18", 0 ],
									"hidden" : 0,
									"midpoints" : [  ]
								}

							}
, 							{
								"patchline" : 								{
									"source" : [ "obj-2", 7 ],
									"destination" : [ "obj-19", 0 ],
									"hidden" : 0,
									"midpoints" : [  ]
								}

							}
, 							{
								"patchline" : 								{
									"source" : [ "obj-2", 7 ],
									"destination" : [ "obj-20", 0 ],
									"hidden" : 0,
									"midpoints" : [  ]
								}

							}
, 							{
								"patchline" : 								{
									"source" : [ "obj-2", 8 ],
									"destination" : [ "obj-21", 0 ],
									"hidden" : 0,
									"midpoints" : [  ]
								}

							}
, 							{
								"patchline" : 								{
									"source" : [ "obj-2", 8 ],
									"destination" : [ "obj-22", 0 ],
									"hidden" : 0,
									"midpoints" : [  ]
								}

							}
, 							{
								"patchline" : 								{
									"source" : [ "obj-22", 0 ],
									"destination" : [ "obj-37", 0 ],
									"hidden" : 0,
									"midpoints" : [  ]
								}

							}
, 							{
								"patchline" : 								{
									"source" : [ "obj-20", 0 ],
									"destination" : [ "obj-38", 0 ],
									"hidden" : 0,
									"midpoints" : [  ]
								}

							}
, 							{
								"patchline" : 								{
									"source" : [ "obj-18", 0 ],
									"destination" : [ "obj-35", 0 ],
									"hidden" : 0,
									"midpoints" : [  ]
								}

							}
, 							{
								"patchline" : 								{
									"source" : [ "obj-16", 0 ],
									"destination" : [ "obj-36", 0 ],
									"hidden" : 0,
									"midpoints" : [  ]
								}

							}
, 							{
								"patchline" : 								{
									"source" : [ "obj-14", 0 ],
									"destination" : [ "obj-33", 0 ],
									"hidden" : 0,
									"midpoints" : [  ]
								}

							}
, 							{
								"patchline" : 								{
									"source" : [ "obj-12", 0 ],
									"destination" : [ "obj-34", 0 ],
									"hidden" : 0,
									"midpoints" : [  ]
								}

							}
, 							{
								"patchline" : 								{
									"source" : [ "obj-25", 0 ],
									"destination" : [ "obj-27", 0 ],
									"hidden" : 0,
									"midpoints" : [  ]
								}

							}
, 							{
								"patchline" : 								{
									"source" : [ "obj-21", 0 ],
									"destination" : [ "obj-22", 1 ],
									"hidden" : 0,
									"midpoints" : [  ]
								}

							}
, 							{
								"patchline" : 								{
									"source" : [ "obj-19", 0 ],
									"destination" : [ "obj-20", 1 ],
									"hidden" : 0,
									"midpoints" : [  ]
								}

							}
, 							{
								"patchline" : 								{
									"source" : [ "obj-17", 0 ],
									"destination" : [ "obj-18", 1 ],
									"hidden" : 0,
									"midpoints" : [  ]
								}

							}
, 							{
								"patchline" : 								{
									"source" : [ "obj-15", 0 ],
									"destination" : [ "obj-16", 1 ],
									"hidden" : 0,
									"midpoints" : [  ]
								}

							}
, 							{
								"patchline" : 								{
									"source" : [ "obj-13", 0 ],
									"destination" : [ "obj-14", 1 ],
									"hidden" : 0,
									"midpoints" : [  ]
								}

							}
, 							{
								"patchline" : 								{
									"source" : [ "obj-11", 0 ],
									"destination" : [ "obj-12", 1 ],
									"hidden" : 0,
									"midpoints" : [  ]
								}

							}
, 							{
								"patchline" : 								{
									"source" : [ "obj-9", 0 ],
									"destination" : [ "obj-10", 1 ],
									"hidden" : 0,
									"midpoints" : [  ]
								}

							}
, 							{
								"patchline" : 								{
									"source" : [ "obj-10", 0 ],
									"destination" : [ "obj-8", 0 ],
									"hidden" : 0,
									"midpoints" : [  ]
								}

							}
, 							{
								"patchline" : 								{
									"source" : [ "obj-30", 0 ],
									"destination" : [ "obj-29", 0 ],
									"hidden" : 0,
									"midpoints" : [  ]
								}

							}
, 							{
								"patchline" : 								{
									"source" : [ "obj-29", 0 ],
									"destination" : [ "obj-31", 0 ],
									"hidden" : 0,
									"midpoints" : [  ]
								}

							}
, 							{
								"patchline" : 								{
									"source" : [ "obj-4", 0 ],
									"destination" : [ "obj-3", 0 ],
									"hidden" : 0,
									"midpoints" : [  ]
								}

							}
, 							{
								"patchline" : 								{
									"source" : [ "obj-5", 0 ],
									"destination" : [ "obj-4", 1 ],
									"hidden" : 0,
									"midpoints" : [  ]
								}

							}
, 							{
								"patchline" : 								{
									"source" : [ "obj-3", 0 ],
									"destination" : [ "obj-7", 0 ],
									"hidden" : 0,
									"midpoints" : [  ]
								}

							}
, 							{
								"patchline" : 								{
									"source" : [ "obj-8", 0 ],
									"destination" : [ "obj-7", 0 ],
									"hidden" : 0,
									"midpoints" : [  ]
								}

							}
, 							{
								"patchline" : 								{
									"source" : [ "obj-34", 0 ],
									"destination" : [ "obj-7", 0 ],
									"hidden" : 0,
									"midpoints" : [  ]
								}

							}
, 							{
								"patchline" : 								{
									"source" : [ "obj-33", 0 ],
									"destination" : [ "obj-7", 0 ],
									"hidden" : 0,
									"midpoints" : [  ]
								}

							}
, 							{
								"patchline" : 								{
									"source" : [ "obj-36", 0 ],
									"destination" : [ "obj-7", 0 ],
									"hidden" : 0,
									"midpoints" : [  ]
								}

							}
, 							{
								"patchline" : 								{
									"source" : [ "obj-35", 0 ],
									"destination" : [ "obj-7", 0 ],
									"hidden" : 0,
									"midpoints" : [  ]
								}

							}
, 							{
								"patchline" : 								{
									"source" : [ "obj-38", 0 ],
									"destination" : [ "obj-7", 0 ],
									"hidden" : 0,
									"midpoints" : [  ]
								}

							}
, 							{
								"patchline" : 								{
									"source" : [ "obj-37", 0 ],
									"destination" : [ "obj-7", 0 ],
									"hidden" : 0,
									"midpoints" : [  ]
								}

							}
, 							{
								"patchline" : 								{
									"source" : [ "obj-3", 0 ],
									"destination" : [ "obj-39", 0 ],
									"hidden" : 0,
									"midpoints" : [  ]
								}

							}
, 							{
								"patchline" : 								{
									"source" : [ "obj-8", 0 ],
									"destination" : [ "obj-39", 0 ],
									"hidden" : 0,
									"midpoints" : [  ]
								}

							}
, 							{
								"patchline" : 								{
									"source" : [ "obj-34", 0 ],
									"destination" : [ "obj-39", 0 ],
									"hidden" : 0,
									"midpoints" : [  ]
								}

							}
, 							{
								"patchline" : 								{
									"source" : [ "obj-33", 0 ],
									"destination" : [ "obj-39", 0 ],
									"hidden" : 0,
									"midpoints" : [  ]
								}

							}
, 							{
								"patchline" : 								{
									"source" : [ "obj-36", 0 ],
									"destination" : [ "obj-39", 0 ],
									"hidden" : 0,
									"midpoints" : [  ]
								}

							}
, 							{
								"patchline" : 								{
									"source" : [ "obj-35", 0 ],
									"destination" : [ "obj-39", 0 ],
									"hidden" : 0,
									"midpoints" : [  ]
								}

							}
, 							{
								"patchline" : 								{
									"source" : [ "obj-38", 0 ],
									"destination" : [ "obj-39", 0 ],
									"hidden" : 0,
									"midpoints" : [  ]
								}

							}
, 							{
								"patchline" : 								{
									"source" : [ "obj-37", 0 ],
									"destination" : [ "obj-39", 0 ],
									"hidden" : 0,
									"midpoints" : [  ]
								}

							}
, 							{
								"patchline" : 								{
									"source" : [ "obj-31", 0 ],
									"destination" : [ "obj-7", 0 ],
									"hidden" : 0,
									"midpoints" : [  ]
								}

							}
, 							{
								"patchline" : 								{
									"source" : [ "obj-31", 0 ],
									"destination" : [ "obj-6", 0 ],
									"hidden" : 0,
									"midpoints" : [  ]
								}

							}
, 							{
								"patchline" : 								{
									"source" : [ "obj-27", 0 ],
									"destination" : [ "obj-40", 0 ],
									"hidden" : 0,
									"midpoints" : [  ]
								}

							}
, 							{
								"patchline" : 								{
									"source" : [ "obj-26", 0 ],
									"destination" : [ "obj-25", 0 ],
									"hidden" : 0,
									"midpoints" : [  ]
								}

							}
 ]
					}
,
					"saved_object_attributes" : 					{
						"default_fontface" : 0,
						"default_fontname" : "Arial",
						"fontname" : "Arial",
						"default_fontsize" : 12.0,
						"globalpatchername" : "",
						"fontface" : 0,
						"fontsize" : 12.0
					}

				}

			}
, 			{
				"box" : 				{
					"maxclass" : "newobj",
					"text" : "p communication",
					"numoutlets" : 1,
					"outlettype" : [ "" ],
					"fontname" : "Arial",
					"patching_rect" : [ 28.0, 129.0, 101.0, 20.0 ],
					"id" : "obj-4",
					"numinlets" : 0,
					"fontsize" : 12.0,
					"patcher" : 					{
						"fileversion" : 1,
						"rect" : [ 25.0, 69.0, 295.0, 306.0 ],
						"bglocked" : 0,
						"defrect" : [ 25.0, 69.0, 295.0, 306.0 ],
						"openrect" : [ 0.0, 0.0, 0.0, 0.0 ],
						"openinpresentation" : 0,
						"default_fontsize" : 12.0,
						"default_fontface" : 0,
						"default_fontname" : "Arial",
						"gridonopen" : 0,
						"gridsize" : [ 15.0, 15.0 ],
						"gridsnaponopen" : 0,
						"toolbarvisible" : 1,
						"boxanimatetime" : 200,
						"imprint" : 0,
						"enablehscroll" : 1,
						"enablevscroll" : 1,
						"devicewidth" : 0.0,
						"boxes" : [ 							{
								"box" : 								{
									"maxclass" : "message",
									"text" : "bang",
									"numoutlets" : 1,
									"outlettype" : [ "" ],
									"fontname" : "Arial",
									"patching_rect" : [ 84.0, 125.0, 37.0, 18.0 ],
									"id" : "obj-6",
									"numinlets" : 2,
									"fontsize" : 12.0
								}

							}
, 							{
								"box" : 								{
									"maxclass" : "newobj",
									"text" : "gate",
									"numoutlets" : 1,
									"outlettype" : [ "" ],
									"fontname" : "Arial",
									"patching_rect" : [ 75.0, 151.0, 34.0, 20.0 ],
									"id" : "obj-7",
									"numinlets" : 2,
									"fontsize" : 12.0
								}

							}
, 							{
								"box" : 								{
									"maxclass" : "message",
									"text" : "bang",
									"numoutlets" : 1,
									"outlettype" : [ "" ],
									"fontname" : "Arial",
									"patching_rect" : [ 124.0, 124.0, 37.0, 18.0 ],
									"id" : "obj-5",
									"numinlets" : 2,
									"fontsize" : 12.0
								}

							}
, 							{
								"box" : 								{
									"maxclass" : "newobj",
									"text" : "gate",
									"numoutlets" : 1,
									"outlettype" : [ "" ],
									"fontname" : "Arial",
									"patching_rect" : [ 115.0, 150.0, 34.0, 20.0 ],
									"id" : "obj-4",
									"numinlets" : 2,
									"fontsize" : 12.0
								}

							}
, 							{
								"box" : 								{
									"maxclass" : "newobj",
									"text" : "osc-route /4/push1 /4/push2",
									"numoutlets" : 3,
									"outlettype" : [ "", "", "" ],
									"fontname" : "Arial",
									"patching_rect" : [ 62.0, 101.0, 159.0, 20.0 ],
									"id" : "obj-3",
									"numinlets" : 1,
									"fontsize" : 12.0
								}

							}
, 							{
								"box" : 								{
									"maxclass" : "newobj",
									"text" : "udpreceive 8000",
									"numoutlets" : 1,
									"outlettype" : [ "" ],
									"fontname" : "Arial",
									"patching_rect" : [ 62.0, 65.0, 99.0, 20.0 ],
									"id" : "obj-17",
									"numinlets" : 1,
									"fontsize" : 12.0
								}

							}
, 							{
								"box" : 								{
									"maxclass" : "outlet",
									"numoutlets" : 0,
									"patching_rect" : [ 166.0, 244.0, 25.0, 25.0 ],
									"id" : "obj-1",
									"numinlets" : 1,
									"comment" : ""
								}

							}
, 							{
								"box" : 								{
									"maxclass" : "message",
									"text" : "port a",
									"numoutlets" : 1,
									"outlettype" : [ "" ],
									"fontname" : "Arial",
									"patching_rect" : [ 82.0, 205.0, 41.0, 18.0 ],
									"id" : "obj-19",
									"numinlets" : 2,
									"fontsize" : 12.0
								}

							}
, 							{
								"box" : 								{
									"maxclass" : "newobj",
									"text" : "select 0 1",
									"numoutlets" : 3,
									"outlettype" : [ "bang", "bang", "" ],
									"fontname" : "Arial",
									"patching_rect" : [ 6.0, 150.0, 62.0, 20.0 ],
									"id" : "obj-20",
									"numinlets" : 1,
									"fontsize" : 12.0
								}

							}
, 							{
								"box" : 								{
									"maxclass" : "message",
									"text" : "close",
									"numoutlets" : 1,
									"outlettype" : [ "" ],
									"fontname" : "Arial",
									"patching_rect" : [ 38.0, 220.0, 39.0, 18.0 ],
									"id" : "obj-21",
									"numinlets" : 2,
									"fontsize" : 12.0
								}

							}
, 							{
								"box" : 								{
									"maxclass" : "message",
									"text" : "print",
									"numoutlets" : 1,
									"outlettype" : [ "" ],
									"fontname" : "Arial",
									"patching_rect" : [ 211.0, 203.0, 32.0, 15.0 ],
									"id" : "obj-25",
									"numinlets" : 2,
									"fontsize" : 9.0
								}

							}
 ],
						"lines" : [ 							{
								"patchline" : 								{
									"source" : [ "obj-7", 0 ],
									"destination" : [ "obj-19", 0 ],
									"hidden" : 0,
									"midpoints" : [  ]
								}

							}
, 							{
								"patchline" : 								{
									"source" : [ "obj-3", 0 ],
									"destination" : [ "obj-6", 0 ],
									"hidden" : 0,
									"midpoints" : [  ]
								}

							}
, 							{
								"patchline" : 								{
									"source" : [ "obj-3", 0 ],
									"destination" : [ "obj-7", 0 ],
									"hidden" : 0,
									"midpoints" : [  ]
								}

							}
, 							{
								"patchline" : 								{
									"source" : [ "obj-6", 0 ],
									"destination" : [ "obj-7", 1 ],
									"hidden" : 0,
									"midpoints" : [  ]
								}

							}
, 							{
								"patchline" : 								{
									"source" : [ "obj-4", 0 ],
									"destination" : [ "obj-21", 0 ],
									"hidden" : 0,
									"midpoints" : [  ]
								}

							}
, 							{
								"patchline" : 								{
									"source" : [ "obj-3", 1 ],
									"destination" : [ "obj-4", 0 ],
									"hidden" : 0,
									"midpoints" : [  ]
								}

							}
, 							{
								"patchline" : 								{
									"source" : [ "obj-5", 0 ],
									"destination" : [ "obj-4", 1 ],
									"hidden" : 0,
									"midpoints" : [  ]
								}

							}
, 							{
								"patchline" : 								{
									"source" : [ "obj-3", 1 ],
									"destination" : [ "obj-5", 0 ],
									"hidden" : 0,
									"midpoints" : [  ]
								}

							}
, 							{
								"patchline" : 								{
									"source" : [ "obj-17", 0 ],
									"destination" : [ "obj-3", 0 ],
									"hidden" : 0,
									"midpoints" : [  ]
								}

							}
, 							{
								"patchline" : 								{
									"source" : [ "obj-25", 0 ],
									"destination" : [ "obj-1", 0 ],
									"hidden" : 0,
									"midpoints" : [  ]
								}

							}
, 							{
								"patchline" : 								{
									"source" : [ "obj-21", 0 ],
									"destination" : [ "obj-1", 0 ],
									"hidden" : 0,
									"midpoints" : [  ]
								}

							}
, 							{
								"patchline" : 								{
									"source" : [ "obj-19", 0 ],
									"destination" : [ "obj-1", 0 ],
									"hidden" : 0,
									"midpoints" : [  ]
								}

							}
, 							{
								"patchline" : 								{
									"source" : [ "obj-20", 1 ],
									"destination" : [ "obj-19", 0 ],
									"hidden" : 0,
									"midpoints" : [  ]
								}

							}
, 							{
								"patchline" : 								{
									"source" : [ "obj-20", 0 ],
									"destination" : [ "obj-21", 0 ],
									"hidden" : 0,
									"midpoints" : [  ]
								}

							}
 ]
					}
,
					"saved_object_attributes" : 					{
						"default_fontface" : 0,
						"default_fontname" : "Arial",
						"fontname" : "Arial",
						"default_fontsize" : 12.0,
						"globalpatchername" : "",
						"fontface" : 0,
						"fontsize" : 12.0
					}

				}

			}
, 			{
				"box" : 				{
					"maxclass" : "number",
					"numoutlets" : 2,
					"outlettype" : [ "int", "bang" ],
					"fontname" : "Arial",
					"patching_rect" : [ 367.0, 33.0, 50.0, 20.0 ],
					"id" : "obj-34",
					"numinlets" : 1,
					"fontsize" : 12.0
				}

			}
, 			{
				"box" : 				{
					"maxclass" : "newobj",
					"text" : "p mode3",
					"numoutlets" : 5,
					"outlettype" : [ "", "", "", "", "" ],
					"fontname" : "Arial",
					"patching_rect" : [ 41.0, 35.0, 73.0, 20.0 ],
					"id" : "obj-33",
					"numinlets" : 0,
					"fontsize" : 12.0,
					"patcher" : 					{
						"fileversion" : 1,
						"rect" : [ 202.0, 121.0, 837.0, 565.0 ],
						"bglocked" : 0,
						"defrect" : [ 202.0, 121.0, 837.0, 565.0 ],
						"openrect" : [ 0.0, 0.0, 0.0, 0.0 ],
						"openinpresentation" : 0,
						"default_fontsize" : 12.0,
						"default_fontface" : 0,
						"default_fontname" : "Arial",
						"gridonopen" : 0,
						"gridsize" : [ 15.0, 15.0 ],
						"gridsnaponopen" : 0,
						"toolbarvisible" : 1,
						"boxanimatetime" : 200,
						"imprint" : 0,
						"enablehscroll" : 1,
						"enablevscroll" : 1,
						"devicewidth" : 0.0,
						"boxes" : [ 							{
								"box" : 								{
									"maxclass" : "newobj",
									"text" : "if $i1 == 1 then 255 else $i2",
									"numoutlets" : 1,
									"outlettype" : [ "" ],
									"fontname" : "Arial",
									"patching_rect" : [ 557.0, 210.0, 158.0, 20.0 ],
									"id" : "obj-42",
									"numinlets" : 2,
									"fontsize" : 12.0
								}

							}
, 							{
								"box" : 								{
									"maxclass" : "newobj",
									"text" : "if $i1 == 1 then 255 else $i2",
									"numoutlets" : 1,
									"outlettype" : [ "" ],
									"fontname" : "Arial",
									"patching_rect" : [ 451.0, 174.0, 158.0, 20.0 ],
									"id" : "obj-41",
									"numinlets" : 2,
									"fontsize" : 12.0
								}

							}
, 							{
								"box" : 								{
									"maxclass" : "slider",
									"numoutlets" : 1,
									"outlettype" : [ "" ],
									"size" : 255.0,
									"patching_rect" : [ 287.0, 168.0, 22.0, 103.0 ],
									"id" : "obj-40",
									"numinlets" : 1
								}

							}
, 							{
								"box" : 								{
									"maxclass" : "slider",
									"numoutlets" : 1,
									"outlettype" : [ "" ],
									"size" : 255.0,
									"patching_rect" : [ 232.0, 170.0, 22.0, 103.0 ],
									"id" : "obj-39",
									"numinlets" : 1
								}

							}
, 							{
								"box" : 								{
									"maxclass" : "slider",
									"numoutlets" : 1,
									"outlettype" : [ "" ],
									"size" : 255.0,
									"patching_rect" : [ 168.0, 170.0, 22.0, 103.0 ],
									"id" : "obj-38",
									"numinlets" : 1
								}

							}
, 							{
								"box" : 								{
									"maxclass" : "newobj",
									"text" : "if $i1 == 1 then 255 else $i2",
									"numoutlets" : 1,
									"outlettype" : [ "" ],
									"fontname" : "Arial",
									"patching_rect" : [ -30.0, 45.0, 158.0, 20.0 ],
									"id" : "obj-20",
									"numinlets" : 2,
									"fontsize" : 12.0
								}

							}
, 							{
								"box" : 								{
									"maxclass" : "newobj",
									"text" : "s selektor3",
									"numoutlets" : 0,
									"fontname" : "Arial",
									"patching_rect" : [ 42.0, 445.0, 69.0, 20.0 ],
									"id" : "obj-22",
									"numinlets" : 1,
									"fontsize" : 12.0
								}

							}
, 							{
								"box" : 								{
									"maxclass" : "outlet",
									"numoutlets" : 0,
									"patching_rect" : [ 344.0, 429.0, 25.0, 25.0 ],
									"id" : "obj-19",
									"numinlets" : 1,
									"comment" : ""
								}

							}
, 							{
								"box" : 								{
									"maxclass" : "outlet",
									"numoutlets" : 0,
									"patching_rect" : [ 304.0, 428.0, 25.0, 25.0 ],
									"id" : "obj-18",
									"numinlets" : 1,
									"comment" : ""
								}

							}
, 							{
								"box" : 								{
									"maxclass" : "outlet",
									"numoutlets" : 0,
									"patching_rect" : [ 251.0, 426.0, 25.0, 25.0 ],
									"id" : "obj-15",
									"numinlets" : 1,
									"comment" : ""
								}

							}
, 							{
								"box" : 								{
									"maxclass" : "outlet",
									"numoutlets" : 0,
									"patching_rect" : [ 191.0, 426.0, 25.0, 25.0 ],
									"id" : "obj-14",
									"numinlets" : 1,
									"comment" : ""
								}

							}
, 							{
								"box" : 								{
									"maxclass" : "outlet",
									"numoutlets" : 0,
									"patching_rect" : [ 150.0, 425.0, 25.0, 25.0 ],
									"id" : "obj-1",
									"numinlets" : 1,
									"comment" : ""
								}

							}
, 							{
								"box" : 								{
									"maxclass" : "number",
									"numoutlets" : 2,
									"outlettype" : [ "int", "bang" ],
									"fontname" : "Arial",
									"patching_rect" : [ 83.0, 112.0, 52.0, 20.0 ],
									"id" : "obj-29",
									"numinlets" : 1,
									"fontsize" : 12.0
								}

							}
, 							{
								"box" : 								{
									"maxclass" : "newobj",
									"text" : "* 255.",
									"numoutlets" : 1,
									"outlettype" : [ "float" ],
									"fontname" : "Arial",
									"patching_rect" : [ 83.0, 89.0, 44.0, 20.0 ],
									"id" : "obj-30",
									"numinlets" : 2,
									"fontsize" : 12.0
								}

							}
, 							{
								"box" : 								{
									"maxclass" : "slider",
									"numoutlets" : 1,
									"outlettype" : [ "" ],
									"size" : 255.0,
									"patching_rect" : [ 88.0, 179.0, 22.0, 103.0 ],
									"id" : "obj-31",
									"numinlets" : 1
								}

							}
, 							{
								"box" : 								{
									"maxclass" : "number",
									"numoutlets" : 2,
									"outlettype" : [ "int", "bang" ],
									"fontname" : "Arial",
									"patching_rect" : [ 392.0, 109.0, 50.0, 20.0 ],
									"id" : "obj-27",
									"numinlets" : 1,
									"fontsize" : 12.0
								}

							}
, 							{
								"box" : 								{
									"maxclass" : "newobj",
									"text" : "* 127.",
									"numoutlets" : 1,
									"outlettype" : [ "float" ],
									"fontname" : "Arial",
									"patching_rect" : [ 392.0, 86.0, 42.0, 20.0 ],
									"id" : "obj-28",
									"numinlets" : 2,
									"fontsize" : 12.0
								}

							}
, 							{
								"box" : 								{
									"maxclass" : "slider",
									"numoutlets" : 1,
									"outlettype" : [ "" ],
									"patching_rect" : [ 393.0, 141.0, 20.0, 140.0 ],
									"id" : "obj-23",
									"numinlets" : 1
								}

							}
, 							{
								"box" : 								{
									"maxclass" : "number",
									"numoutlets" : 2,
									"outlettype" : [ "int", "bang" ],
									"fontname" : "Arial",
									"patching_rect" : [ 286.0, 126.0, 50.0, 20.0 ],
									"id" : "obj-12",
									"numinlets" : 1,
									"fontsize" : 12.0
								}

							}
, 							{
								"box" : 								{
									"maxclass" : "newobj",
									"text" : "* 255.",
									"numoutlets" : 1,
									"outlettype" : [ "float" ],
									"fontname" : "Arial",
									"patching_rect" : [ 286.0, 103.0, 42.0, 20.0 ],
									"id" : "obj-13",
									"numinlets" : 2,
									"fontsize" : 12.0
								}

							}
, 							{
								"box" : 								{
									"maxclass" : "number",
									"numoutlets" : 2,
									"outlettype" : [ "int", "bang" ],
									"fontname" : "Arial",
									"patching_rect" : [ 233.0, 125.0, 50.0, 20.0 ],
									"id" : "obj-8",
									"numinlets" : 1,
									"fontsize" : 12.0
								}

							}
, 							{
								"box" : 								{
									"maxclass" : "newobj",
									"text" : "* 255.",
									"numoutlets" : 1,
									"outlettype" : [ "float" ],
									"fontname" : "Arial",
									"patching_rect" : [ 236.0, 102.0, 42.0, 20.0 ],
									"id" : "obj-10",
									"numinlets" : 2,
									"fontsize" : 12.0
								}

							}
, 							{
								"box" : 								{
									"maxclass" : "newobj",
									"text" : "osc-route /3/fader1 /3/fader2 /3/fader3 /3/fader4 /3/fader5 /3/push1 /3/push2 /3/push3",
									"numoutlets" : 9,
									"outlettype" : [ "", "", "", "", "", "", "", "", "" ],
									"fontname" : "Arial",
									"patching_rect" : [ 156.0, 60.0, 462.0, 20.0 ],
									"id" : "obj-3",
									"numinlets" : 1,
									"fontsize" : 12.0
								}

							}
, 							{
								"box" : 								{
									"maxclass" : "number",
									"numoutlets" : 2,
									"outlettype" : [ "int", "bang" ],
									"fontname" : "Arial",
									"patching_rect" : [ 173.0, 127.0, 50.0, 20.0 ],
									"id" : "obj-2",
									"numinlets" : 1,
									"fontsize" : 12.0
								}

							}
, 							{
								"box" : 								{
									"maxclass" : "newobj",
									"text" : "* 255.",
									"numoutlets" : 1,
									"outlettype" : [ "float" ],
									"fontname" : "Arial",
									"patching_rect" : [ 173.0, 104.0, 42.0, 20.0 ],
									"id" : "obj-9",
									"numinlets" : 2,
									"fontsize" : 12.0
								}

							}
, 							{
								"box" : 								{
									"maxclass" : "newobj",
									"text" : "udpreceive 8000",
									"numoutlets" : 1,
									"outlettype" : [ "" ],
									"fontname" : "Arial",
									"patching_rect" : [ 149.0, 18.0, 99.0, 20.0 ],
									"id" : "obj-17",
									"numinlets" : 1,
									"fontsize" : 12.0
								}

							}
 ],
						"lines" : [ 							{
								"patchline" : 								{
									"source" : [ "obj-29", 0 ],
									"destination" : [ "obj-31", 0 ],
									"hidden" : 0,
									"midpoints" : [  ]
								}

							}
, 							{
								"patchline" : 								{
									"source" : [ "obj-30", 0 ],
									"destination" : [ "obj-29", 0 ],
									"hidden" : 0,
									"midpoints" : [  ]
								}

							}
, 							{
								"patchline" : 								{
									"source" : [ "obj-13", 0 ],
									"destination" : [ "obj-12", 0 ],
									"hidden" : 0,
									"midpoints" : [  ]
								}

							}
, 							{
								"patchline" : 								{
									"source" : [ "obj-10", 0 ],
									"destination" : [ "obj-8", 0 ],
									"hidden" : 0,
									"midpoints" : [  ]
								}

							}
, 							{
								"patchline" : 								{
									"source" : [ "obj-9", 0 ],
									"destination" : [ "obj-2", 0 ],
									"hidden" : 0,
									"midpoints" : [  ]
								}

							}
, 							{
								"patchline" : 								{
									"source" : [ "obj-27", 0 ],
									"destination" : [ "obj-23", 0 ],
									"hidden" : 0,
									"midpoints" : [  ]
								}

							}
, 							{
								"patchline" : 								{
									"source" : [ "obj-31", 0 ],
									"destination" : [ "obj-22", 0 ],
									"hidden" : 0,
									"midpoints" : [  ]
								}

							}
, 							{
								"patchline" : 								{
									"source" : [ "obj-31", 0 ],
									"destination" : [ "obj-1", 0 ],
									"hidden" : 0,
									"midpoints" : [  ]
								}

							}
, 							{
								"patchline" : 								{
									"source" : [ "obj-23", 0 ],
									"destination" : [ "obj-19", 0 ],
									"hidden" : 0,
									"midpoints" : [  ]
								}

							}
, 							{
								"patchline" : 								{
									"source" : [ "obj-8", 0 ],
									"destination" : [ "obj-39", 0 ],
									"hidden" : 0,
									"midpoints" : [  ]
								}

							}
, 							{
								"patchline" : 								{
									"source" : [ "obj-12", 0 ],
									"destination" : [ "obj-40", 0 ],
									"hidden" : 0,
									"midpoints" : [  ]
								}

							}
, 							{
								"patchline" : 								{
									"source" : [ "obj-38", 0 ],
									"destination" : [ "obj-14", 0 ],
									"hidden" : 0,
									"midpoints" : [  ]
								}

							}
, 							{
								"patchline" : 								{
									"source" : [ "obj-39", 0 ],
									"destination" : [ "obj-15", 0 ],
									"hidden" : 0,
									"midpoints" : [  ]
								}

							}
, 							{
								"patchline" : 								{
									"source" : [ "obj-40", 0 ],
									"destination" : [ "obj-18", 0 ],
									"hidden" : 0,
									"midpoints" : [  ]
								}

							}
, 							{
								"patchline" : 								{
									"source" : [ "obj-38", 0 ],
									"destination" : [ "obj-22", 0 ],
									"hidden" : 0,
									"midpoints" : [  ]
								}

							}
, 							{
								"patchline" : 								{
									"source" : [ "obj-39", 0 ],
									"destination" : [ "obj-22", 0 ],
									"hidden" : 0,
									"midpoints" : [  ]
								}

							}
, 							{
								"patchline" : 								{
									"source" : [ "obj-40", 0 ],
									"destination" : [ "obj-22", 0 ],
									"hidden" : 0,
									"midpoints" : [  ]
								}

							}
, 							{
								"patchline" : 								{
									"source" : [ "obj-2", 0 ],
									"destination" : [ "obj-38", 0 ],
									"hidden" : 0,
									"midpoints" : [  ]
								}

							}
, 							{
								"patchline" : 								{
									"source" : [ "obj-20", 0 ],
									"destination" : [ "obj-38", 0 ],
									"hidden" : 0,
									"midpoints" : [  ]
								}

							}
, 							{
								"patchline" : 								{
									"source" : [ "obj-2", 0 ],
									"destination" : [ "obj-20", 1 ],
									"hidden" : 0,
									"midpoints" : [  ]
								}

							}
, 							{
								"patchline" : 								{
									"source" : [ "obj-3", 0 ],
									"destination" : [ "obj-30", 0 ],
									"hidden" : 0,
									"midpoints" : [  ]
								}

							}
, 							{
								"patchline" : 								{
									"source" : [ "obj-17", 0 ],
									"destination" : [ "obj-3", 0 ],
									"hidden" : 0,
									"midpoints" : [  ]
								}

							}
, 							{
								"patchline" : 								{
									"source" : [ "obj-3", 5 ],
									"destination" : [ "obj-20", 0 ],
									"hidden" : 0,
									"midpoints" : [  ]
								}

							}
, 							{
								"patchline" : 								{
									"source" : [ "obj-3", 1 ],
									"destination" : [ "obj-9", 0 ],
									"hidden" : 0,
									"midpoints" : [  ]
								}

							}
, 							{
								"patchline" : 								{
									"source" : [ "obj-3", 2 ],
									"destination" : [ "obj-10", 0 ],
									"hidden" : 0,
									"midpoints" : [  ]
								}

							}
, 							{
								"patchline" : 								{
									"source" : [ "obj-3", 3 ],
									"destination" : [ "obj-13", 0 ],
									"hidden" : 0,
									"midpoints" : [  ]
								}

							}
, 							{
								"patchline" : 								{
									"source" : [ "obj-3", 6 ],
									"destination" : [ "obj-41", 0 ],
									"hidden" : 0,
									"midpoints" : [  ]
								}

							}
, 							{
								"patchline" : 								{
									"source" : [ "obj-3", 7 ],
									"destination" : [ "obj-42", 0 ],
									"hidden" : 0,
									"midpoints" : [  ]
								}

							}
, 							{
								"patchline" : 								{
									"source" : [ "obj-8", 0 ],
									"destination" : [ "obj-41", 1 ],
									"hidden" : 0,
									"midpoints" : [  ]
								}

							}
, 							{
								"patchline" : 								{
									"source" : [ "obj-41", 0 ],
									"destination" : [ "obj-39", 0 ],
									"hidden" : 0,
									"midpoints" : [  ]
								}

							}
, 							{
								"patchline" : 								{
									"source" : [ "obj-12", 0 ],
									"destination" : [ "obj-42", 1 ],
									"hidden" : 0,
									"midpoints" : [  ]
								}

							}
, 							{
								"patchline" : 								{
									"source" : [ "obj-42", 0 ],
									"destination" : [ "obj-40", 0 ],
									"hidden" : 0,
									"midpoints" : [  ]
								}

							}
, 							{
								"patchline" : 								{
									"source" : [ "obj-28", 0 ],
									"destination" : [ "obj-27", 0 ],
									"hidden" : 0,
									"midpoints" : [  ]
								}

							}
, 							{
								"patchline" : 								{
									"source" : [ "obj-3", 4 ],
									"destination" : [ "obj-28", 0 ],
									"hidden" : 0,
									"midpoints" : [  ]
								}

							}
 ]
					}
,
					"saved_object_attributes" : 					{
						"default_fontface" : 0,
						"default_fontname" : "Arial",
						"fontname" : "Arial",
						"default_fontsize" : 12.0,
						"globalpatchername" : "",
						"fontface" : 0,
						"fontsize" : 12.0
					}

				}

			}
, 			{
				"box" : 				{
					"maxclass" : "newobj",
					"text" : "print",
					"numoutlets" : 0,
					"fontname" : "Arial",
					"patching_rect" : [ 272.0, 148.0, 34.0, 20.0 ],
					"id" : "obj-26",
					"numinlets" : 1,
					"fontsize" : 12.0
				}

			}
, 			{
				"box" : 				{
					"maxclass" : "newobj",
					"text" : "bondo 8",
					"numoutlets" : 8,
					"outlettype" : [ "", "", "", "", "", "", "", "" ],
					"fontname" : "Arial",
					"patching_rect" : [ 152.0, 91.0, 113.5, 20.0 ],
					"id" : "obj-15",
					"numinlets" : 8,
					"fontsize" : 12.0
				}

			}
, 			{
				"box" : 				{
					"maxclass" : "newobj",
					"text" : "serial a 9600",
					"numoutlets" : 2,
					"outlettype" : [ "int", "" ],
					"fontname" : "Arial",
					"patching_rect" : [ 158.0, 151.0, 79.0, 20.0 ],
					"id" : "obj-1",
					"numinlets" : 1,
					"fontsize" : 12.0
				}

			}
 ],
		"lines" : [ 			{
				"patchline" : 				{
					"source" : [ "obj-15", 7 ],
					"destination" : [ "obj-1", 0 ],
					"hidden" : 0,
					"midpoints" : [  ]
				}

			}
, 			{
				"patchline" : 				{
					"source" : [ "obj-2", 0 ],
					"destination" : [ "obj-1", 0 ],
					"hidden" : 0,
					"midpoints" : [  ]
				}

			}
, 			{
				"patchline" : 				{
					"source" : [ "obj-21", 0 ],
					"destination" : [ "obj-15", 5 ],
					"hidden" : 0,
					"midpoints" : [  ]
				}

			}
, 			{
				"patchline" : 				{
					"source" : [ "obj-21", 0 ],
					"destination" : [ "obj-15", 6 ],
					"hidden" : 0,
					"midpoints" : [  ]
				}

			}
, 			{
				"patchline" : 				{
					"source" : [ "obj-20", 0 ],
					"destination" : [ "obj-21", 0 ],
					"hidden" : 0,
					"midpoints" : [  ]
				}

			}
, 			{
				"patchline" : 				{
					"source" : [ "obj-34", 0 ],
					"destination" : [ "obj-15", 7 ],
					"hidden" : 0,
					"midpoints" : [  ]
				}

			}
, 			{
				"patchline" : 				{
					"source" : [ "obj-4", 0 ],
					"destination" : [ "obj-1", 0 ],
					"hidden" : 0,
					"midpoints" : [  ]
				}

			}
, 			{
				"patchline" : 				{
					"source" : [ "obj-8", 0 ],
					"destination" : [ "obj-15", 6 ],
					"hidden" : 0,
					"midpoints" : [  ]
				}

			}
, 			{
				"patchline" : 				{
					"source" : [ "obj-5", 1 ],
					"destination" : [ "obj-15", 4 ],
					"hidden" : 0,
					"midpoints" : [  ]
				}

			}
, 			{
				"patchline" : 				{
					"source" : [ "obj-7", 1 ],
					"destination" : [ "obj-15", 4 ],
					"hidden" : 0,
					"midpoints" : [  ]
				}

			}
, 			{
				"patchline" : 				{
					"source" : [ "obj-33", 0 ],
					"destination" : [ "obj-15", 4 ],
					"hidden" : 0,
					"midpoints" : [  ]
				}

			}
, 			{
				"patchline" : 				{
					"source" : [ "obj-5", 2 ],
					"destination" : [ "obj-15", 0 ],
					"hidden" : 0,
					"midpoints" : [  ]
				}

			}
, 			{
				"patchline" : 				{
					"source" : [ "obj-33", 1 ],
					"destination" : [ "obj-15", 3 ],
					"hidden" : 0,
					"midpoints" : [  ]
				}

			}
, 			{
				"patchline" : 				{
					"source" : [ "obj-33", 2 ],
					"destination" : [ "obj-15", 2 ],
					"hidden" : 0,
					"midpoints" : [  ]
				}

			}
, 			{
				"patchline" : 				{
					"source" : [ "obj-33", 3 ],
					"destination" : [ "obj-15", 1 ],
					"hidden" : 0,
					"midpoints" : [  ]
				}

			}
, 			{
				"patchline" : 				{
					"source" : [ "obj-33", 4 ],
					"destination" : [ "obj-15", 0 ],
					"hidden" : 0,
					"midpoints" : [  ]
				}

			}
, 			{
				"patchline" : 				{
					"source" : [ "obj-5", 0 ],
					"destination" : [ "obj-15", 5 ],
					"hidden" : 0,
					"midpoints" : [  ]
				}

			}
, 			{
				"patchline" : 				{
					"source" : [ "obj-7", 0 ],
					"destination" : [ "obj-15", 5 ],
					"hidden" : 0,
					"midpoints" : [  ]
				}

			}
, 			{
				"patchline" : 				{
					"source" : [ "obj-15", 5 ],
					"destination" : [ "obj-2", 0 ],
					"hidden" : 0,
					"midpoints" : [  ]
				}

			}
, 			{
				"patchline" : 				{
					"source" : [ "obj-15", 4 ],
					"destination" : [ "obj-2", 0 ],
					"hidden" : 0,
					"midpoints" : [  ]
				}

			}
, 			{
				"patchline" : 				{
					"source" : [ "obj-15", 3 ],
					"destination" : [ "obj-2", 0 ],
					"hidden" : 0,
					"midpoints" : [  ]
				}

			}
, 			{
				"patchline" : 				{
					"source" : [ "obj-15", 2 ],
					"destination" : [ "obj-2", 0 ],
					"hidden" : 0,
					"midpoints" : [  ]
				}

			}
, 			{
				"patchline" : 				{
					"source" : [ "obj-15", 1 ],
					"destination" : [ "obj-2", 0 ],
					"hidden" : 0,
					"midpoints" : [  ]
				}

			}
, 			{
				"patchline" : 				{
					"source" : [ "obj-15", 0 ],
					"destination" : [ "obj-2", 0 ],
					"hidden" : 0,
					"midpoints" : [  ]
				}

			}
, 			{
				"patchline" : 				{
					"source" : [ "obj-15", 7 ],
					"destination" : [ "obj-26", 0 ],
					"hidden" : 0,
					"midpoints" : [  ]
				}

			}
, 			{
				"patchline" : 				{
					"source" : [ "obj-2", 0 ],
					"destination" : [ "obj-26", 0 ],
					"hidden" : 0,
					"midpoints" : [  ]
				}

			}
, 			{
				"patchline" : 				{
					"source" : [ "obj-15", 6 ],
					"destination" : [ "obj-2", 0 ],
					"hidden" : 0,
					"midpoints" : [  ]
				}

			}
 ]
	}

}
