{
	"patcher" : 	{
		"fileversion" : 1,
		"rect" : [ 606.0, 98.0, 661.0, 513.0 ],
		"bglocked" : 0,
		"defrect" : [ 606.0, 98.0, 661.0, 513.0 ],
		"openrect" : [ 0.0, 0.0, 0.0, 0.0 ],
		"openinpresentation" : 0,
		"default_fontsize" : 12.0,
		"default_fontface" : 0,
		"default_fontname" : "Arial",
		"gridonopen" : 0,
		"gridsize" : [ 15.0, 15.0 ],
		"gridsnaponopen" : 0,
		"toolbarvisible" : 1,
		"boxanimatetime" : 200,
		"imprint" : 0,
		"enablehscroll" : 1,
		"enablevscroll" : 1,
		"devicewidth" : 0.0,
		"boxes" : [ 			{
				"box" : 				{
					"maxclass" : "number",
					"outlettype" : [ "int", "bang" ],
					"fontsize" : 12.0,
					"patching_rect" : [ 35.0, 194.0, 50.0, 20.0 ],
					"numinlets" : 1,
					"id" : "obj-27",
					"numoutlets" : 2,
					"fontname" : "Arial"
				}

			}
, 			{
				"box" : 				{
					"maxclass" : "newobj",
					"text" : "pack 0 0",
					"outlettype" : [ "" ],
					"fontsize" : 9.0,
					"patching_rect" : [ 147.0, 202.0, 48.0, 17.0 ],
					"numinlets" : 2,
					"id" : "obj-1",
					"numoutlets" : 1,
					"fontname" : "Arial"
				}

			}
, 			{
				"box" : 				{
					"maxclass" : "newobj",
					"text" : "+ 1",
					"outlettype" : [ "int" ],
					"fontsize" : 9.0,
					"patching_rect" : [ 122.0, 280.0, 27.0, 17.0 ],
					"numinlets" : 2,
					"id" : "obj-2",
					"numoutlets" : 1,
					"fontname" : "Arial"
				}

			}
, 			{
				"box" : 				{
					"maxclass" : "newobj",
					"text" : "loadmess #1",
					"outlettype" : [ "" ],
					"fontsize" : 9.0,
					"patching_rect" : [ 122.0, 257.0, 67.0, 17.0 ],
					"numinlets" : 1,
					"id" : "obj-3",
					"numoutlets" : 1,
					"fontname" : "Arial"
				}

			}
, 			{
				"box" : 				{
					"maxclass" : "number",
					"outlettype" : [ "int", "bang" ],
					"triangle" : 0,
					"htextcolor" : [ 0.870588, 0.870588, 0.870588, 1.0 ],
					"fontsize" : 9.0,
					"triscale" : 0.9,
					"bgcolor" : [ 0.866667, 0.866667, 0.866667, 1.0 ],
					"minimum" : 1,
					"maximum" : 16,
					"patching_rect" : [ 63.0, 305.0, 21.0, 17.0 ],
					"numinlets" : 1,
					"id" : "obj-4",
					"numoutlets" : 2,
					"fontname" : "Arial"
				}

			}
, 			{
				"box" : 				{
					"maxclass" : "multislider",
					"peakcolor" : [ 0.498039, 0.498039, 0.498039, 1.0 ],
					"candicane3" : [ 0.290196, 0.411765, 0.713726, 1.0 ],
					"candicane8" : [ 0.027451, 0.447059, 0.501961, 1.0 ],
					"setstyle" : 1,
					"outlettype" : [ "", "" ],
					"candicane2" : [ 0.145098, 0.203922, 0.356863, 1.0 ],
					"candicane7" : [ 0.878431, 0.243137, 0.145098, 1.0 ],
					"setminmax" : [ 0.0, 127.0 ],
					"candicane6" : [ 0.733333, 0.035294, 0.788235, 1.0 ],
					"candicane5" : [ 0.584314, 0.827451, 0.431373, 1.0 ],
					"patching_rect" : [ 63.0, 221.0, 21.0, 84.0 ],
					"numinlets" : 1,
					"candicane4" : [ 0.439216, 0.619608, 0.070588, 1.0 ],
					"settype" : 0,
					"id" : "obj-5",
					"numoutlets" : 2
				}

			}
, 			{
				"box" : 				{
					"maxclass" : "message",
					"text" : "$1 $2",
					"outlettype" : [ "" ],
					"fontsize" : 9.0,
					"patching_rect" : [ 206.0, 235.0, 37.0, 15.0 ],
					"numinlets" : 2,
					"id" : "obj-6",
					"numoutlets" : 1,
					"fontname" : "Arial"
				}

			}
, 			{
				"box" : 				{
					"maxclass" : "newobj",
					"text" : "s cc_out",
					"fontsize" : 9.0,
					"patching_rect" : [ 201.0, 281.0, 48.0, 17.0 ],
					"numinlets" : 1,
					"id" : "obj-7",
					"numoutlets" : 0,
					"fontname" : "Arial"
				}

			}
, 			{
				"box" : 				{
					"maxclass" : "newobj",
					"text" : "r height",
					"outlettype" : [ "" ],
					"fontsize" : 9.0,
					"patching_rect" : [ 88.0, 117.0, 45.0, 17.0 ],
					"numinlets" : 0,
					"id" : "obj-8",
					"numoutlets" : 1,
					"fontname" : "Arial"
				}

			}
, 			{
				"box" : 				{
					"maxclass" : "newobj",
					"text" : "+ 1",
					"outlettype" : [ "int" ],
					"fontsize" : 9.0,
					"patching_rect" : [ 310.0, 260.0, 27.0, 17.0 ],
					"numinlets" : 2,
					"id" : "obj-9",
					"numoutlets" : 1,
					"fontname" : "Arial"
				}

			}
, 			{
				"box" : 				{
					"maxclass" : "newobj",
					"text" : "line 0. 1",
					"outlettype" : [ "", "" ],
					"fontsize" : 9.0,
					"patching_rect" : [ 189.0, 117.0, 47.0, 17.0 ],
					"numinlets" : 3,
					"id" : "obj-10",
					"numoutlets" : 2,
					"fontname" : "Arial"
				}

			}
, 			{
				"box" : 				{
					"maxclass" : "newobj",
					"text" : "r smooth",
					"outlettype" : [ "" ],
					"fontsize" : 9.0,
					"patching_rect" : [ 223.0, 42.0, 50.0, 17.0 ],
					"numinlets" : 0,
					"id" : "obj-11",
					"numoutlets" : 1,
					"fontname" : "Arial"
				}

			}
, 			{
				"box" : 				{
					"maxclass" : "newobj",
					"text" : "pack 0 0",
					"outlettype" : [ "" ],
					"fontsize" : 9.0,
					"patching_rect" : [ 136.0, 77.0, 48.0, 17.0 ],
					"numinlets" : 2,
					"id" : "obj-12",
					"numoutlets" : 1,
					"fontname" : "Arial"
				}

			}
, 			{
				"box" : 				{
					"maxclass" : "newobj",
					"text" : "line 0. 1",
					"outlettype" : [ "", "" ],
					"fontsize" : 9.0,
					"patching_rect" : [ 137.0, 117.0, 47.0, 17.0 ],
					"numinlets" : 3,
					"id" : "obj-13",
					"numoutlets" : 2,
					"fontname" : "Arial"
				}

			}
, 			{
				"box" : 				{
					"maxclass" : "newobj",
					"text" : "scale 0. 15. 127 0",
					"outlettype" : [ "" ],
					"fontsize" : 9.0,
					"patching_rect" : [ 135.0, 167.0, 93.0, 17.0 ],
					"numinlets" : 6,
					"id" : "obj-14",
					"numoutlets" : 1,
					"fontname" : "Arial"
				}

			}
, 			{
				"box" : 				{
					"maxclass" : "newobj",
					"text" : "r #1down",
					"outlettype" : [ "" ],
					"fontsize" : 9.0,
					"patching_rect" : [ 128.0, 41.0, 54.0, 17.0 ],
					"numinlets" : 0,
					"id" : "obj-15",
					"numoutlets" : 1,
					"fontname" : "Arial"
				}

			}
, 			{
				"box" : 				{
					"maxclass" : "message",
					"text" : "/slide/led_col #1 $1 $2",
					"outlettype" : [ "" ],
					"fontsize" : 9.0,
					"patching_rect" : [ 311.0, 344.0, 121.0, 15.0 ],
					"numinlets" : 2,
					"id" : "obj-16",
					"numoutlets" : 1,
					"fontname" : "Arial"
				}

			}
, 			{
				"box" : 				{
					"maxclass" : "newobj",
					"text" : "s osc_out",
					"fontsize" : 9.0,
					"patching_rect" : [ 311.0, 374.0, 53.0, 17.0 ],
					"numinlets" : 1,
					"id" : "obj-17",
					"numoutlets" : 0,
					"fontname" : "Arial"
				}

			}
, 			{
				"box" : 				{
					"maxclass" : "number",
					"outlettype" : [ "int", "bang" ],
					"htextcolor" : [ 0.870588, 0.870588, 0.870588, 1.0 ],
					"fontsize" : 9.0,
					"triscale" : 0.9,
					"bgcolor" : [ 0.866667, 0.866667, 0.866667, 1.0 ],
					"patching_rect" : [ 307.0, 293.0, 59.0, 17.0 ],
					"numinlets" : 1,
					"id" : "obj-18",
					"numoutlets" : 2,
					"fontname" : "Arial"
				}

			}
, 			{
				"box" : 				{
					"maxclass" : "number",
					"outlettype" : [ "int", "bang" ],
					"htextcolor" : [ 0.870588, 0.870588, 0.870588, 1.0 ],
					"fontsize" : 9.0,
					"triscale" : 0.9,
					"bgcolor" : [ 0.866667, 0.866667, 0.866667, 1.0 ],
					"patching_rect" : [ 306.0, 92.0, 35.0, 17.0 ],
					"numinlets" : 1,
					"id" : "obj-19",
					"numoutlets" : 2,
					"fontname" : "Arial"
				}

			}
, 			{
				"box" : 				{
					"maxclass" : "message",
					"text" : "set 0",
					"outlettype" : [ "" ],
					"fontsize" : 9.0,
					"patching_rect" : [ 341.0, 158.0, 33.0, 15.0 ],
					"numinlets" : 2,
					"id" : "obj-20",
					"numoutlets" : 1,
					"fontname" : "Arial"
				}

			}
, 			{
				"box" : 				{
					"maxclass" : "newobj",
					"text" : "t i b",
					"outlettype" : [ "int", "bang" ],
					"fontsize" : 9.0,
					"patching_rect" : [ 308.0, 119.0, 27.0, 17.0 ],
					"numinlets" : 1,
					"id" : "obj-21",
					"numoutlets" : 2,
					"fontname" : "Arial"
				}

			}
, 			{
				"box" : 				{
					"maxclass" : "newobj",
					"text" : "change",
					"outlettype" : [ "", "int", "int" ],
					"fontsize" : 9.0,
					"patching_rect" : [ 281.0, 154.0, 40.0, 17.0 ],
					"numinlets" : 1,
					"id" : "obj-22",
					"numoutlets" : 3,
					"fontname" : "Arial"
				}

			}
, 			{
				"box" : 				{
					"maxclass" : "newobj",
					"text" : "accum",
					"outlettype" : [ "int" ],
					"fontsize" : 9.0,
					"patching_rect" : [ 306.0, 233.0, 40.0, 17.0 ],
					"numinlets" : 3,
					"id" : "obj-23",
					"numoutlets" : 1,
					"fontname" : "Arial"
				}

			}
, 			{
				"box" : 				{
					"maxclass" : "newobj",
					"text" : "expr pow(2\\,($i1))",
					"outlettype" : [ "" ],
					"fontsize" : 9.0,
					"patching_rect" : [ 330.0, 207.0, 99.0, 17.0 ],
					"numinlets" : 1,
					"id" : "obj-24",
					"numoutlets" : 1,
					"fontname" : "Arial"
				}

			}
, 			{
				"box" : 				{
					"maxclass" : "newobj",
					"text" : "uzi",
					"outlettype" : [ "bang", "bang", "int" ],
					"fontsize" : 9.0,
					"patching_rect" : [ 280.0, 183.0, 40.0, 17.0 ],
					"numinlets" : 2,
					"id" : "obj-25",
					"numoutlets" : 3,
					"fontname" : "Arial"
				}

			}
, 			{
				"box" : 				{
					"maxclass" : "newobj",
					"text" : "p doublerow",
					"outlettype" : [ "" ],
					"fontsize" : 9.0,
					"patching_rect" : [ 309.0, 318.0, 64.0, 17.0 ],
					"numinlets" : 1,
					"id" : "obj-26",
					"numoutlets" : 1,
					"fontname" : "Arial",
					"patcher" : 					{
						"fileversion" : 1,
						"rect" : [ 14.0, 347.0, 600.0, 426.0 ],
						"bglocked" : 0,
						"defrect" : [ 14.0, 347.0, 600.0, 426.0 ],
						"openrect" : [ 0.0, 0.0, 0.0, 0.0 ],
						"openinpresentation" : 0,
						"default_fontsize" : 12.0,
						"default_fontface" : 0,
						"default_fontname" : "Arial",
						"gridonopen" : 0,
						"gridsize" : [ 15.0, 15.0 ],
						"gridsnaponopen" : 0,
						"toolbarvisible" : 1,
						"boxanimatetime" : 200,
						"imprint" : 0,
						"enablehscroll" : 1,
						"enablevscroll" : 1,
						"devicewidth" : 0.0,
						"boxes" : [ 							{
								"box" : 								{
									"maxclass" : "newobj",
									"text" : "pack 0 0",
									"outlettype" : [ "" ],
									"fontsize" : 9.0,
									"patching_rect" : [ 71.0, 175.0, 48.0, 17.0 ],
									"numinlets" : 2,
									"id" : "obj-1",
									"numoutlets" : 1,
									"fontname" : "Arial"
								}

							}
, 							{
								"box" : 								{
									"maxclass" : "newobj",
									"text" : "& 255",
									"outlettype" : [ "int" ],
									"fontsize" : 9.0,
									"patching_rect" : [ 58.0, 126.0, 39.0, 17.0 ],
									"numinlets" : 2,
									"id" : "obj-2",
									"numoutlets" : 1,
									"fontname" : "Arial"
								}

							}
, 							{
								"box" : 								{
									"maxclass" : "number",
									"outlettype" : [ "int", "bang" ],
									"htextcolor" : [ 0.870588, 0.870588, 0.870588, 1.0 ],
									"fontsize" : 9.0,
									"triscale" : 0.9,
									"bgcolor" : [ 0.866667, 0.866667, 0.866667, 1.0 ],
									"patching_rect" : [ 67.0, 87.0, 35.0, 17.0 ],
									"numinlets" : 1,
									"id" : "obj-3",
									"numoutlets" : 2,
									"fontname" : "Arial"
								}

							}
, 							{
								"box" : 								{
									"maxclass" : "newobj",
									"text" : ">> 8",
									"outlettype" : [ "int" ],
									"fontsize" : 9.0,
									"patching_rect" : [ 112.0, 126.0, 29.0, 17.0 ],
									"numinlets" : 2,
									"id" : "obj-4",
									"numoutlets" : 1,
									"fontname" : "Arial"
								}

							}
, 							{
								"box" : 								{
									"maxclass" : "outlet",
									"patching_rect" : [ 76.0, 212.0, 15.0, 15.0 ],
									"numinlets" : 1,
									"id" : "obj-5",
									"numoutlets" : 0,
									"comment" : ""
								}

							}
, 							{
								"box" : 								{
									"maxclass" : "inlet",
									"outlettype" : [ "int" ],
									"patching_rect" : [ 72.0, 51.0, 15.0, 15.0 ],
									"numinlets" : 0,
									"id" : "obj-6",
									"numoutlets" : 1,
									"comment" : ""
								}

							}
 ],
						"lines" : [ 							{
								"patchline" : 								{
									"source" : [ "obj-3", 0 ],
									"destination" : [ "obj-4", 0 ],
									"hidden" : 0,
									"midpoints" : [  ]
								}

							}
, 							{
								"patchline" : 								{
									"source" : [ "obj-4", 0 ],
									"destination" : [ "obj-1", 1 ],
									"hidden" : 0,
									"midpoints" : [  ]
								}

							}
, 							{
								"patchline" : 								{
									"source" : [ "obj-1", 0 ],
									"destination" : [ "obj-5", 0 ],
									"hidden" : 0,
									"midpoints" : [  ]
								}

							}
, 							{
								"patchline" : 								{
									"source" : [ "obj-2", 0 ],
									"destination" : [ "obj-1", 0 ],
									"hidden" : 0,
									"midpoints" : [  ]
								}

							}
, 							{
								"patchline" : 								{
									"source" : [ "obj-6", 0 ],
									"destination" : [ "obj-3", 0 ],
									"hidden" : 0,
									"midpoints" : [  ]
								}

							}
, 							{
								"patchline" : 								{
									"source" : [ "obj-3", 0 ],
									"destination" : [ "obj-2", 0 ],
									"hidden" : 0,
									"midpoints" : [  ]
								}

							}
 ]
					}
,
					"saved_object_attributes" : 					{
						"globalpatchername" : "",
						"default_fontface" : 0,
						"fontface" : 0,
						"fontsize" : 12.0,
						"default_fontname" : "Arial",
						"default_fontsize" : 12.0,
						"fontname" : "Arial"
					}

				}

			}
 ],
		"lines" : [ 			{
				"patchline" : 				{
					"source" : [ "obj-5", 0 ],
					"destination" : [ "obj-27", 0 ],
					"hidden" : 0,
					"midpoints" : [  ]
				}

			}
, 			{
				"patchline" : 				{
					"source" : [ "obj-21", 1 ],
					"destination" : [ "obj-20", 0 ],
					"hidden" : 0,
					"midpoints" : [  ]
				}

			}
, 			{
				"patchline" : 				{
					"source" : [ "obj-25", 2 ],
					"destination" : [ "obj-24", 0 ],
					"hidden" : 0,
					"midpoints" : [  ]
				}

			}
, 			{
				"patchline" : 				{
					"source" : [ "obj-24", 0 ],
					"destination" : [ "obj-23", 1 ],
					"hidden" : 0,
					"midpoints" : [  ]
				}

			}
, 			{
				"patchline" : 				{
					"source" : [ "obj-16", 0 ],
					"destination" : [ "obj-17", 0 ],
					"hidden" : 0,
					"midpoints" : [  ]
				}

			}
, 			{
				"patchline" : 				{
					"source" : [ "obj-26", 0 ],
					"destination" : [ "obj-16", 0 ],
					"hidden" : 0,
					"midpoints" : [  ]
				}

			}
, 			{
				"patchline" : 				{
					"source" : [ "obj-23", 0 ],
					"destination" : [ "obj-9", 0 ],
					"hidden" : 0,
					"midpoints" : [  ]
				}

			}
, 			{
				"patchline" : 				{
					"source" : [ "obj-18", 0 ],
					"destination" : [ "obj-26", 0 ],
					"hidden" : 0,
					"midpoints" : [  ]
				}

			}
, 			{
				"patchline" : 				{
					"source" : [ "obj-19", 0 ],
					"destination" : [ "obj-21", 0 ],
					"hidden" : 0,
					"midpoints" : [  ]
				}

			}
, 			{
				"patchline" : 				{
					"source" : [ "obj-9", 0 ],
					"destination" : [ "obj-18", 0 ],
					"hidden" : 0,
					"midpoints" : [  ]
				}

			}
, 			{
				"patchline" : 				{
					"source" : [ "obj-20", 0 ],
					"destination" : [ "obj-23", 0 ],
					"hidden" : 0,
					"midpoints" : [  ]
				}

			}
, 			{
				"patchline" : 				{
					"source" : [ "obj-25", 1 ],
					"destination" : [ "obj-23", 0 ],
					"hidden" : 0,
					"midpoints" : [  ]
				}

			}
, 			{
				"patchline" : 				{
					"source" : [ "obj-10", 0 ],
					"destination" : [ "obj-19", 0 ],
					"hidden" : 0,
					"midpoints" : [  ]
				}

			}
, 			{
				"patchline" : 				{
					"source" : [ "obj-21", 0 ],
					"destination" : [ "obj-22", 0 ],
					"hidden" : 0,
					"midpoints" : [  ]
				}

			}
, 			{
				"patchline" : 				{
					"source" : [ "obj-22", 0 ],
					"destination" : [ "obj-25", 0 ],
					"hidden" : 0,
					"midpoints" : [  ]
				}

			}
, 			{
				"patchline" : 				{
					"source" : [ "obj-1", 0 ],
					"destination" : [ "obj-6", 0 ],
					"hidden" : 0,
					"midpoints" : [  ]
				}

			}
, 			{
				"patchline" : 				{
					"source" : [ "obj-6", 0 ],
					"destination" : [ "obj-7", 0 ],
					"hidden" : 0,
					"midpoints" : [  ]
				}

			}
, 			{
				"patchline" : 				{
					"source" : [ "obj-12", 0 ],
					"destination" : [ "obj-10", 0 ],
					"hidden" : 0,
					"midpoints" : [  ]
				}

			}
, 			{
				"patchline" : 				{
					"source" : [ "obj-4", 0 ],
					"destination" : [ "obj-1", 1 ],
					"hidden" : 1,
					"midpoints" : [  ]
				}

			}
, 			{
				"patchline" : 				{
					"source" : [ "obj-11", 0 ],
					"destination" : [ "obj-12", 1 ],
					"hidden" : 0,
					"midpoints" : [  ]
				}

			}
, 			{
				"patchline" : 				{
					"source" : [ "obj-8", 0 ],
					"destination" : [ "obj-14", 2 ],
					"hidden" : 0,
					"midpoints" : [  ]
				}

			}
, 			{
				"patchline" : 				{
					"source" : [ "obj-14", 0 ],
					"destination" : [ "obj-1", 0 ],
					"hidden" : 0,
					"midpoints" : [  ]
				}

			}
, 			{
				"patchline" : 				{
					"source" : [ "obj-12", 0 ],
					"destination" : [ "obj-13", 0 ],
					"hidden" : 0,
					"midpoints" : [  ]
				}

			}
, 			{
				"patchline" : 				{
					"source" : [ "obj-15", 0 ],
					"destination" : [ "obj-12", 0 ],
					"hidden" : 0,
					"midpoints" : [  ]
				}

			}
, 			{
				"patchline" : 				{
					"source" : [ "obj-13", 0 ],
					"destination" : [ "obj-14", 0 ],
					"hidden" : 0,
					"midpoints" : [  ]
				}

			}
, 			{
				"patchline" : 				{
					"source" : [ "obj-3", 0 ],
					"destination" : [ "obj-2", 0 ],
					"hidden" : 0,
					"midpoints" : [  ]
				}

			}
, 			{
				"patchline" : 				{
					"source" : [ "obj-2", 0 ],
					"destination" : [ "obj-4", 0 ],
					"hidden" : 1,
					"midpoints" : [  ]
				}

			}
, 			{
				"patchline" : 				{
					"source" : [ "obj-14", 0 ],
					"destination" : [ "obj-5", 0 ],
					"hidden" : 1,
					"midpoints" : [  ]
				}

			}
 ]
	}

}
