{
	"patcher" : 	{
		"fileversion" : 1,
		"rect" : [ 135.0, 55.0, 786.0, 684.0 ],
		"bglocked" : 0,
		"defrect" : [ 135.0, 55.0, 786.0, 684.0 ],
		"openrect" : [ 0.0, 0.0, 0.0, 0.0 ],
		"openinpresentation" : 0,
		"default_fontsize" : 12.0,
		"default_fontface" : 0,
		"default_fontname" : "Arial",
		"gridonopen" : 0,
		"gridsize" : [ 15.0, 15.0 ],
		"gridsnaponopen" : 0,
		"toolbarvisible" : 1,
		"boxanimatetime" : 200,
		"imprint" : 0,
		"enablehscroll" : 1,
		"enablevscroll" : 1,
		"devicewidth" : 0.0,
		"boxes" : [ 			{
				"box" : 				{
					"maxclass" : "newobj",
					"text" : "print",
					"fontsize" : 12.0,
					"patching_rect" : [ 367.0, 246.0, 34.0, 20.0 ],
					"numinlets" : 1,
					"id" : "obj-26",
					"numoutlets" : 0,
					"fontname" : "Arial"
				}

			}
, 			{
				"box" : 				{
					"maxclass" : "newobj",
					"text" : "delay 1 hz",
					"outlettype" : [ "bang" ],
					"fontsize" : 12.0,
					"patching_rect" : [ 250.0, 154.0, 109.0, 20.0 ],
					"numinlets" : 2,
					"id" : "obj-23",
					"numoutlets" : 1,
					"fontname" : "Arial"
				}

			}
, 			{
				"box" : 				{
					"maxclass" : "message",
					"text" : "21",
					"outlettype" : [ "" ],
					"fontsize" : 12.0,
					"patching_rect" : [ 246.0, 207.0, 50.0, 18.0 ],
					"numinlets" : 2,
					"id" : "obj-20",
					"numoutlets" : 1,
					"fontname" : "Arial"
				}

			}
, 			{
				"box" : 				{
					"maxclass" : "number",
					"outlettype" : [ "int", "bang" ],
					"fontsize" : 12.0,
					"patching_rect" : [ 217.0, 322.0, 50.0, 20.0 ],
					"numinlets" : 1,
					"id" : "obj-18",
					"numoutlets" : 2,
					"fontname" : "Arial"
				}

			}
, 			{
				"box" : 				{
					"maxclass" : "message",
					"text" : "1",
					"outlettype" : [ "" ],
					"fontsize" : 12.0,
					"patching_rect" : [ 254.0, 28.0, 32.5, 18.0 ],
					"numinlets" : 2,
					"id" : "obj-16",
					"numoutlets" : 1,
					"fontname" : "Arial"
				}

			}
, 			{
				"box" : 				{
					"maxclass" : "newobj",
					"text" : "int",
					"outlettype" : [ "int" ],
					"fontsize" : 12.0,
					"patching_rect" : [ 250.0, 63.0, 32.5, 20.0 ],
					"numinlets" : 2,
					"id" : "obj-12",
					"numoutlets" : 1,
					"fontname" : "Arial"
				}

			}
, 			{
				"box" : 				{
					"maxclass" : "message",
					"text" : "port a",
					"outlettype" : [ "" ],
					"fontsize" : 12.0,
					"patching_rect" : [ 93.0, 248.0, 41.0, 18.0 ],
					"numinlets" : 2,
					"id" : "obj-7",
					"numoutlets" : 1,
					"fontname" : "Arial"
				}

			}
, 			{
				"box" : 				{
					"maxclass" : "newobj",
					"text" : "select 0 1",
					"outlettype" : [ "bang", "bang", "" ],
					"fontsize" : 12.0,
					"patching_rect" : [ 54.0, 220.0, 62.0, 20.0 ],
					"numinlets" : 1,
					"id" : "obj-15",
					"numoutlets" : 3,
					"fontname" : "Arial"
				}

			}
, 			{
				"box" : 				{
					"maxclass" : "message",
					"text" : "close",
					"outlettype" : [ "" ],
					"fontsize" : 12.0,
					"patching_rect" : [ 68.0, 267.0, 39.0, 18.0 ],
					"numinlets" : 2,
					"id" : "obj-13",
					"numoutlets" : 1,
					"fontname" : "Arial"
				}

			}
, 			{
				"box" : 				{
					"maxclass" : "slider",
					"orientation" : 2,
					"outlettype" : [ "" ],
					"size" : 255.0,
					"patching_rect" : [ 181.0, 12.0, 18.0, 144.0 ],
					"numinlets" : 1,
					"id" : "obj-1",
					"numoutlets" : 1
				}

			}
, 			{
				"box" : 				{
					"maxclass" : "message",
					"text" : "print",
					"outlettype" : [ "" ],
					"fontsize" : 9.0,
					"patching_rect" : [ 50.0, 328.0, 32.0, 15.0 ],
					"numinlets" : 2,
					"id" : "obj-2",
					"numoutlets" : 1,
					"fontname" : "Arial"
				}

			}
, 			{
				"box" : 				{
					"maxclass" : "newobj",
					"text" : "serial a 9600",
					"outlettype" : [ "int", "" ],
					"fontsize" : 9.0,
					"patching_rect" : [ 216.0, 296.0, 71.0, 17.0 ],
					"numinlets" : 1,
					"id" : "obj-3",
					"numoutlets" : 2,
					"fontname" : "Arial"
				}

			}
, 			{
				"box" : 				{
					"maxclass" : "comment",
					"text" : "Click here to get a list of serial ports",
					"linecount" : 2,
					"fontsize" : 9.0,
					"patching_rect" : [ 63.0, 296.0, 125.0, 27.0 ],
					"numinlets" : 1,
					"id" : "obj-5",
					"numoutlets" : 0,
					"fontname" : "Arial"
				}

			}
 ],
		"lines" : [ 			{
				"patchline" : 				{
					"source" : [ "obj-1", 0 ],
					"destination" : [ "obj-23", 0 ],
					"hidden" : 0,
					"midpoints" : [  ]
				}

			}
, 			{
				"patchline" : 				{
					"source" : [ "obj-23", 0 ],
					"destination" : [ "obj-20", 0 ],
					"hidden" : 0,
					"midpoints" : [  ]
				}

			}
, 			{
				"patchline" : 				{
					"source" : [ "obj-20", 0 ],
					"destination" : [ "obj-3", 0 ],
					"hidden" : 0,
					"midpoints" : [  ]
				}

			}
, 			{
				"patchline" : 				{
					"source" : [ "obj-20", 0 ],
					"destination" : [ "obj-26", 0 ],
					"hidden" : 0,
					"midpoints" : [  ]
				}

			}
, 			{
				"patchline" : 				{
					"source" : [ "obj-1", 0 ],
					"destination" : [ "obj-20", 1 ],
					"hidden" : 0,
					"midpoints" : [  ]
				}

			}
, 			{
				"patchline" : 				{
					"source" : [ "obj-12", 0 ],
					"destination" : [ "obj-26", 0 ],
					"hidden" : 0,
					"midpoints" : [  ]
				}

			}
, 			{
				"patchline" : 				{
					"source" : [ "obj-1", 0 ],
					"destination" : [ "obj-16", 0 ],
					"hidden" : 0,
					"midpoints" : [  ]
				}

			}
, 			{
				"patchline" : 				{
					"source" : [ "obj-3", 0 ],
					"destination" : [ "obj-18", 0 ],
					"hidden" : 0,
					"midpoints" : [  ]
				}

			}
, 			{
				"patchline" : 				{
					"source" : [ "obj-13", 0 ],
					"destination" : [ "obj-3", 0 ],
					"hidden" : 0,
					"midpoints" : [  ]
				}

			}
, 			{
				"patchline" : 				{
					"source" : [ "obj-15", 0 ],
					"destination" : [ "obj-13", 0 ],
					"hidden" : 0,
					"midpoints" : [  ]
				}

			}
, 			{
				"patchline" : 				{
					"source" : [ "obj-2", 0 ],
					"destination" : [ "obj-3", 0 ],
					"hidden" : 0,
					"midpoints" : [ 59.5, 288.0, 225.5, 288.0 ]
				}

			}
, 			{
				"patchline" : 				{
					"source" : [ "obj-15", 1 ],
					"destination" : [ "obj-7", 0 ],
					"hidden" : 0,
					"midpoints" : [  ]
				}

			}
, 			{
				"patchline" : 				{
					"source" : [ "obj-7", 0 ],
					"destination" : [ "obj-3", 0 ],
					"hidden" : 0,
					"midpoints" : [  ]
				}

			}
, 			{
				"patchline" : 				{
					"source" : [ "obj-12", 0 ],
					"destination" : [ "obj-3", 0 ],
					"hidden" : 0,
					"midpoints" : [  ]
				}

			}
, 			{
				"patchline" : 				{
					"source" : [ "obj-16", 0 ],
					"destination" : [ "obj-12", 0 ],
					"hidden" : 0,
					"midpoints" : [  ]
				}

			}
 ]
	}

}
