{
	"patcher" : 	{
		"fileversion" : 1,
		"rect" : [ 82.0, 68.0, 640.0, 480.0 ],
		"bglocked" : 0,
		"defrect" : [ 82.0, 68.0, 640.0, 480.0 ],
		"openrect" : [ 0.0, 0.0, 0.0, 0.0 ],
		"openinpresentation" : 0,
		"default_fontsize" : 12.0,
		"default_fontface" : 0,
		"default_fontname" : "Arial",
		"gridonopen" : 0,
		"gridsize" : [ 15.0, 15.0 ],
		"gridsnaponopen" : 0,
		"toolbarvisible" : 1,
		"boxanimatetime" : 200,
		"imprint" : 0,
		"enablehscroll" : 1,
		"enablevscroll" : 1,
		"devicewidth" : 0.0,
		"boxes" : [ 			{
				"box" : 				{
					"maxclass" : "number",
					"id" : "obj-10",
					"fontsize" : 12.0,
					"numinlets" : 1,
					"numoutlets" : 2,
					"fontname" : "Arial",
					"outlettype" : [ "int", "bang" ],
					"patching_rect" : [ 297.0, 324.0, 50.0, 20.0 ]
				}

			}
, 			{
				"box" : 				{
					"maxclass" : "number",
					"id" : "obj-8",
					"fontsize" : 12.0,
					"numinlets" : 1,
					"numoutlets" : 2,
					"fontname" : "Arial",
					"outlettype" : [ "int", "bang" ],
					"patching_rect" : [ 170.0, 41.0, 50.0, 20.0 ]
				}

			}
, 			{
				"box" : 				{
					"maxclass" : "newobj",
					"text" : "loadmess 500",
					"id" : "obj-7",
					"fontsize" : 12.0,
					"numinlets" : 1,
					"numoutlets" : 1,
					"fontname" : "Arial",
					"outlettype" : [ "" ],
					"patching_rect" : [ 196.0, 13.0, 85.0, 20.0 ]
				}

			}
, 			{
				"box" : 				{
					"maxclass" : "multislider",
					"settype" : 0,
					"id" : "obj-47",
					"candicane2" : [ 0.482353, 0.482353, 0.482353, 1.0 ],
					"candicane7" : [ 0.878431, 0.243137, 0.145098, 1.0 ],
					"candicane6" : [ 0.733333, 0.035294, 0.788235, 1.0 ],
					"bordercolor" : [ 0.482353, 0.482353, 0.482353, 1.0 ],
					"numinlets" : 1,
					"candicane5" : [ 0.584314, 0.827451, 0.431373, 1.0 ],
					"setminmax" : [ 0.0, 255.0 ],
					"numoutlets" : 2,
					"bgcolor" : [ 0.74902, 0.909804, 1.0, 1.0 ],
					"candicane4" : [ 0.439216, 0.619608, 0.070588, 1.0 ],
					"slidercolor" : [ 0.482353, 0.482353, 0.482353, 1.0 ],
					"contdata" : 1,
					"outlettype" : [ "", "" ],
					"peakcolor" : [ 0.482353, 0.482353, 0.482353, 1.0 ],
					"candicane3" : [ 0.290196, 0.411765, 0.713726, 1.0 ],
					"setstyle" : 1,
					"candicane8" : [ 0.027451, 0.447059, 0.501961, 1.0 ],
					"patching_rect" : [ 199.0, 109.0, 32.0, 188.0 ]
				}

			}
, 			{
				"box" : 				{
					"maxclass" : "slider",
					"id" : "obj-6",
					"numinlets" : 1,
					"numoutlets" : 1,
					"size" : 255.0,
					"outlettype" : [ "" ],
					"patching_rect" : [ 119.0, 100.0, 20.0, 140.0 ]
				}

			}
, 			{
				"box" : 				{
					"maxclass" : "comment",
					"text" : "click here to start Serial Communication",
					"linecount" : 2,
					"id" : "obj-11",
					"fontsize" : 8.0,
					"numinlets" : 1,
					"numoutlets" : 0,
					"fontname" : "Arial",
					"patching_rect" : [ 108.0, 299.0, 103.0, 25.0 ]
				}

			}
, 			{
				"box" : 				{
					"maxclass" : "message",
					"text" : "port a",
					"id" : "obj-9",
					"fontsize" : 12.0,
					"numinlets" : 2,
					"numoutlets" : 1,
					"fontname" : "Arial",
					"outlettype" : [ "" ],
					"patching_rect" : [ 95.0, 325.0, 41.0, 18.0 ]
				}

			}
, 			{
				"box" : 				{
					"maxclass" : "newobj",
					"text" : "select 0 1",
					"id" : "obj-15",
					"fontsize" : 12.0,
					"numinlets" : 1,
					"numoutlets" : 3,
					"fontname" : "Arial",
					"outlettype" : [ "bang", "bang", "" ],
					"patching_rect" : [ 43.0, 297.0, 62.0, 20.0 ]
				}

			}
, 			{
				"box" : 				{
					"maxclass" : "message",
					"text" : "close",
					"id" : "obj-13",
					"fontsize" : 12.0,
					"numinlets" : 2,
					"numoutlets" : 1,
					"fontname" : "Arial",
					"outlettype" : [ "" ],
					"patching_rect" : [ 70.0, 344.0, 39.0, 18.0 ]
				}

			}
, 			{
				"box" : 				{
					"maxclass" : "message",
					"text" : "print",
					"id" : "obj-12",
					"fontsize" : 9.0,
					"numinlets" : 2,
					"numoutlets" : 1,
					"fontname" : "Arial",
					"outlettype" : [ "" ],
					"patching_rect" : [ 131.0, 390.0, 32.0, 15.0 ]
				}

			}
, 			{
				"box" : 				{
					"maxclass" : "newobj",
					"text" : "serial a 9600",
					"id" : "obj-14",
					"fontsize" : 9.0,
					"numinlets" : 1,
					"numoutlets" : 2,
					"fontname" : "Arial",
					"outlettype" : [ "int", "" ],
					"patching_rect" : [ 207.0, 370.0, 71.0, 17.0 ]
				}

			}
, 			{
				"box" : 				{
					"maxclass" : "comment",
					"text" : "Slide the fader to change output Votage \non POT 1",
					"linecount" : 3,
					"id" : "obj-16",
					"fontsize" : 9.0,
					"numinlets" : 1,
					"numoutlets" : 0,
					"fontname" : "Arial",
					"patching_rect" : [ 239.0, 229.0, 105.0, 38.0 ]
				}

			}
, 			{
				"box" : 				{
					"maxclass" : "comment",
					"text" : "Click here to get a list of serial ports",
					"linecount" : 2,
					"id" : "obj-17",
					"fontsize" : 9.0,
					"numinlets" : 1,
					"numoutlets" : 0,
					"fontname" : "Arial",
					"patching_rect" : [ 69.0, 375.0, 125.0, 27.0 ]
				}

			}
, 			{
				"box" : 				{
					"maxclass" : "newobj",
					"text" : "p slides",
					"id" : "obj-5",
					"fontsize" : 12.0,
					"numinlets" : 2,
					"numoutlets" : 4,
					"fontname" : "Arial",
					"outlettype" : [ "", "", "", "" ],
					"patching_rect" : [ 124.0, 63.0, 51.0, 20.0 ],
					"patcher" : 					{
						"fileversion" : 1,
						"rect" : [ 1700.0, 497.0, 770.0, 411.0 ],
						"bglocked" : 0,
						"defrect" : [ 1700.0, 497.0, 770.0, 411.0 ],
						"openrect" : [ 0.0, 0.0, 0.0, 0.0 ],
						"openinpresentation" : 0,
						"default_fontsize" : 12.0,
						"default_fontface" : 0,
						"default_fontname" : "Arial",
						"gridonopen" : 0,
						"gridsize" : [ 15.0, 15.0 ],
						"gridsnaponopen" : 0,
						"toolbarvisible" : 1,
						"boxanimatetime" : 200,
						"imprint" : 0,
						"enablehscroll" : 1,
						"enablevscroll" : 1,
						"devicewidth" : 0.0,
						"boxes" : [ 							{
								"box" : 								{
									"maxclass" : "newobj",
									"text" : "p slide",
									"id" : "obj-23",
									"fontsize" : 12.0,
									"numinlets" : 1,
									"numoutlets" : 2,
									"fontname" : "Arial",
									"outlettype" : [ "int", "" ],
									"patching_rect" : [ 277.0, 199.0, 45.0, 20.0 ],
									"patcher" : 									{
										"fileversion" : 1,
										"rect" : [ 710.0, 104.0, 640.0, 480.0 ],
										"bglocked" : 0,
										"defrect" : [ 710.0, 104.0, 640.0, 480.0 ],
										"openrect" : [ 0.0, 0.0, 0.0, 0.0 ],
										"openinpresentation" : 0,
										"default_fontsize" : 12.0,
										"default_fontface" : 0,
										"default_fontname" : "Arial",
										"gridonopen" : 0,
										"gridsize" : [ 15.0, 15.0 ],
										"gridsnaponopen" : 0,
										"toolbarvisible" : 1,
										"boxanimatetime" : 200,
										"imprint" : 0,
										"enablehscroll" : 1,
										"enablevscroll" : 1,
										"devicewidth" : 0.0,
										"boxes" : [ 											{
												"box" : 												{
													"maxclass" : "outlet",
													"id" : "obj-1",
													"numinlets" : 1,
													"numoutlets" : 0,
													"patching_rect" : [ 409.0, 459.0, 15.0, 15.0 ],
													"comment" : ""
												}

											}
, 											{
												"box" : 												{
													"maxclass" : "newobj",
													"text" : "expr abs($i1 - 8)",
													"id" : "obj-2",
													"fontsize" : 9.0,
													"numinlets" : 1,
													"numoutlets" : 1,
													"fontname" : "Arial",
													"outlettype" : [ "" ],
													"patching_rect" : [ 189.0, 78.0, 89.0, 17.0 ]
												}

											}
, 											{
												"box" : 												{
													"maxclass" : "newobj",
													"text" : "pack 0 0",
													"id" : "obj-3",
													"fontsize" : 9.0,
													"numinlets" : 2,
													"numoutlets" : 1,
													"fontname" : "Arial",
													"outlettype" : [ "" ],
													"patching_rect" : [ 216.0, 157.0, 48.0, 17.0 ]
												}

											}
, 											{
												"box" : 												{
													"maxclass" : "newobj",
													"text" : "line 0. 10",
													"id" : "obj-4",
													"fontsize" : 9.0,
													"numinlets" : 3,
													"numoutlets" : 2,
													"fontname" : "Arial",
													"outlettype" : [ "", "" ],
													"patching_rect" : [ 211.0, 183.0, 52.0, 17.0 ]
												}

											}
, 											{
												"box" : 												{
													"maxclass" : "newobj",
													"text" : "r 40h-slide-interp-time",
													"id" : "obj-5",
													"fontsize" : 9.0,
													"numinlets" : 0,
													"numoutlets" : 1,
													"fontname" : "Arial",
													"outlettype" : [ "" ],
													"patching_rect" : [ 261.0, 117.0, 118.0, 17.0 ]
												}

											}
, 											{
												"box" : 												{
													"maxclass" : "outlet",
													"id" : "obj-6",
													"numinlets" : 1,
													"numoutlets" : 0,
													"patching_rect" : [ 195.0, 484.0, 15.0, 15.0 ],
													"comment" : ""
												}

											}
, 											{
												"box" : 												{
													"maxclass" : "inlet",
													"id" : "obj-7",
													"numinlets" : 0,
													"numoutlets" : 1,
													"outlettype" : [ "" ],
													"patching_rect" : [ 189.0, 43.0, 15.0, 15.0 ],
													"comment" : ""
												}

											}
, 											{
												"box" : 												{
													"maxclass" : "newobj",
													"text" : "expr abs($i1 - 8)",
													"id" : "obj-8",
													"fontsize" : 9.0,
													"numinlets" : 1,
													"numoutlets" : 1,
													"fontname" : "Arial",
													"outlettype" : [ "" ],
													"patching_rect" : [ 259.0, 310.0, 89.0, 17.0 ]
												}

											}
, 											{
												"box" : 												{
													"maxclass" : "message",
													"text" : "set 0",
													"id" : "obj-9",
													"fontsize" : 9.0,
													"numinlets" : 2,
													"numoutlets" : 1,
													"fontname" : "Arial",
													"outlettype" : [ "" ],
													"patching_rect" : [ 253.0, 268.0, 33.0, 15.0 ]
												}

											}
, 											{
												"box" : 												{
													"maxclass" : "newobj",
													"text" : "t i b",
													"id" : "obj-10",
													"fontsize" : 9.0,
													"numinlets" : 1,
													"numoutlets" : 2,
													"fontname" : "Arial",
													"outlettype" : [ "int", "bang" ],
													"patching_rect" : [ 202.0, 233.0, 27.0, 17.0 ]
												}

											}
, 											{
												"box" : 												{
													"maxclass" : "number",
													"triscale" : 0.9,
													"id" : "obj-11",
													"fontsize" : 9.0,
													"htextcolor" : [ 0.870588, 0.870588, 0.870588, 1.0 ],
													"numinlets" : 1,
													"numoutlets" : 2,
													"bgcolor" : [ 0.866667, 0.866667, 0.866667, 1.0 ],
													"fontname" : "Arial",
													"outlettype" : [ "int", "bang" ],
													"patching_rect" : [ 203.0, 209.0, 35.0, 17.0 ]
												}

											}
, 											{
												"box" : 												{
													"maxclass" : "newobj",
													"text" : "change",
													"id" : "obj-12",
													"fontsize" : 9.0,
													"numinlets" : 1,
													"numoutlets" : 3,
													"fontname" : "Arial",
													"outlettype" : [ "", "int", "int" ],
													"patching_rect" : [ 200.0, 268.0, 40.0, 17.0 ]
												}

											}
, 											{
												"box" : 												{
													"maxclass" : "newobj",
													"text" : "accum",
													"id" : "obj-13",
													"fontsize" : 9.0,
													"numinlets" : 3,
													"numoutlets" : 1,
													"fontname" : "Arial",
													"outlettype" : [ "int" ],
													"patching_rect" : [ 197.0, 376.0, 40.0, 17.0 ]
												}

											}
, 											{
												"box" : 												{
													"maxclass" : "newobj",
													"text" : "expr pow(2\\,($i1))",
													"id" : "obj-14",
													"fontsize" : 9.0,
													"numinlets" : 1,
													"numoutlets" : 1,
													"fontname" : "Arial",
													"outlettype" : [ "" ],
													"patching_rect" : [ 259.0, 342.0, 99.0, 17.0 ]
												}

											}
, 											{
												"box" : 												{
													"maxclass" : "newobj",
													"text" : "uzi",
													"id" : "obj-15",
													"fontsize" : 9.0,
													"numinlets" : 2,
													"numoutlets" : 3,
													"fontname" : "Arial",
													"outlettype" : [ "bang", "bang", "int" ],
													"patching_rect" : [ 143.0, 297.0, 40.0, 17.0 ]
												}

											}
 ],
										"lines" : [ 											{
												"patchline" : 												{
													"source" : [ "obj-4", 0 ],
													"destination" : [ "obj-1", 0 ],
													"hidden" : 0,
													"midpoints" : [ 399.0, 242.0 ]
												}

											}
, 											{
												"patchline" : 												{
													"source" : [ "obj-8", 0 ],
													"destination" : [ "obj-14", 0 ],
													"hidden" : 0,
													"midpoints" : [  ]
												}

											}
, 											{
												"patchline" : 												{
													"source" : [ "obj-15", 2 ],
													"destination" : [ "obj-8", 0 ],
													"hidden" : 0,
													"midpoints" : [  ]
												}

											}
, 											{
												"patchline" : 												{
													"source" : [ "obj-5", 0 ],
													"destination" : [ "obj-3", 1 ],
													"hidden" : 0,
													"midpoints" : [  ]
												}

											}
, 											{
												"patchline" : 												{
													"source" : [ "obj-10", 1 ],
													"destination" : [ "obj-9", 0 ],
													"hidden" : 0,
													"midpoints" : [  ]
												}

											}
, 											{
												"patchline" : 												{
													"source" : [ "obj-2", 0 ],
													"destination" : [ "obj-3", 0 ],
													"hidden" : 0,
													"midpoints" : [  ]
												}

											}
, 											{
												"patchline" : 												{
													"source" : [ "obj-14", 0 ],
													"destination" : [ "obj-13", 1 ],
													"hidden" : 0,
													"midpoints" : [  ]
												}

											}
, 											{
												"patchline" : 												{
													"source" : [ "obj-3", 0 ],
													"destination" : [ "obj-4", 0 ],
													"hidden" : 0,
													"midpoints" : [  ]
												}

											}
, 											{
												"patchline" : 												{
													"source" : [ "obj-4", 0 ],
													"destination" : [ "obj-11", 0 ],
													"hidden" : 0,
													"midpoints" : [  ]
												}

											}
, 											{
												"patchline" : 												{
													"source" : [ "obj-11", 0 ],
													"destination" : [ "obj-10", 0 ],
													"hidden" : 0,
													"midpoints" : [  ]
												}

											}
, 											{
												"patchline" : 												{
													"source" : [ "obj-10", 0 ],
													"destination" : [ "obj-12", 0 ],
													"hidden" : 0,
													"midpoints" : [  ]
												}

											}
, 											{
												"patchline" : 												{
													"source" : [ "obj-15", 1 ],
													"destination" : [ "obj-13", 0 ],
													"hidden" : 0,
													"midpoints" : [  ]
												}

											}
, 											{
												"patchline" : 												{
													"source" : [ "obj-9", 0 ],
													"destination" : [ "obj-13", 0 ],
													"hidden" : 0,
													"midpoints" : [  ]
												}

											}
, 											{
												"patchline" : 												{
													"source" : [ "obj-13", 0 ],
													"destination" : [ "obj-6", 0 ],
													"hidden" : 0,
													"midpoints" : [  ]
												}

											}
, 											{
												"patchline" : 												{
													"source" : [ "obj-7", 0 ],
													"destination" : [ "obj-2", 0 ],
													"hidden" : 0,
													"midpoints" : [  ]
												}

											}
, 											{
												"patchline" : 												{
													"source" : [ "obj-12", 0 ],
													"destination" : [ "obj-15", 0 ],
													"hidden" : 0,
													"midpoints" : [  ]
												}

											}
 ]
									}
,
									"saved_object_attributes" : 									{
										"fontface" : 0,
										"fontsize" : 12.0,
										"globalpatchername" : "",
										"default_fontface" : 0,
										"default_fontname" : "Arial",
										"fontname" : "Arial",
										"default_fontsize" : 12.0
									}

								}

							}
, 							{
								"box" : 								{
									"maxclass" : "outlet",
									"id" : "obj-19",
									"numinlets" : 1,
									"numoutlets" : 0,
									"patching_rect" : [ 637.0, 331.0, 25.0, 25.0 ],
									"comment" : ""
								}

							}
, 							{
								"box" : 								{
									"maxclass" : "newobj",
									"text" : "scale 1. 8. 200 900",
									"id" : "obj-20",
									"fontsize" : 12.0,
									"numinlets" : 6,
									"numoutlets" : 1,
									"fontname" : "Arial",
									"outlettype" : [ "" ],
									"patching_rect" : [ 629.0, 269.0, 112.0, 20.0 ]
								}

							}
, 							{
								"box" : 								{
									"maxclass" : "outlet",
									"id" : "obj-21",
									"numinlets" : 1,
									"numoutlets" : 0,
									"patching_rect" : [ 521.0, 324.0, 25.0, 25.0 ],
									"comment" : ""
								}

							}
, 							{
								"box" : 								{
									"maxclass" : "newobj",
									"text" : "scale 1. 16. 0 255",
									"id" : "obj-22",
									"fontsize" : 12.0,
									"numinlets" : 6,
									"numoutlets" : 1,
									"fontname" : "Arial",
									"outlettype" : [ "" ],
									"patching_rect" : [ 518.0, 270.0, 105.0, 20.0 ]
								}

							}
, 							{
								"box" : 								{
									"maxclass" : "outlet",
									"id" : "obj-18",
									"numinlets" : 1,
									"numoutlets" : 0,
									"patching_rect" : [ 410.0, 332.0, 25.0, 25.0 ],
									"comment" : ""
								}

							}
, 							{
								"box" : 								{
									"maxclass" : "newobj",
									"text" : "scale 1. 8. 200 900",
									"id" : "obj-7",
									"fontsize" : 12.0,
									"numinlets" : 6,
									"numoutlets" : 1,
									"fontname" : "Arial",
									"outlettype" : [ "" ],
									"patching_rect" : [ 402.0, 270.0, 112.0, 20.0 ]
								}

							}
, 							{
								"box" : 								{
									"maxclass" : "inlet",
									"id" : "obj-10",
									"numinlets" : 0,
									"numoutlets" : 1,
									"outlettype" : [ "int" ],
									"patching_rect" : [ 381.0, 20.0, 25.0, 25.0 ],
									"comment" : ""
								}

							}
, 							{
								"box" : 								{
									"maxclass" : "newobj",
									"text" : "p slide",
									"id" : "obj-8",
									"fontsize" : 12.0,
									"numinlets" : 1,
									"numoutlets" : 2,
									"fontname" : "Arial",
									"outlettype" : [ "int", "" ],
									"patching_rect" : [ 123.0, 199.0, 45.0, 20.0 ],
									"patcher" : 									{
										"fileversion" : 1,
										"rect" : [ 710.0, 104.0, 640.0, 480.0 ],
										"bglocked" : 0,
										"defrect" : [ 710.0, 104.0, 640.0, 480.0 ],
										"openrect" : [ 0.0, 0.0, 0.0, 0.0 ],
										"openinpresentation" : 0,
										"default_fontsize" : 12.0,
										"default_fontface" : 0,
										"default_fontname" : "Arial",
										"gridonopen" : 0,
										"gridsize" : [ 15.0, 15.0 ],
										"gridsnaponopen" : 0,
										"toolbarvisible" : 1,
										"boxanimatetime" : 200,
										"imprint" : 0,
										"enablehscroll" : 1,
										"enablevscroll" : 1,
										"devicewidth" : 0.0,
										"boxes" : [ 											{
												"box" : 												{
													"maxclass" : "outlet",
													"id" : "obj-1",
													"numinlets" : 1,
													"numoutlets" : 0,
													"patching_rect" : [ 409.0, 459.0, 15.0, 15.0 ],
													"comment" : ""
												}

											}
, 											{
												"box" : 												{
													"maxclass" : "newobj",
													"text" : "expr abs($i1 - 8)",
													"id" : "obj-2",
													"fontsize" : 9.0,
													"numinlets" : 1,
													"numoutlets" : 1,
													"fontname" : "Arial",
													"outlettype" : [ "" ],
													"patching_rect" : [ 189.0, 78.0, 89.0, 17.0 ]
												}

											}
, 											{
												"box" : 												{
													"maxclass" : "newobj",
													"text" : "pack 0 0",
													"id" : "obj-3",
													"fontsize" : 9.0,
													"numinlets" : 2,
													"numoutlets" : 1,
													"fontname" : "Arial",
													"outlettype" : [ "" ],
													"patching_rect" : [ 216.0, 157.0, 48.0, 17.0 ]
												}

											}
, 											{
												"box" : 												{
													"maxclass" : "newobj",
													"text" : "line 0. 10",
													"id" : "obj-4",
													"fontsize" : 9.0,
													"numinlets" : 3,
													"numoutlets" : 2,
													"fontname" : "Arial",
													"outlettype" : [ "", "" ],
													"patching_rect" : [ 211.0, 183.0, 52.0, 17.0 ]
												}

											}
, 											{
												"box" : 												{
													"maxclass" : "newobj",
													"text" : "r 40h-slide-interp-time",
													"id" : "obj-5",
													"fontsize" : 9.0,
													"numinlets" : 0,
													"numoutlets" : 1,
													"fontname" : "Arial",
													"outlettype" : [ "" ],
													"patching_rect" : [ 261.0, 117.0, 118.0, 17.0 ]
												}

											}
, 											{
												"box" : 												{
													"maxclass" : "outlet",
													"id" : "obj-6",
													"numinlets" : 1,
													"numoutlets" : 0,
													"patching_rect" : [ 195.0, 484.0, 15.0, 15.0 ],
													"comment" : ""
												}

											}
, 											{
												"box" : 												{
													"maxclass" : "inlet",
													"id" : "obj-7",
													"numinlets" : 0,
													"numoutlets" : 1,
													"outlettype" : [ "" ],
													"patching_rect" : [ 189.0, 43.0, 15.0, 15.0 ],
													"comment" : ""
												}

											}
, 											{
												"box" : 												{
													"maxclass" : "newobj",
													"text" : "expr abs($i1 - 8)",
													"id" : "obj-8",
													"fontsize" : 9.0,
													"numinlets" : 1,
													"numoutlets" : 1,
													"fontname" : "Arial",
													"outlettype" : [ "" ],
													"patching_rect" : [ 259.0, 310.0, 89.0, 17.0 ]
												}

											}
, 											{
												"box" : 												{
													"maxclass" : "message",
													"text" : "set 0",
													"id" : "obj-9",
													"fontsize" : 9.0,
													"numinlets" : 2,
													"numoutlets" : 1,
													"fontname" : "Arial",
													"outlettype" : [ "" ],
													"patching_rect" : [ 253.0, 268.0, 33.0, 15.0 ]
												}

											}
, 											{
												"box" : 												{
													"maxclass" : "newobj",
													"text" : "t i b",
													"id" : "obj-10",
													"fontsize" : 9.0,
													"numinlets" : 1,
													"numoutlets" : 2,
													"fontname" : "Arial",
													"outlettype" : [ "int", "bang" ],
													"patching_rect" : [ 202.0, 233.0, 27.0, 17.0 ]
												}

											}
, 											{
												"box" : 												{
													"maxclass" : "number",
													"triscale" : 0.9,
													"id" : "obj-11",
													"fontsize" : 9.0,
													"htextcolor" : [ 0.870588, 0.870588, 0.870588, 1.0 ],
													"numinlets" : 1,
													"numoutlets" : 2,
													"bgcolor" : [ 0.866667, 0.866667, 0.866667, 1.0 ],
													"fontname" : "Arial",
													"outlettype" : [ "int", "bang" ],
													"patching_rect" : [ 203.0, 209.0, 35.0, 17.0 ]
												}

											}
, 											{
												"box" : 												{
													"maxclass" : "newobj",
													"text" : "change",
													"id" : "obj-12",
													"fontsize" : 9.0,
													"numinlets" : 1,
													"numoutlets" : 3,
													"fontname" : "Arial",
													"outlettype" : [ "", "int", "int" ],
													"patching_rect" : [ 200.0, 268.0, 40.0, 17.0 ]
												}

											}
, 											{
												"box" : 												{
													"maxclass" : "newobj",
													"text" : "accum",
													"id" : "obj-13",
													"fontsize" : 9.0,
													"numinlets" : 3,
													"numoutlets" : 1,
													"fontname" : "Arial",
													"outlettype" : [ "int" ],
													"patching_rect" : [ 197.0, 376.0, 40.0, 17.0 ]
												}

											}
, 											{
												"box" : 												{
													"maxclass" : "newobj",
													"text" : "expr pow(2\\,($i1))",
													"id" : "obj-14",
													"fontsize" : 9.0,
													"numinlets" : 1,
													"numoutlets" : 1,
													"fontname" : "Arial",
													"outlettype" : [ "" ],
													"patching_rect" : [ 259.0, 342.0, 99.0, 17.0 ]
												}

											}
, 											{
												"box" : 												{
													"maxclass" : "newobj",
													"text" : "uzi",
													"id" : "obj-15",
													"fontsize" : 9.0,
													"numinlets" : 2,
													"numoutlets" : 3,
													"fontname" : "Arial",
													"outlettype" : [ "bang", "bang", "int" ],
													"patching_rect" : [ 143.0, 297.0, 40.0, 17.0 ]
												}

											}
 ],
										"lines" : [ 											{
												"patchline" : 												{
													"source" : [ "obj-12", 0 ],
													"destination" : [ "obj-15", 0 ],
													"hidden" : 0,
													"midpoints" : [  ]
												}

											}
, 											{
												"patchline" : 												{
													"source" : [ "obj-7", 0 ],
													"destination" : [ "obj-2", 0 ],
													"hidden" : 0,
													"midpoints" : [  ]
												}

											}
, 											{
												"patchline" : 												{
													"source" : [ "obj-13", 0 ],
													"destination" : [ "obj-6", 0 ],
													"hidden" : 0,
													"midpoints" : [  ]
												}

											}
, 											{
												"patchline" : 												{
													"source" : [ "obj-9", 0 ],
													"destination" : [ "obj-13", 0 ],
													"hidden" : 0,
													"midpoints" : [  ]
												}

											}
, 											{
												"patchline" : 												{
													"source" : [ "obj-15", 1 ],
													"destination" : [ "obj-13", 0 ],
													"hidden" : 0,
													"midpoints" : [  ]
												}

											}
, 											{
												"patchline" : 												{
													"source" : [ "obj-10", 0 ],
													"destination" : [ "obj-12", 0 ],
													"hidden" : 0,
													"midpoints" : [  ]
												}

											}
, 											{
												"patchline" : 												{
													"source" : [ "obj-11", 0 ],
													"destination" : [ "obj-10", 0 ],
													"hidden" : 0,
													"midpoints" : [  ]
												}

											}
, 											{
												"patchline" : 												{
													"source" : [ "obj-4", 0 ],
													"destination" : [ "obj-11", 0 ],
													"hidden" : 0,
													"midpoints" : [  ]
												}

											}
, 											{
												"patchline" : 												{
													"source" : [ "obj-3", 0 ],
													"destination" : [ "obj-4", 0 ],
													"hidden" : 0,
													"midpoints" : [  ]
												}

											}
, 											{
												"patchline" : 												{
													"source" : [ "obj-14", 0 ],
													"destination" : [ "obj-13", 1 ],
													"hidden" : 0,
													"midpoints" : [  ]
												}

											}
, 											{
												"patchline" : 												{
													"source" : [ "obj-2", 0 ],
													"destination" : [ "obj-3", 0 ],
													"hidden" : 0,
													"midpoints" : [  ]
												}

											}
, 											{
												"patchline" : 												{
													"source" : [ "obj-10", 1 ],
													"destination" : [ "obj-9", 0 ],
													"hidden" : 0,
													"midpoints" : [  ]
												}

											}
, 											{
												"patchline" : 												{
													"source" : [ "obj-5", 0 ],
													"destination" : [ "obj-3", 1 ],
													"hidden" : 0,
													"midpoints" : [  ]
												}

											}
, 											{
												"patchline" : 												{
													"source" : [ "obj-15", 2 ],
													"destination" : [ "obj-8", 0 ],
													"hidden" : 0,
													"midpoints" : [  ]
												}

											}
, 											{
												"patchline" : 												{
													"source" : [ "obj-8", 0 ],
													"destination" : [ "obj-14", 0 ],
													"hidden" : 0,
													"midpoints" : [  ]
												}

											}
, 											{
												"patchline" : 												{
													"source" : [ "obj-4", 0 ],
													"destination" : [ "obj-1", 0 ],
													"hidden" : 0,
													"midpoints" : [ 399.0, 242.0 ]
												}

											}
 ]
									}
,
									"saved_object_attributes" : 									{
										"fontface" : 0,
										"fontsize" : 12.0,
										"globalpatchername" : "",
										"default_fontface" : 0,
										"default_fontname" : "Arial",
										"fontname" : "Arial",
										"default_fontsize" : 12.0
									}

								}

							}
, 							{
								"box" : 								{
									"maxclass" : "newobj",
									"text" : "p doubleslide",
									"id" : "obj-11",
									"fontsize" : 12.0,
									"numinlets" : 2,
									"numoutlets" : 3,
									"fontname" : "Arial",
									"outlettype" : [ "int", "int", "" ],
									"patching_rect" : [ 189.0, 199.0, 81.0, 20.0 ],
									"patcher" : 									{
										"fileversion" : 1,
										"rect" : [ 25.0, 69.0, 1009.0, 710.0 ],
										"bglocked" : 0,
										"defrect" : [ 25.0, 69.0, 1009.0, 710.0 ],
										"openrect" : [ 0.0, 0.0, 0.0, 0.0 ],
										"openinpresentation" : 0,
										"default_fontsize" : 12.0,
										"default_fontface" : 0,
										"default_fontname" : "Arial",
										"gridonopen" : 0,
										"gridsize" : [ 15.0, 15.0 ],
										"gridsnaponopen" : 0,
										"toolbarvisible" : 1,
										"boxanimatetime" : 200,
										"imprint" : 0,
										"enablehscroll" : 1,
										"enablevscroll" : 1,
										"devicewidth" : 0.0,
										"boxes" : [ 											{
												"box" : 												{
													"maxclass" : "number",
													"id" : "obj-5",
													"fontsize" : 12.0,
													"numinlets" : 1,
													"numoutlets" : 2,
													"fontname" : "Arial",
													"outlettype" : [ "int", "bang" ],
													"patching_rect" : [ 352.0, 320.0, 50.0, 20.0 ]
												}

											}
, 											{
												"box" : 												{
													"maxclass" : "inlet",
													"id" : "obj-4",
													"numinlets" : 0,
													"numoutlets" : 1,
													"outlettype" : [ "" ],
													"patching_rect" : [ 167.0, 136.0, 25.0, 25.0 ],
													"comment" : ""
												}

											}
, 											{
												"box" : 												{
													"maxclass" : "inlet",
													"id" : "obj-3",
													"numinlets" : 0,
													"numoutlets" : 1,
													"outlettype" : [ "" ],
													"patching_rect" : [ 61.0, 141.0, 25.0, 25.0 ],
													"comment" : ""
												}

											}
, 											{
												"box" : 												{
													"maxclass" : "outlet",
													"id" : "obj-2",
													"numinlets" : 1,
													"numoutlets" : 0,
													"patching_rect" : [ 141.0, 675.0, 25.0, 25.0 ],
													"comment" : ""
												}

											}
, 											{
												"box" : 												{
													"maxclass" : "outlet",
													"id" : "obj-1",
													"numinlets" : 1,
													"numoutlets" : 0,
													"patching_rect" : [ 100.0, 670.0, 25.0, 25.0 ],
													"comment" : ""
												}

											}
, 											{
												"box" : 												{
													"maxclass" : "newobj",
													"text" : "if $i1 <9 then 0",
													"id" : "obj-87",
													"fontsize" : 12.0,
													"numinlets" : 1,
													"numoutlets" : 1,
													"fontname" : "Arial",
													"outlettype" : [ "" ],
													"patching_rect" : [ 184.0, 435.0, 90.0, 20.0 ]
												}

											}
, 											{
												"box" : 												{
													"maxclass" : "newobj",
													"text" : "- 8",
													"id" : "obj-85",
													"fontsize" : 12.0,
													"numinlets" : 2,
													"numoutlets" : 1,
													"fontname" : "Arial",
													"outlettype" : [ "int" ],
													"patching_rect" : [ 302.0, 456.0, 32.5, 20.0 ]
												}

											}
, 											{
												"box" : 												{
													"maxclass" : "newobj",
													"text" : "if $i1 < 9 then $i1 else out2 $i1",
													"id" : "obj-82",
													"fontsize" : 12.0,
													"numinlets" : 1,
													"numoutlets" : 2,
													"fontname" : "Arial",
													"outlettype" : [ "", "" ],
													"patching_rect" : [ 63.0, 403.0, 174.0, 20.0 ]
												}

											}
, 											{
												"box" : 												{
													"maxclass" : "newobj",
													"text" : "expr pow(2\\,($i1))",
													"id" : "obj-73",
													"fontsize" : 12.0,
													"numinlets" : 1,
													"numoutlets" : 1,
													"fontname" : "Arial",
													"outlettype" : [ "" ],
													"patching_rect" : [ 393.0, 604.0, 105.0, 20.0 ]
												}

											}
, 											{
												"box" : 												{
													"maxclass" : "newobj",
													"text" : "accum",
													"id" : "obj-74",
													"fontsize" : 12.0,
													"numinlets" : 3,
													"numoutlets" : 1,
													"fontname" : "Arial",
													"outlettype" : [ "int" ],
													"patching_rect" : [ 323.0, 630.0, 46.0, 20.0 ]
												}

											}
, 											{
												"box" : 												{
													"maxclass" : "newobj",
													"text" : "expr abs($i1-8)",
													"id" : "obj-75",
													"fontsize" : 12.0,
													"numinlets" : 1,
													"numoutlets" : 1,
													"fontname" : "Arial",
													"outlettype" : [ "" ],
													"patching_rect" : [ 394.0, 566.0, 91.0, 20.0 ]
												}

											}
, 											{
												"box" : 												{
													"maxclass" : "newobj",
													"text" : "uzi",
													"id" : "obj-76",
													"fontsize" : 12.0,
													"numinlets" : 2,
													"numoutlets" : 3,
													"fontname" : "Arial",
													"outlettype" : [ "bang", "bang", "int" ],
													"patching_rect" : [ 286.0, 569.0, 46.0, 20.0 ]
												}

											}
, 											{
												"box" : 												{
													"maxclass" : "message",
													"text" : "set 0",
													"id" : "obj-77",
													"fontsize" : 12.0,
													"numinlets" : 2,
													"numoutlets" : 1,
													"fontname" : "Arial",
													"outlettype" : [ "" ],
													"patching_rect" : [ 393.0, 530.0, 37.0, 18.0 ]
												}

											}
, 											{
												"box" : 												{
													"maxclass" : "newobj",
													"text" : "change",
													"id" : "obj-78",
													"fontsize" : 12.0,
													"numinlets" : 1,
													"numoutlets" : 3,
													"fontname" : "Arial",
													"outlettype" : [ "", "int", "int" ],
													"patching_rect" : [ 321.0, 521.0, 50.0, 20.0 ]
												}

											}
, 											{
												"box" : 												{
													"maxclass" : "newobj",
													"text" : "t i b",
													"id" : "obj-79",
													"fontsize" : 12.0,
													"numinlets" : 1,
													"numoutlets" : 2,
													"fontname" : "Arial",
													"outlettype" : [ "int", "bang" ],
													"patching_rect" : [ 322.0, 488.0, 32.5, 20.0 ]
												}

											}
, 											{
												"box" : 												{
													"maxclass" : "newobj",
													"text" : "expr pow(2\\,($i1))",
													"id" : "obj-25",
													"fontsize" : 12.0,
													"numinlets" : 1,
													"numoutlets" : 1,
													"fontname" : "Arial",
													"outlettype" : [ "" ],
													"patching_rect" : [ 169.0, 575.0, 105.0, 20.0 ]
												}

											}
, 											{
												"box" : 												{
													"maxclass" : "newobj",
													"text" : "accum",
													"id" : "obj-24",
													"fontsize" : 12.0,
													"numinlets" : 3,
													"numoutlets" : 1,
													"fontname" : "Arial",
													"outlettype" : [ "int" ],
													"patching_rect" : [ 99.0, 601.0, 46.0, 20.0 ]
												}

											}
, 											{
												"box" : 												{
													"maxclass" : "newobj",
													"text" : "expr abs($i1-8)",
													"id" : "obj-23",
													"fontsize" : 12.0,
													"numinlets" : 1,
													"numoutlets" : 1,
													"fontname" : "Arial",
													"outlettype" : [ "" ],
													"patching_rect" : [ 170.0, 537.0, 91.0, 20.0 ]
												}

											}
, 											{
												"box" : 												{
													"maxclass" : "newobj",
													"text" : "uzi",
													"id" : "obj-22",
													"fontsize" : 12.0,
													"numinlets" : 2,
													"numoutlets" : 3,
													"fontname" : "Arial",
													"outlettype" : [ "bang", "bang", "int" ],
													"patching_rect" : [ 62.0, 540.0, 46.0, 20.0 ]
												}

											}
, 											{
												"box" : 												{
													"maxclass" : "message",
													"text" : "set 0",
													"id" : "obj-21",
													"fontsize" : 12.0,
													"numinlets" : 2,
													"numoutlets" : 1,
													"fontname" : "Arial",
													"outlettype" : [ "" ],
													"patching_rect" : [ 169.0, 501.0, 37.0, 18.0 ]
												}

											}
, 											{
												"box" : 												{
													"maxclass" : "newobj",
													"text" : "change",
													"id" : "obj-20",
													"fontsize" : 12.0,
													"numinlets" : 1,
													"numoutlets" : 3,
													"fontname" : "Arial",
													"outlettype" : [ "", "int", "int" ],
													"patching_rect" : [ 97.0, 492.0, 50.0, 20.0 ]
												}

											}
, 											{
												"box" : 												{
													"maxclass" : "newobj",
													"text" : "t i b",
													"id" : "obj-19",
													"fontsize" : 12.0,
													"numinlets" : 1,
													"numoutlets" : 2,
													"fontname" : "Arial",
													"outlettype" : [ "int", "bang" ],
													"patching_rect" : [ 98.0, 459.0, 32.5, 20.0 ]
												}

											}
, 											{
												"box" : 												{
													"maxclass" : "number",
													"id" : "obj-18",
													"fontsize" : 12.0,
													"numinlets" : 1,
													"numoutlets" : 2,
													"fontname" : "Arial",
													"outlettype" : [ "int", "bang" ],
													"patching_rect" : [ 96.0, 361.0, 50.0, 20.0 ]
												}

											}
, 											{
												"box" : 												{
													"maxclass" : "outlet",
													"id" : "obj-17",
													"numinlets" : 1,
													"numoutlets" : 0,
													"patching_rect" : [ 256.0, 344.0, 25.0, 25.0 ],
													"comment" : ""
												}

											}
, 											{
												"box" : 												{
													"maxclass" : "newobj",
													"text" : "line 0. 10",
													"id" : "obj-12",
													"fontsize" : 12.0,
													"numinlets" : 3,
													"numoutlets" : 2,
													"fontname" : "Arial",
													"outlettype" : [ "", "" ],
													"patching_rect" : [ 97.0, 333.0, 59.0, 20.0 ]
												}

											}
, 											{
												"box" : 												{
													"maxclass" : "newobj",
													"text" : "r 40h-slide-interp-time",
													"id" : "obj-11",
													"fontsize" : 12.0,
													"numinlets" : 0,
													"numoutlets" : 1,
													"fontname" : "Arial",
													"outlettype" : [ "" ],
													"patching_rect" : [ 265.0, 230.0, 127.0, 20.0 ]
												}

											}
, 											{
												"box" : 												{
													"maxclass" : "newobj",
													"text" : "expr abs($i1 - 16)",
													"id" : "obj-10",
													"fontsize" : 12.0,
													"numinlets" : 1,
													"numoutlets" : 1,
													"fontname" : "Arial",
													"outlettype" : [ "" ],
													"patching_rect" : [ 160.0, 222.0, 105.0, 20.0 ]
												}

											}
, 											{
												"box" : 												{
													"maxclass" : "newobj",
													"text" : "pack 0 0",
													"id" : "obj-8",
													"fontsize" : 12.0,
													"numinlets" : 2,
													"numoutlets" : 1,
													"fontname" : "Arial",
													"outlettype" : [ "" ],
													"patching_rect" : [ 119.0, 276.0, 56.0, 20.0 ]
												}

											}
, 											{
												"box" : 												{
													"maxclass" : "newobj",
													"text" : "expr abs($i1 - 8)",
													"id" : "obj-7",
													"fontsize" : 12.0,
													"numinlets" : 1,
													"numoutlets" : 1,
													"fontname" : "Arial",
													"outlettype" : [ "" ],
													"patching_rect" : [ 55.0, 223.0, 98.0, 20.0 ]
												}

											}
 ],
										"lines" : [ 											{
												"patchline" : 												{
													"source" : [ "obj-7", 0 ],
													"destination" : [ "obj-8", 0 ],
													"hidden" : 0,
													"midpoints" : [  ]
												}

											}
, 											{
												"patchline" : 												{
													"source" : [ "obj-10", 0 ],
													"destination" : [ "obj-8", 0 ],
													"hidden" : 0,
													"midpoints" : [  ]
												}

											}
, 											{
												"patchline" : 												{
													"source" : [ "obj-11", 0 ],
													"destination" : [ "obj-8", 1 ],
													"hidden" : 0,
													"midpoints" : [  ]
												}

											}
, 											{
												"patchline" : 												{
													"source" : [ "obj-12", 0 ],
													"destination" : [ "obj-18", 0 ],
													"hidden" : 0,
													"midpoints" : [  ]
												}

											}
, 											{
												"patchline" : 												{
													"source" : [ "obj-8", 0 ],
													"destination" : [ "obj-12", 0 ],
													"hidden" : 0,
													"midpoints" : [  ]
												}

											}
, 											{
												"patchline" : 												{
													"source" : [ "obj-25", 0 ],
													"destination" : [ "obj-24", 1 ],
													"hidden" : 0,
													"midpoints" : [  ]
												}

											}
, 											{
												"patchline" : 												{
													"source" : [ "obj-23", 0 ],
													"destination" : [ "obj-25", 0 ],
													"hidden" : 0,
													"midpoints" : [  ]
												}

											}
, 											{
												"patchline" : 												{
													"source" : [ "obj-22", 1 ],
													"destination" : [ "obj-24", 0 ],
													"hidden" : 0,
													"midpoints" : [  ]
												}

											}
, 											{
												"patchline" : 												{
													"source" : [ "obj-21", 0 ],
													"destination" : [ "obj-24", 0 ],
													"hidden" : 0,
													"midpoints" : [  ]
												}

											}
, 											{
												"patchline" : 												{
													"source" : [ "obj-22", 2 ],
													"destination" : [ "obj-23", 0 ],
													"hidden" : 0,
													"midpoints" : [  ]
												}

											}
, 											{
												"patchline" : 												{
													"source" : [ "obj-20", 0 ],
													"destination" : [ "obj-22", 0 ],
													"hidden" : 0,
													"midpoints" : [  ]
												}

											}
, 											{
												"patchline" : 												{
													"source" : [ "obj-19", 1 ],
													"destination" : [ "obj-21", 0 ],
													"hidden" : 0,
													"midpoints" : [  ]
												}

											}
, 											{
												"patchline" : 												{
													"source" : [ "obj-19", 0 ],
													"destination" : [ "obj-20", 0 ],
													"hidden" : 0,
													"midpoints" : [  ]
												}

											}
, 											{
												"patchline" : 												{
													"source" : [ "obj-79", 0 ],
													"destination" : [ "obj-78", 0 ],
													"hidden" : 0,
													"midpoints" : [  ]
												}

											}
, 											{
												"patchline" : 												{
													"source" : [ "obj-79", 1 ],
													"destination" : [ "obj-77", 0 ],
													"hidden" : 0,
													"midpoints" : [  ]
												}

											}
, 											{
												"patchline" : 												{
													"source" : [ "obj-78", 0 ],
													"destination" : [ "obj-76", 0 ],
													"hidden" : 0,
													"midpoints" : [  ]
												}

											}
, 											{
												"patchline" : 												{
													"source" : [ "obj-76", 2 ],
													"destination" : [ "obj-75", 0 ],
													"hidden" : 0,
													"midpoints" : [  ]
												}

											}
, 											{
												"patchline" : 												{
													"source" : [ "obj-77", 0 ],
													"destination" : [ "obj-74", 0 ],
													"hidden" : 0,
													"midpoints" : [  ]
												}

											}
, 											{
												"patchline" : 												{
													"source" : [ "obj-76", 1 ],
													"destination" : [ "obj-74", 0 ],
													"hidden" : 0,
													"midpoints" : [  ]
												}

											}
, 											{
												"patchline" : 												{
													"source" : [ "obj-75", 0 ],
													"destination" : [ "obj-73", 0 ],
													"hidden" : 0,
													"midpoints" : [  ]
												}

											}
, 											{
												"patchline" : 												{
													"source" : [ "obj-73", 0 ],
													"destination" : [ "obj-74", 1 ],
													"hidden" : 0,
													"midpoints" : [  ]
												}

											}
, 											{
												"patchline" : 												{
													"source" : [ "obj-18", 0 ],
													"destination" : [ "obj-82", 0 ],
													"hidden" : 0,
													"midpoints" : [  ]
												}

											}
, 											{
												"patchline" : 												{
													"source" : [ "obj-82", 0 ],
													"destination" : [ "obj-19", 0 ],
													"hidden" : 0,
													"midpoints" : [  ]
												}

											}
, 											{
												"patchline" : 												{
													"source" : [ "obj-82", 1 ],
													"destination" : [ "obj-85", 0 ],
													"hidden" : 0,
													"midpoints" : [  ]
												}

											}
, 											{
												"patchline" : 												{
													"source" : [ "obj-85", 0 ],
													"destination" : [ "obj-79", 0 ],
													"hidden" : 0,
													"midpoints" : [  ]
												}

											}
, 											{
												"patchline" : 												{
													"source" : [ "obj-18", 0 ],
													"destination" : [ "obj-87", 0 ],
													"hidden" : 0,
													"midpoints" : [  ]
												}

											}
, 											{
												"patchline" : 												{
													"source" : [ "obj-87", 0 ],
													"destination" : [ "obj-79", 0 ],
													"hidden" : 0,
													"midpoints" : [  ]
												}

											}
, 											{
												"patchline" : 												{
													"source" : [ "obj-24", 0 ],
													"destination" : [ "obj-1", 0 ],
													"hidden" : 0,
													"midpoints" : [  ]
												}

											}
, 											{
												"patchline" : 												{
													"source" : [ "obj-74", 0 ],
													"destination" : [ "obj-2", 0 ],
													"hidden" : 0,
													"midpoints" : [  ]
												}

											}
, 											{
												"patchline" : 												{
													"source" : [ "obj-3", 0 ],
													"destination" : [ "obj-7", 0 ],
													"hidden" : 0,
													"midpoints" : [  ]
												}

											}
, 											{
												"patchline" : 												{
													"source" : [ "obj-4", 0 ],
													"destination" : [ "obj-10", 0 ],
													"hidden" : 0,
													"midpoints" : [  ]
												}

											}
, 											{
												"patchline" : 												{
													"source" : [ "obj-12", 0 ],
													"destination" : [ "obj-17", 0 ],
													"hidden" : 0,
													"midpoints" : [  ]
												}

											}
, 											{
												"patchline" : 												{
													"source" : [ "obj-11", 0 ],
													"destination" : [ "obj-5", 0 ],
													"hidden" : 0,
													"midpoints" : [  ]
												}

											}
 ]
									}
,
									"saved_object_attributes" : 									{
										"fontface" : 0,
										"fontsize" : 12.0,
										"globalpatchername" : "",
										"default_fontface" : 0,
										"default_fontname" : "Arial",
										"fontname" : "Arial",
										"default_fontsize" : 12.0
									}

								}

							}
, 							{
								"box" : 								{
									"maxclass" : "newobj",
									"text" : "p doubleslide",
									"id" : "obj-9",
									"fontsize" : 12.0,
									"numinlets" : 2,
									"numoutlets" : 3,
									"fontname" : "Arial",
									"outlettype" : [ "int", "int", "" ],
									"patching_rect" : [ 24.0, 202.0, 81.0, 20.0 ],
									"patcher" : 									{
										"fileversion" : 1,
										"rect" : [ 2533.0, -47.0, 559.0, 795.0 ],
										"bglocked" : 0,
										"defrect" : [ 2533.0, -47.0, 559.0, 795.0 ],
										"openrect" : [ 0.0, 0.0, 0.0, 0.0 ],
										"openinpresentation" : 0,
										"default_fontsize" : 12.0,
										"default_fontface" : 0,
										"default_fontname" : "Arial",
										"gridonopen" : 0,
										"gridsize" : [ 15.0, 15.0 ],
										"gridsnaponopen" : 0,
										"toolbarvisible" : 1,
										"boxanimatetime" : 200,
										"imprint" : 0,
										"enablehscroll" : 1,
										"enablevscroll" : 1,
										"devicewidth" : 0.0,
										"boxes" : [ 											{
												"box" : 												{
													"maxclass" : "inlet",
													"id" : "obj-4",
													"numinlets" : 0,
													"numoutlets" : 1,
													"outlettype" : [ "" ],
													"patching_rect" : [ 167.0, 136.0, 25.0, 25.0 ],
													"comment" : ""
												}

											}
, 											{
												"box" : 												{
													"maxclass" : "inlet",
													"id" : "obj-3",
													"numinlets" : 0,
													"numoutlets" : 1,
													"outlettype" : [ "" ],
													"patching_rect" : [ 61.0, 141.0, 25.0, 25.0 ],
													"comment" : ""
												}

											}
, 											{
												"box" : 												{
													"maxclass" : "outlet",
													"id" : "obj-2",
													"numinlets" : 1,
													"numoutlets" : 0,
													"patching_rect" : [ 141.0, 675.0, 25.0, 25.0 ],
													"comment" : ""
												}

											}
, 											{
												"box" : 												{
													"maxclass" : "outlet",
													"id" : "obj-1",
													"numinlets" : 1,
													"numoutlets" : 0,
													"patching_rect" : [ 100.0, 670.0, 25.0, 25.0 ],
													"comment" : ""
												}

											}
, 											{
												"box" : 												{
													"maxclass" : "newobj",
													"text" : "if $i1 <9 then 0",
													"id" : "obj-87",
													"fontsize" : 12.0,
													"numinlets" : 1,
													"numoutlets" : 1,
													"fontname" : "Arial",
													"outlettype" : [ "" ],
													"patching_rect" : [ 184.0, 435.0, 90.0, 20.0 ]
												}

											}
, 											{
												"box" : 												{
													"maxclass" : "newobj",
													"text" : "- 8",
													"id" : "obj-85",
													"fontsize" : 12.0,
													"numinlets" : 2,
													"numoutlets" : 1,
													"fontname" : "Arial",
													"outlettype" : [ "int" ],
													"patching_rect" : [ 302.0, 456.0, 32.5, 20.0 ]
												}

											}
, 											{
												"box" : 												{
													"maxclass" : "newobj",
													"text" : "if $i1 < 9 then $i1 else out2 $i1",
													"id" : "obj-82",
													"fontsize" : 12.0,
													"numinlets" : 1,
													"numoutlets" : 2,
													"fontname" : "Arial",
													"outlettype" : [ "", "" ],
													"patching_rect" : [ 63.0, 403.0, 174.0, 20.0 ]
												}

											}
, 											{
												"box" : 												{
													"maxclass" : "newobj",
													"text" : "expr pow(2\\,($i1))",
													"id" : "obj-73",
													"fontsize" : 12.0,
													"numinlets" : 1,
													"numoutlets" : 1,
													"fontname" : "Arial",
													"outlettype" : [ "" ],
													"patching_rect" : [ 393.0, 604.0, 105.0, 20.0 ]
												}

											}
, 											{
												"box" : 												{
													"maxclass" : "newobj",
													"text" : "accum",
													"id" : "obj-74",
													"fontsize" : 12.0,
													"numinlets" : 3,
													"numoutlets" : 1,
													"fontname" : "Arial",
													"outlettype" : [ "int" ],
													"patching_rect" : [ 323.0, 630.0, 46.0, 20.0 ]
												}

											}
, 											{
												"box" : 												{
													"maxclass" : "newobj",
													"text" : "expr abs($i1-8)",
													"id" : "obj-75",
													"fontsize" : 12.0,
													"numinlets" : 1,
													"numoutlets" : 1,
													"fontname" : "Arial",
													"outlettype" : [ "" ],
													"patching_rect" : [ 394.0, 566.0, 91.0, 20.0 ]
												}

											}
, 											{
												"box" : 												{
													"maxclass" : "newobj",
													"text" : "uzi",
													"id" : "obj-76",
													"fontsize" : 12.0,
													"numinlets" : 2,
													"numoutlets" : 3,
													"fontname" : "Arial",
													"outlettype" : [ "bang", "bang", "int" ],
													"patching_rect" : [ 286.0, 569.0, 46.0, 20.0 ]
												}

											}
, 											{
												"box" : 												{
													"maxclass" : "message",
													"text" : "set 0",
													"id" : "obj-77",
													"fontsize" : 12.0,
													"numinlets" : 2,
													"numoutlets" : 1,
													"fontname" : "Arial",
													"outlettype" : [ "" ],
													"patching_rect" : [ 393.0, 530.0, 37.0, 18.0 ]
												}

											}
, 											{
												"box" : 												{
													"maxclass" : "newobj",
													"text" : "change",
													"id" : "obj-78",
													"fontsize" : 12.0,
													"numinlets" : 1,
													"numoutlets" : 3,
													"fontname" : "Arial",
													"outlettype" : [ "", "int", "int" ],
													"patching_rect" : [ 321.0, 521.0, 50.0, 20.0 ]
												}

											}
, 											{
												"box" : 												{
													"maxclass" : "newobj",
													"text" : "t i b",
													"id" : "obj-79",
													"fontsize" : 12.0,
													"numinlets" : 1,
													"numoutlets" : 2,
													"fontname" : "Arial",
													"outlettype" : [ "int", "bang" ],
													"patching_rect" : [ 322.0, 488.0, 32.5, 20.0 ]
												}

											}
, 											{
												"box" : 												{
													"maxclass" : "newobj",
													"text" : "expr pow(2\\,($i1))",
													"id" : "obj-25",
													"fontsize" : 12.0,
													"numinlets" : 1,
													"numoutlets" : 1,
													"fontname" : "Arial",
													"outlettype" : [ "" ],
													"patching_rect" : [ 169.0, 575.0, 105.0, 20.0 ]
												}

											}
, 											{
												"box" : 												{
													"maxclass" : "newobj",
													"text" : "accum",
													"id" : "obj-24",
													"fontsize" : 12.0,
													"numinlets" : 3,
													"numoutlets" : 1,
													"fontname" : "Arial",
													"outlettype" : [ "int" ],
													"patching_rect" : [ 99.0, 601.0, 46.0, 20.0 ]
												}

											}
, 											{
												"box" : 												{
													"maxclass" : "newobj",
													"text" : "expr abs($i1-8)",
													"id" : "obj-23",
													"fontsize" : 12.0,
													"numinlets" : 1,
													"numoutlets" : 1,
													"fontname" : "Arial",
													"outlettype" : [ "" ],
													"patching_rect" : [ 170.0, 537.0, 91.0, 20.0 ]
												}

											}
, 											{
												"box" : 												{
													"maxclass" : "newobj",
													"text" : "uzi",
													"id" : "obj-22",
													"fontsize" : 12.0,
													"numinlets" : 2,
													"numoutlets" : 3,
													"fontname" : "Arial",
													"outlettype" : [ "bang", "bang", "int" ],
													"patching_rect" : [ 62.0, 540.0, 46.0, 20.0 ]
												}

											}
, 											{
												"box" : 												{
													"maxclass" : "message",
													"text" : "set 0",
													"id" : "obj-21",
													"fontsize" : 12.0,
													"numinlets" : 2,
													"numoutlets" : 1,
													"fontname" : "Arial",
													"outlettype" : [ "" ],
													"patching_rect" : [ 169.0, 501.0, 37.0, 18.0 ]
												}

											}
, 											{
												"box" : 												{
													"maxclass" : "newobj",
													"text" : "change",
													"id" : "obj-20",
													"fontsize" : 12.0,
													"numinlets" : 1,
													"numoutlets" : 3,
													"fontname" : "Arial",
													"outlettype" : [ "", "int", "int" ],
													"patching_rect" : [ 97.0, 492.0, 50.0, 20.0 ]
												}

											}
, 											{
												"box" : 												{
													"maxclass" : "newobj",
													"text" : "t i b",
													"id" : "obj-19",
													"fontsize" : 12.0,
													"numinlets" : 1,
													"numoutlets" : 2,
													"fontname" : "Arial",
													"outlettype" : [ "int", "bang" ],
													"patching_rect" : [ 98.0, 459.0, 32.5, 20.0 ]
												}

											}
, 											{
												"box" : 												{
													"maxclass" : "number",
													"id" : "obj-18",
													"fontsize" : 12.0,
													"numinlets" : 1,
													"numoutlets" : 2,
													"fontname" : "Arial",
													"outlettype" : [ "int", "bang" ],
													"patching_rect" : [ 96.0, 361.0, 50.0, 20.0 ]
												}

											}
, 											{
												"box" : 												{
													"maxclass" : "outlet",
													"id" : "obj-17",
													"numinlets" : 1,
													"numoutlets" : 0,
													"patching_rect" : [ 256.0, 344.0, 25.0, 25.0 ],
													"comment" : ""
												}

											}
, 											{
												"box" : 												{
													"maxclass" : "newobj",
													"text" : "line 0. 10",
													"id" : "obj-12",
													"fontsize" : 12.0,
													"numinlets" : 3,
													"numoutlets" : 2,
													"fontname" : "Arial",
													"outlettype" : [ "", "" ],
													"patching_rect" : [ 97.0, 333.0, 59.0, 20.0 ]
												}

											}
, 											{
												"box" : 												{
													"maxclass" : "newobj",
													"text" : "r 40h-slide-interp-time",
													"id" : "obj-11",
													"fontsize" : 12.0,
													"numinlets" : 0,
													"numoutlets" : 1,
													"fontname" : "Arial",
													"outlettype" : [ "" ],
													"patching_rect" : [ 265.0, 230.0, 127.0, 20.0 ]
												}

											}
, 											{
												"box" : 												{
													"maxclass" : "newobj",
													"text" : "expr abs($i1 - 16)",
													"id" : "obj-10",
													"fontsize" : 12.0,
													"numinlets" : 1,
													"numoutlets" : 1,
													"fontname" : "Arial",
													"outlettype" : [ "" ],
													"patching_rect" : [ 160.0, 222.0, 105.0, 20.0 ]
												}

											}
, 											{
												"box" : 												{
													"maxclass" : "newobj",
													"text" : "pack 0 0",
													"id" : "obj-8",
													"fontsize" : 12.0,
													"numinlets" : 2,
													"numoutlets" : 1,
													"fontname" : "Arial",
													"outlettype" : [ "" ],
													"patching_rect" : [ 119.0, 276.0, 56.0, 20.0 ]
												}

											}
, 											{
												"box" : 												{
													"maxclass" : "newobj",
													"text" : "expr abs($i1 - 8)",
													"id" : "obj-7",
													"fontsize" : 12.0,
													"numinlets" : 1,
													"numoutlets" : 1,
													"fontname" : "Arial",
													"outlettype" : [ "" ],
													"patching_rect" : [ 55.0, 223.0, 98.0, 20.0 ]
												}

											}
 ],
										"lines" : [ 											{
												"patchline" : 												{
													"source" : [ "obj-12", 0 ],
													"destination" : [ "obj-17", 0 ],
													"hidden" : 0,
													"midpoints" : [  ]
												}

											}
, 											{
												"patchline" : 												{
													"source" : [ "obj-4", 0 ],
													"destination" : [ "obj-10", 0 ],
													"hidden" : 0,
													"midpoints" : [  ]
												}

											}
, 											{
												"patchline" : 												{
													"source" : [ "obj-3", 0 ],
													"destination" : [ "obj-7", 0 ],
													"hidden" : 0,
													"midpoints" : [  ]
												}

											}
, 											{
												"patchline" : 												{
													"source" : [ "obj-74", 0 ],
													"destination" : [ "obj-2", 0 ],
													"hidden" : 0,
													"midpoints" : [  ]
												}

											}
, 											{
												"patchline" : 												{
													"source" : [ "obj-24", 0 ],
													"destination" : [ "obj-1", 0 ],
													"hidden" : 0,
													"midpoints" : [  ]
												}

											}
, 											{
												"patchline" : 												{
													"source" : [ "obj-87", 0 ],
													"destination" : [ "obj-79", 0 ],
													"hidden" : 0,
													"midpoints" : [  ]
												}

											}
, 											{
												"patchline" : 												{
													"source" : [ "obj-18", 0 ],
													"destination" : [ "obj-87", 0 ],
													"hidden" : 0,
													"midpoints" : [  ]
												}

											}
, 											{
												"patchline" : 												{
													"source" : [ "obj-85", 0 ],
													"destination" : [ "obj-79", 0 ],
													"hidden" : 0,
													"midpoints" : [  ]
												}

											}
, 											{
												"patchline" : 												{
													"source" : [ "obj-82", 1 ],
													"destination" : [ "obj-85", 0 ],
													"hidden" : 0,
													"midpoints" : [  ]
												}

											}
, 											{
												"patchline" : 												{
													"source" : [ "obj-82", 0 ],
													"destination" : [ "obj-19", 0 ],
													"hidden" : 0,
													"midpoints" : [  ]
												}

											}
, 											{
												"patchline" : 												{
													"source" : [ "obj-18", 0 ],
													"destination" : [ "obj-82", 0 ],
													"hidden" : 0,
													"midpoints" : [  ]
												}

											}
, 											{
												"patchline" : 												{
													"source" : [ "obj-73", 0 ],
													"destination" : [ "obj-74", 1 ],
													"hidden" : 0,
													"midpoints" : [  ]
												}

											}
, 											{
												"patchline" : 												{
													"source" : [ "obj-75", 0 ],
													"destination" : [ "obj-73", 0 ],
													"hidden" : 0,
													"midpoints" : [  ]
												}

											}
, 											{
												"patchline" : 												{
													"source" : [ "obj-76", 1 ],
													"destination" : [ "obj-74", 0 ],
													"hidden" : 0,
													"midpoints" : [  ]
												}

											}
, 											{
												"patchline" : 												{
													"source" : [ "obj-77", 0 ],
													"destination" : [ "obj-74", 0 ],
													"hidden" : 0,
													"midpoints" : [  ]
												}

											}
, 											{
												"patchline" : 												{
													"source" : [ "obj-76", 2 ],
													"destination" : [ "obj-75", 0 ],
													"hidden" : 0,
													"midpoints" : [  ]
												}

											}
, 											{
												"patchline" : 												{
													"source" : [ "obj-78", 0 ],
													"destination" : [ "obj-76", 0 ],
													"hidden" : 0,
													"midpoints" : [  ]
												}

											}
, 											{
												"patchline" : 												{
													"source" : [ "obj-79", 1 ],
													"destination" : [ "obj-77", 0 ],
													"hidden" : 0,
													"midpoints" : [  ]
												}

											}
, 											{
												"patchline" : 												{
													"source" : [ "obj-79", 0 ],
													"destination" : [ "obj-78", 0 ],
													"hidden" : 0,
													"midpoints" : [  ]
												}

											}
, 											{
												"patchline" : 												{
													"source" : [ "obj-19", 0 ],
													"destination" : [ "obj-20", 0 ],
													"hidden" : 0,
													"midpoints" : [  ]
												}

											}
, 											{
												"patchline" : 												{
													"source" : [ "obj-19", 1 ],
													"destination" : [ "obj-21", 0 ],
													"hidden" : 0,
													"midpoints" : [  ]
												}

											}
, 											{
												"patchline" : 												{
													"source" : [ "obj-20", 0 ],
													"destination" : [ "obj-22", 0 ],
													"hidden" : 0,
													"midpoints" : [  ]
												}

											}
, 											{
												"patchline" : 												{
													"source" : [ "obj-22", 2 ],
													"destination" : [ "obj-23", 0 ],
													"hidden" : 0,
													"midpoints" : [  ]
												}

											}
, 											{
												"patchline" : 												{
													"source" : [ "obj-21", 0 ],
													"destination" : [ "obj-24", 0 ],
													"hidden" : 0,
													"midpoints" : [  ]
												}

											}
, 											{
												"patchline" : 												{
													"source" : [ "obj-22", 1 ],
													"destination" : [ "obj-24", 0 ],
													"hidden" : 0,
													"midpoints" : [  ]
												}

											}
, 											{
												"patchline" : 												{
													"source" : [ "obj-23", 0 ],
													"destination" : [ "obj-25", 0 ],
													"hidden" : 0,
													"midpoints" : [  ]
												}

											}
, 											{
												"patchline" : 												{
													"source" : [ "obj-25", 0 ],
													"destination" : [ "obj-24", 1 ],
													"hidden" : 0,
													"midpoints" : [  ]
												}

											}
, 											{
												"patchline" : 												{
													"source" : [ "obj-8", 0 ],
													"destination" : [ "obj-12", 0 ],
													"hidden" : 0,
													"midpoints" : [  ]
												}

											}
, 											{
												"patchline" : 												{
													"source" : [ "obj-12", 0 ],
													"destination" : [ "obj-18", 0 ],
													"hidden" : 0,
													"midpoints" : [  ]
												}

											}
, 											{
												"patchline" : 												{
													"source" : [ "obj-11", 0 ],
													"destination" : [ "obj-8", 1 ],
													"hidden" : 0,
													"midpoints" : [  ]
												}

											}
, 											{
												"patchline" : 												{
													"source" : [ "obj-10", 0 ],
													"destination" : [ "obj-8", 0 ],
													"hidden" : 0,
													"midpoints" : [  ]
												}

											}
, 											{
												"patchline" : 												{
													"source" : [ "obj-7", 0 ],
													"destination" : [ "obj-8", 0 ],
													"hidden" : 0,
													"midpoints" : [  ]
												}

											}
 ]
									}
,
									"saved_object_attributes" : 									{
										"fontface" : 0,
										"fontsize" : 12.0,
										"globalpatchername" : "",
										"default_fontface" : 0,
										"default_fontname" : "Arial",
										"fontname" : "Arial",
										"default_fontsize" : 12.0
									}

								}

							}
, 							{
								"box" : 								{
									"maxclass" : "newobj",
									"text" : "udpsend localhost 8080",
									"id" : "obj-30",
									"fontsize" : 12.0,
									"numinlets" : 1,
									"numoutlets" : 0,
									"fontname" : "Arial",
									"patching_rect" : [ 103.0, 330.0, 137.0, 20.0 ]
								}

							}
, 							{
								"box" : 								{
									"maxclass" : "message",
									"text" : "/pwm_slide_2/led_col $1 $2",
									"id" : "obj-29",
									"fontsize" : 12.0,
									"numinlets" : 2,
									"numoutlets" : 1,
									"fontname" : "Arial",
									"outlettype" : [ "" ],
									"patching_rect" : [ 96.0, 303.0, 159.0, 18.0 ]
								}

							}
, 							{
								"box" : 								{
									"maxclass" : "newobj",
									"text" : "funnel 8",
									"id" : "obj-28",
									"fontsize" : 12.0,
									"numinlets" : 8,
									"numoutlets" : 1,
									"fontname" : "Arial",
									"outlettype" : [ "list" ],
									"patching_rect" : [ 97.0, 274.0, 113.5, 20.0 ]
								}

							}
, 							{
								"box" : 								{
									"maxclass" : "outlet",
									"id" : "obj-17",
									"numinlets" : 1,
									"numoutlets" : 0,
									"patching_rect" : [ 294.0, 325.0, 25.0, 25.0 ],
									"comment" : ""
								}

							}
, 							{
								"box" : 								{
									"maxclass" : "newobj",
									"text" : "scale 1. 16. 0 255",
									"id" : "obj-15",
									"fontsize" : 12.0,
									"numinlets" : 6,
									"numoutlets" : 1,
									"fontname" : "Arial",
									"outlettype" : [ "" ],
									"patching_rect" : [ 291.0, 271.0, 105.0, 20.0 ]
								}

							}
, 							{
								"box" : 								{
									"maxclass" : "newobj",
									"text" : "s 40h-slide-interp-time",
									"id" : "obj-14",
									"fontsize" : 12.0,
									"numinlets" : 1,
									"numoutlets" : 0,
									"fontname" : "Arial",
									"patching_rect" : [ 381.0, 114.0, 129.0, 20.0 ]
								}

							}
, 							{
								"box" : 								{
									"maxclass" : "number",
									"id" : "obj-13",
									"fontsize" : 12.0,
									"numinlets" : 1,
									"numoutlets" : 2,
									"fontname" : "Arial",
									"outlettype" : [ "int", "bang" ],
									"patching_rect" : [ 379.0, 69.0, 50.0, 20.0 ]
								}

							}
, 							{
								"box" : 								{
									"maxclass" : "newobj",
									"text" : "route 0 1 2 3 4 5 6 7",
									"id" : "obj-6",
									"fontsize" : 12.0,
									"numinlets" : 1,
									"numoutlets" : 9,
									"fontname" : "Arial",
									"outlettype" : [ "", "", "", "", "", "", "", "", "" ],
									"patching_rect" : [ 111.0, 161.0, 127.0, 20.0 ]
								}

							}
, 							{
								"box" : 								{
									"maxclass" : "newobj",
									"text" : "gate",
									"id" : "obj-5",
									"fontsize" : 12.0,
									"numinlets" : 2,
									"numoutlets" : 1,
									"fontname" : "Arial",
									"outlettype" : [ "" ],
									"patching_rect" : [ 109.0, 125.0, 34.0, 20.0 ]
								}

							}
, 							{
								"box" : 								{
									"maxclass" : "newobj",
									"text" : "pack",
									"id" : "obj-4",
									"fontsize" : 12.0,
									"numinlets" : 2,
									"numoutlets" : 1,
									"fontname" : "Arial",
									"outlettype" : [ "" ],
									"patching_rect" : [ 109.0, 90.0, 36.0, 20.0 ]
								}

							}
, 							{
								"box" : 								{
									"maxclass" : "newobj",
									"text" : "unpack 0 0 0",
									"id" : "obj-3",
									"fontsize" : 12.0,
									"numinlets" : 1,
									"numoutlets" : 3,
									"fontname" : "Arial",
									"outlettype" : [ "int", "int", "int" ],
									"patching_rect" : [ 108.0, 61.0, 79.0, 20.0 ]
								}

							}
, 							{
								"box" : 								{
									"maxclass" : "inlet",
									"id" : "obj-1",
									"numinlets" : 0,
									"numoutlets" : 1,
									"outlettype" : [ "" ],
									"patching_rect" : [ 106.0, 16.0, 25.0, 25.0 ],
									"comment" : ""
								}

							}
 ],
						"lines" : [ 							{
								"patchline" : 								{
									"source" : [ "obj-10", 0 ],
									"destination" : [ "obj-13", 0 ],
									"hidden" : 0,
									"midpoints" : [  ]
								}

							}
, 							{
								"patchline" : 								{
									"source" : [ "obj-8", 0 ],
									"destination" : [ "obj-28", 2 ],
									"hidden" : 0,
									"midpoints" : [  ]
								}

							}
, 							{
								"patchline" : 								{
									"source" : [ "obj-6", 2 ],
									"destination" : [ "obj-8", 0 ],
									"hidden" : 0,
									"midpoints" : [  ]
								}

							}
, 							{
								"patchline" : 								{
									"source" : [ "obj-13", 0 ],
									"destination" : [ "obj-14", 0 ],
									"hidden" : 0,
									"midpoints" : [  ]
								}

							}
, 							{
								"patchline" : 								{
									"source" : [ "obj-11", 1 ],
									"destination" : [ "obj-28", 4 ],
									"hidden" : 0,
									"midpoints" : [  ]
								}

							}
, 							{
								"patchline" : 								{
									"source" : [ "obj-11", 0 ],
									"destination" : [ "obj-28", 3 ],
									"hidden" : 0,
									"midpoints" : [  ]
								}

							}
, 							{
								"patchline" : 								{
									"source" : [ "obj-6", 4 ],
									"destination" : [ "obj-11", 1 ],
									"hidden" : 0,
									"midpoints" : [  ]
								}

							}
, 							{
								"patchline" : 								{
									"source" : [ "obj-6", 3 ],
									"destination" : [ "obj-11", 0 ],
									"hidden" : 0,
									"midpoints" : [  ]
								}

							}
, 							{
								"patchline" : 								{
									"source" : [ "obj-9", 1 ],
									"destination" : [ "obj-28", 1 ],
									"hidden" : 0,
									"midpoints" : [  ]
								}

							}
, 							{
								"patchline" : 								{
									"source" : [ "obj-9", 0 ],
									"destination" : [ "obj-28", 0 ],
									"hidden" : 0,
									"midpoints" : [  ]
								}

							}
, 							{
								"patchline" : 								{
									"source" : [ "obj-6", 1 ],
									"destination" : [ "obj-9", 1 ],
									"hidden" : 0,
									"midpoints" : [  ]
								}

							}
, 							{
								"patchline" : 								{
									"source" : [ "obj-6", 0 ],
									"destination" : [ "obj-9", 0 ],
									"hidden" : 0,
									"midpoints" : [  ]
								}

							}
, 							{
								"patchline" : 								{
									"source" : [ "obj-9", 2 ],
									"destination" : [ "obj-15", 0 ],
									"hidden" : 0,
									"midpoints" : [  ]
								}

							}
, 							{
								"patchline" : 								{
									"source" : [ "obj-28", 0 ],
									"destination" : [ "obj-29", 0 ],
									"hidden" : 0,
									"midpoints" : [  ]
								}

							}
, 							{
								"patchline" : 								{
									"source" : [ "obj-29", 0 ],
									"destination" : [ "obj-30", 0 ],
									"hidden" : 0,
									"midpoints" : [  ]
								}

							}
, 							{
								"patchline" : 								{
									"source" : [ "obj-1", 0 ],
									"destination" : [ "obj-3", 0 ],
									"hidden" : 0,
									"midpoints" : [  ]
								}

							}
, 							{
								"patchline" : 								{
									"source" : [ "obj-3", 0 ],
									"destination" : [ "obj-4", 0 ],
									"hidden" : 0,
									"midpoints" : [  ]
								}

							}
, 							{
								"patchline" : 								{
									"source" : [ "obj-3", 1 ],
									"destination" : [ "obj-4", 1 ],
									"hidden" : 0,
									"midpoints" : [  ]
								}

							}
, 							{
								"patchline" : 								{
									"source" : [ "obj-4", 0 ],
									"destination" : [ "obj-5", 1 ],
									"hidden" : 0,
									"midpoints" : [  ]
								}

							}
, 							{
								"patchline" : 								{
									"source" : [ "obj-3", 2 ],
									"destination" : [ "obj-5", 0 ],
									"hidden" : 0,
									"midpoints" : [  ]
								}

							}
, 							{
								"patchline" : 								{
									"source" : [ "obj-5", 0 ],
									"destination" : [ "obj-6", 0 ],
									"hidden" : 0,
									"midpoints" : [  ]
								}

							}
, 							{
								"patchline" : 								{
									"source" : [ "obj-15", 0 ],
									"destination" : [ "obj-17", 0 ],
									"hidden" : 0,
									"midpoints" : [  ]
								}

							}
, 							{
								"patchline" : 								{
									"source" : [ "obj-7", 0 ],
									"destination" : [ "obj-18", 0 ],
									"hidden" : 0,
									"midpoints" : [  ]
								}

							}
, 							{
								"patchline" : 								{
									"source" : [ "obj-8", 1 ],
									"destination" : [ "obj-7", 1 ],
									"hidden" : 0,
									"midpoints" : [  ]
								}

							}
, 							{
								"patchline" : 								{
									"source" : [ "obj-20", 0 ],
									"destination" : [ "obj-19", 0 ],
									"hidden" : 0,
									"midpoints" : [  ]
								}

							}
, 							{
								"patchline" : 								{
									"source" : [ "obj-22", 0 ],
									"destination" : [ "obj-21", 0 ],
									"hidden" : 0,
									"midpoints" : [  ]
								}

							}
, 							{
								"patchline" : 								{
									"source" : [ "obj-11", 2 ],
									"destination" : [ "obj-22", 0 ],
									"hidden" : 0,
									"midpoints" : [  ]
								}

							}
, 							{
								"patchline" : 								{
									"source" : [ "obj-6", 5 ],
									"destination" : [ "obj-23", 0 ],
									"hidden" : 0,
									"midpoints" : [  ]
								}

							}
, 							{
								"patchline" : 								{
									"source" : [ "obj-23", 0 ],
									"destination" : [ "obj-28", 5 ],
									"hidden" : 0,
									"midpoints" : [  ]
								}

							}
, 							{
								"patchline" : 								{
									"source" : [ "obj-23", 1 ],
									"destination" : [ "obj-20", 0 ],
									"hidden" : 0,
									"midpoints" : [  ]
								}

							}
 ]
					}
,
					"saved_object_attributes" : 					{
						"fontface" : 0,
						"fontsize" : 12.0,
						"globalpatchername" : "",
						"default_fontface" : 0,
						"default_fontname" : "Arial",
						"fontname" : "Arial",
						"default_fontsize" : 12.0
					}

				}

			}
, 			{
				"box" : 				{
					"maxclass" : "message",
					"text" : "/sys/prefix /pwm_slide_2",
					"id" : "obj-1",
					"fontsize" : 9.0,
					"numinlets" : 2,
					"numoutlets" : 1,
					"fontname" : "Arial",
					"outlettype" : [ "" ],
					"patching_rect" : [ 312.0, 72.0, 109.0, 15.0 ]
				}

			}
, 			{
				"box" : 				{
					"maxclass" : "newobj",
					"text" : "udpsend localhost 8080",
					"id" : "obj-2",
					"fontsize" : 9.0,
					"numinlets" : 1,
					"numoutlets" : 0,
					"fontname" : "Arial",
					"patching_rect" : [ 381.0, 97.0, 115.0, 17.0 ]
				}

			}
, 			{
				"box" : 				{
					"maxclass" : "newobj",
					"text" : "route /pwm_slide_2/press",
					"id" : "obj-3",
					"fontsize" : 9.0,
					"numinlets" : 1,
					"numoutlets" : 2,
					"fontname" : "Arial",
					"outlettype" : [ "", "" ],
					"patching_rect" : [ 44.0, 42.0, 113.0, 17.0 ]
				}

			}
, 			{
				"box" : 				{
					"maxclass" : "newobj",
					"text" : "udpreceive 8000",
					"id" : "obj-4",
					"fontsize" : 9.0,
					"numinlets" : 1,
					"numoutlets" : 1,
					"fontname" : "Arial",
					"outlettype" : [ "" ],
					"patching_rect" : [ 42.0, 19.0, 86.0, 17.0 ]
				}

			}
 ],
		"lines" : [ 			{
				"patchline" : 				{
					"source" : [ "obj-47", 0 ],
					"destination" : [ "obj-10", 0 ],
					"hidden" : 0,
					"midpoints" : [  ]
				}

			}
, 			{
				"patchline" : 				{
					"source" : [ "obj-8", 0 ],
					"destination" : [ "obj-5", 1 ],
					"hidden" : 0,
					"midpoints" : [  ]
				}

			}
, 			{
				"patchline" : 				{
					"source" : [ "obj-7", 0 ],
					"destination" : [ "obj-8", 0 ],
					"hidden" : 0,
					"midpoints" : [  ]
				}

			}
, 			{
				"patchline" : 				{
					"source" : [ "obj-1", 0 ],
					"destination" : [ "obj-2", 0 ],
					"hidden" : 1,
					"midpoints" : [  ]
				}

			}
, 			{
				"patchline" : 				{
					"source" : [ "obj-3", 0 ],
					"destination" : [ "obj-5", 0 ],
					"hidden" : 0,
					"midpoints" : [  ]
				}

			}
, 			{
				"patchline" : 				{
					"source" : [ "obj-4", 0 ],
					"destination" : [ "obj-3", 0 ],
					"hidden" : 1,
					"midpoints" : [  ]
				}

			}
, 			{
				"patchline" : 				{
					"source" : [ "obj-15", 1 ],
					"destination" : [ "obj-9", 0 ],
					"hidden" : 0,
					"midpoints" : [  ]
				}

			}
, 			{
				"patchline" : 				{
					"source" : [ "obj-12", 0 ],
					"destination" : [ "obj-14", 0 ],
					"hidden" : 0,
					"midpoints" : [ 140.5, 365.0, 216.5, 365.0 ]
				}

			}
, 			{
				"patchline" : 				{
					"source" : [ "obj-15", 0 ],
					"destination" : [ "obj-13", 0 ],
					"hidden" : 0,
					"midpoints" : [  ]
				}

			}
, 			{
				"patchline" : 				{
					"source" : [ "obj-13", 0 ],
					"destination" : [ "obj-14", 0 ],
					"hidden" : 0,
					"midpoints" : [  ]
				}

			}
, 			{
				"patchline" : 				{
					"source" : [ "obj-9", 0 ],
					"destination" : [ "obj-14", 0 ],
					"hidden" : 0,
					"midpoints" : [  ]
				}

			}
, 			{
				"patchline" : 				{
					"source" : [ "obj-5", 0 ],
					"destination" : [ "obj-6", 0 ],
					"hidden" : 0,
					"midpoints" : [  ]
				}

			}
, 			{
				"patchline" : 				{
					"source" : [ "obj-6", 0 ],
					"destination" : [ "obj-47", 0 ],
					"hidden" : 0,
					"midpoints" : [  ]
				}

			}
, 			{
				"patchline" : 				{
					"source" : [ "obj-47", 0 ],
					"destination" : [ "obj-14", 0 ],
					"hidden" : 0,
					"midpoints" : [  ]
				}

			}
 ]
	}

}
