{
	"patcher" : 	{
		"fileversion" : 1,
		"rect" : [ 81.0, 79.0, 767.0, 629.0 ],
		"bglocked" : 0,
		"defrect" : [ 81.0, 79.0, 767.0, 629.0 ],
		"openrect" : [ 0.0, 0.0, 0.0, 0.0 ],
		"openinpresentation" : 0,
		"default_fontsize" : 12.0,
		"default_fontface" : 0,
		"default_fontname" : "Arial",
		"gridonopen" : 0,
		"gridsize" : [ 15.0, 15.0 ],
		"gridsnaponopen" : 0,
		"toolbarvisible" : 1,
		"boxanimatetime" : 200,
		"imprint" : 0,
		"enablehscroll" : 1,
		"enablevscroll" : 1,
		"devicewidth" : 0.0,
		"boxes" : [ 			{
				"box" : 				{
					"maxclass" : "newobj",
					"text" : "r reset",
					"fontsize" : 12.0,
					"numinlets" : 0,
					"numoutlets" : 1,
					"patching_rect" : [ 101.0, 342.0, 45.0, 20.0 ],
					"id" : "obj-25",
					"fontname" : "Arial",
					"outlettype" : [ "" ]
				}

			}
, 			{
				"box" : 				{
					"maxclass" : "newobj",
					"text" : "s reset",
					"fontsize" : 12.0,
					"numinlets" : 1,
					"numoutlets" : 0,
					"patching_rect" : [ 161.0, 554.0, 47.0, 20.0 ],
					"id" : "obj-24",
					"fontname" : "Arial"
				}

			}
, 			{
				"box" : 				{
					"maxclass" : "message",
					"text" : "1",
					"fontsize" : 12.0,
					"numinlets" : 2,
					"numoutlets" : 1,
					"patching_rect" : [ 165.0, 524.0, 32.5, 18.0 ],
					"id" : "obj-22",
					"fontname" : "Arial",
					"outlettype" : [ "" ]
				}

			}
, 			{
				"box" : 				{
					"maxclass" : "message",
					"text" : "bang",
					"fontsize" : 12.0,
					"numinlets" : 2,
					"numoutlets" : 1,
					"patching_rect" : [ 162.0, 499.0, 37.0, 18.0 ],
					"id" : "obj-17",
					"fontname" : "Arial",
					"outlettype" : [ "" ]
				}

			}
, 			{
				"box" : 				{
					"maxclass" : "newobj",
					"text" : "bondo 4 n",
					"fontsize" : 12.0,
					"numinlets" : 4,
					"numoutlets" : 4,
					"patching_rect" : [ 129.0, 373.0, 64.0, 20.0 ],
					"id" : "obj-20",
					"fontname" : "Arial",
					"outlettype" : [ "", "", "", "" ]
				}

			}
, 			{
				"box" : 				{
					"maxclass" : "number",
					"fontsize" : 12.0,
					"numinlets" : 1,
					"numoutlets" : 2,
					"patching_rect" : [ 31.0, 322.0, 50.0, 20.0 ],
					"id" : "obj-19",
					"fontname" : "Arial",
					"outlettype" : [ "int", "bang" ]
				}

			}
, 			{
				"box" : 				{
					"maxclass" : "newobj",
					"text" : "print",
					"fontsize" : 12.0,
					"numinlets" : 1,
					"numoutlets" : 0,
					"patching_rect" : [ 327.0, 458.0, 34.0, 20.0 ],
					"id" : "obj-11",
					"fontname" : "Arial"
				}

			}
, 			{
				"box" : 				{
					"maxclass" : "number",
					"fontsize" : 12.0,
					"numinlets" : 1,
					"numoutlets" : 2,
					"patching_rect" : [ 103.0, 313.0, 50.0, 20.0 ],
					"id" : "obj-10",
					"fontname" : "Arial",
					"outlettype" : [ "int", "bang" ]
				}

			}
, 			{
				"box" : 				{
					"maxclass" : "number",
					"fontsize" : 12.0,
					"numinlets" : 1,
					"numoutlets" : 2,
					"patching_rect" : [ 231.0, 309.0, 50.0, 20.0 ],
					"id" : "obj-23",
					"fontname" : "Arial",
					"outlettype" : [ "int", "bang" ]
				}

			}
, 			{
				"box" : 				{
					"maxclass" : "number",
					"fontsize" : 12.0,
					"numinlets" : 1,
					"numoutlets" : 2,
					"patching_rect" : [ 171.0, 307.0, 50.0, 20.0 ],
					"id" : "obj-21",
					"fontname" : "Arial",
					"outlettype" : [ "int", "bang" ]
				}

			}
, 			{
				"box" : 				{
					"maxclass" : "multislider",
					"candicane7" : [ 0.878431, 0.243137, 0.145098, 1.0 ],
					"setminmax" : [ 1.0, 100.0 ],
					"candicane6" : [ 0.733333, 0.035294, 0.788235, 1.0 ],
					"numinlets" : 1,
					"contdata" : 1,
					"candicane5" : [ 0.584314, 0.827451, 0.431373, 1.0 ],
					"numoutlets" : 2,
					"bgcolor" : [ 0.74902, 0.909804, 1.0, 1.0 ],
					"patching_rect" : [ 204.0, 105.0, 32.0, 188.0 ],
					"slidercolor" : [ 0.482353, 0.482353, 0.482353, 1.0 ],
					"id" : "obj-18",
					"settype" : 0,
					"candicane4" : [ 0.439216, 0.619608, 0.070588, 1.0 ],
					"outlettype" : [ "", "" ],
					"setstyle" : 1,
					"peakcolor" : [ 0.482353, 0.482353, 0.482353, 1.0 ],
					"candicane3" : [ 0.290196, 0.411765, 0.713726, 1.0 ],
					"candicane8" : [ 0.027451, 0.447059, 0.501961, 1.0 ],
					"bordercolor" : [ 0.482353, 0.482353, 0.482353, 1.0 ],
					"candicane2" : [ 0.482353, 0.482353, 0.482353, 1.0 ]
				}

			}
, 			{
				"box" : 				{
					"maxclass" : "multislider",
					"candicane7" : [ 0.878431, 0.243137, 0.145098, 1.0 ],
					"setminmax" : [ 1.0, 255.0 ],
					"candicane6" : [ 0.733333, 0.035294, 0.788235, 1.0 ],
					"numinlets" : 1,
					"contdata" : 1,
					"candicane5" : [ 0.584314, 0.827451, 0.431373, 1.0 ],
					"numoutlets" : 2,
					"bgcolor" : [ 0.74902, 0.909804, 1.0, 1.0 ],
					"patching_rect" : [ 161.0, 105.0, 32.0, 188.0 ],
					"slidercolor" : [ 0.482353, 0.482353, 0.482353, 1.0 ],
					"id" : "obj-6",
					"settype" : 0,
					"candicane4" : [ 0.439216, 0.619608, 0.070588, 1.0 ],
					"outlettype" : [ "", "" ],
					"setstyle" : 1,
					"peakcolor" : [ 0.482353, 0.482353, 0.482353, 1.0 ],
					"candicane3" : [ 0.290196, 0.411765, 0.713726, 1.0 ],
					"candicane8" : [ 0.027451, 0.447059, 0.501961, 1.0 ],
					"bordercolor" : [ 0.482353, 0.482353, 0.482353, 1.0 ],
					"candicane2" : [ 0.482353, 0.482353, 0.482353, 1.0 ]
				}

			}
, 			{
				"box" : 				{
					"maxclass" : "number",
					"fontsize" : 12.0,
					"numinlets" : 1,
					"numoutlets" : 2,
					"patching_rect" : [ 170.0, 41.0, 50.0, 20.0 ],
					"id" : "obj-8",
					"fontname" : "Arial",
					"outlettype" : [ "int", "bang" ]
				}

			}
, 			{
				"box" : 				{
					"maxclass" : "newobj",
					"text" : "loadmess 500",
					"fontsize" : 12.0,
					"numinlets" : 1,
					"numoutlets" : 1,
					"patching_rect" : [ 196.0, 13.0, 85.0, 20.0 ],
					"id" : "obj-7",
					"fontname" : "Arial",
					"outlettype" : [ "" ]
				}

			}
, 			{
				"box" : 				{
					"maxclass" : "multislider",
					"candicane7" : [ 0.878431, 0.243137, 0.145098, 1.0 ],
					"setminmax" : [ 1.0, 255.0 ],
					"candicane6" : [ 0.733333, 0.035294, 0.788235, 1.0 ],
					"numinlets" : 1,
					"contdata" : 1,
					"candicane5" : [ 0.584314, 0.827451, 0.431373, 1.0 ],
					"numoutlets" : 2,
					"bgcolor" : [ 0.74902, 0.909804, 1.0, 1.0 ],
					"patching_rect" : [ 115.0, 105.0, 32.0, 188.0 ],
					"slidercolor" : [ 0.482353, 0.482353, 0.482353, 1.0 ],
					"id" : "obj-47",
					"settype" : 0,
					"candicane4" : [ 0.439216, 0.619608, 0.070588, 1.0 ],
					"outlettype" : [ "", "" ],
					"setstyle" : 1,
					"peakcolor" : [ 0.482353, 0.482353, 0.482353, 1.0 ],
					"candicane3" : [ 0.290196, 0.411765, 0.713726, 1.0 ],
					"candicane8" : [ 0.027451, 0.447059, 0.501961, 1.0 ],
					"bordercolor" : [ 0.482353, 0.482353, 0.482353, 1.0 ],
					"candicane2" : [ 0.482353, 0.482353, 0.482353, 1.0 ]
				}

			}
, 			{
				"box" : 				{
					"maxclass" : "message",
					"text" : "port a",
					"fontsize" : 12.0,
					"numinlets" : 2,
					"numoutlets" : 1,
					"patching_rect" : [ 137.0, 453.0, 41.0, 18.0 ],
					"id" : "obj-9",
					"fontname" : "Arial",
					"outlettype" : [ "" ]
				}

			}
, 			{
				"box" : 				{
					"maxclass" : "newobj",
					"text" : "select 0 1",
					"fontsize" : 12.0,
					"numinlets" : 1,
					"numoutlets" : 3,
					"patching_rect" : [ 85.0, 425.0, 62.0, 20.0 ],
					"id" : "obj-15",
					"fontname" : "Arial",
					"outlettype" : [ "bang", "bang", "" ]
				}

			}
, 			{
				"box" : 				{
					"maxclass" : "message",
					"text" : "close",
					"fontsize" : 12.0,
					"numinlets" : 2,
					"numoutlets" : 1,
					"patching_rect" : [ 111.0, 473.0, 39.0, 18.0 ],
					"id" : "obj-13",
					"fontname" : "Arial",
					"outlettype" : [ "" ]
				}

			}
, 			{
				"box" : 				{
					"maxclass" : "message",
					"text" : "print",
					"fontsize" : 9.0,
					"numinlets" : 2,
					"numoutlets" : 1,
					"patching_rect" : [ 157.0, 428.0, 32.0, 15.0 ],
					"id" : "obj-12",
					"fontname" : "Arial",
					"outlettype" : [ "" ]
				}

			}
, 			{
				"box" : 				{
					"maxclass" : "newobj",
					"text" : "serial a 9600",
					"fontsize" : 9.0,
					"numinlets" : 1,
					"numoutlets" : 2,
					"patching_rect" : [ 210.0, 438.0, 62.0, 17.0 ],
					"id" : "obj-14",
					"fontname" : "Arial",
					"outlettype" : [ "int", "" ]
				}

			}
, 			{
				"box" : 				{
					"maxclass" : "comment",
					"text" : "Slide the fader to change output Votage \non POT 1",
					"linecount" : 3,
					"fontsize" : 9.0,
					"numinlets" : 1,
					"numoutlets" : 0,
					"patching_rect" : [ 5.0, 169.0, 105.0, 38.0 ],
					"id" : "obj-16",
					"fontname" : "Arial"
				}

			}
, 			{
				"box" : 				{
					"maxclass" : "newobj",
					"text" : "p slides",
					"fontsize" : 12.0,
					"numinlets" : 2,
					"numoutlets" : 3,
					"patching_rect" : [ 124.0, 63.0, 51.0, 20.0 ],
					"id" : "obj-5",
					"fontname" : "Arial",
					"outlettype" : [ "", "", "" ],
					"patcher" : 					{
						"fileversion" : 1,
						"rect" : [ 377.0, 160.0, 770.0, 411.0 ],
						"bglocked" : 0,
						"defrect" : [ 377.0, 160.0, 770.0, 411.0 ],
						"openrect" : [ 0.0, 0.0, 0.0, 0.0 ],
						"openinpresentation" : 0,
						"default_fontsize" : 12.0,
						"default_fontface" : 0,
						"default_fontname" : "Arial",
						"gridonopen" : 0,
						"gridsize" : [ 15.0, 15.0 ],
						"gridsnaponopen" : 0,
						"toolbarvisible" : 1,
						"boxanimatetime" : 200,
						"imprint" : 0,
						"enablehscroll" : 1,
						"enablevscroll" : 1,
						"devicewidth" : 0.0,
						"boxes" : [ 							{
								"box" : 								{
									"maxclass" : "newobj",
									"text" : "p doubleslide",
									"fontsize" : 12.0,
									"numinlets" : 2,
									"numoutlets" : 3,
									"patching_rect" : [ 110.0, 202.0, 81.0, 20.0 ],
									"id" : "obj-16",
									"fontname" : "Arial",
									"outlettype" : [ "int", "int", "" ],
									"patcher" : 									{
										"fileversion" : 1,
										"rect" : [ 423.0, 44.0, 559.0, 795.0 ],
										"bglocked" : 0,
										"defrect" : [ 423.0, 44.0, 559.0, 795.0 ],
										"openrect" : [ 0.0, 0.0, 0.0, 0.0 ],
										"openinpresentation" : 0,
										"default_fontsize" : 12.0,
										"default_fontface" : 0,
										"default_fontname" : "Arial",
										"gridonopen" : 0,
										"gridsize" : [ 15.0, 15.0 ],
										"gridsnaponopen" : 0,
										"toolbarvisible" : 1,
										"boxanimatetime" : 200,
										"imprint" : 0,
										"enablehscroll" : 1,
										"enablevscroll" : 1,
										"devicewidth" : 0.0,
										"boxes" : [ 											{
												"box" : 												{
													"maxclass" : "inlet",
													"numinlets" : 0,
													"numoutlets" : 1,
													"patching_rect" : [ 167.0, 136.0, 25.0, 25.0 ],
													"id" : "obj-4",
													"outlettype" : [ "" ],
													"comment" : ""
												}

											}
, 											{
												"box" : 												{
													"maxclass" : "inlet",
													"numinlets" : 0,
													"numoutlets" : 1,
													"patching_rect" : [ 61.0, 141.0, 25.0, 25.0 ],
													"id" : "obj-3",
													"outlettype" : [ "" ],
													"comment" : ""
												}

											}
, 											{
												"box" : 												{
													"maxclass" : "outlet",
													"numinlets" : 1,
													"numoutlets" : 0,
													"patching_rect" : [ 141.0, 675.0, 25.0, 25.0 ],
													"id" : "obj-2",
													"comment" : ""
												}

											}
, 											{
												"box" : 												{
													"maxclass" : "outlet",
													"numinlets" : 1,
													"numoutlets" : 0,
													"patching_rect" : [ 100.0, 670.0, 25.0, 25.0 ],
													"id" : "obj-1",
													"comment" : ""
												}

											}
, 											{
												"box" : 												{
													"maxclass" : "newobj",
													"text" : "if $i1 <9 then 0",
													"fontsize" : 12.0,
													"numinlets" : 1,
													"numoutlets" : 1,
													"patching_rect" : [ 184.0, 435.0, 90.0, 20.0 ],
													"id" : "obj-87",
													"fontname" : "Arial",
													"outlettype" : [ "" ]
												}

											}
, 											{
												"box" : 												{
													"maxclass" : "newobj",
													"text" : "- 8",
													"fontsize" : 12.0,
													"numinlets" : 2,
													"numoutlets" : 1,
													"patching_rect" : [ 302.0, 456.0, 32.5, 20.0 ],
													"id" : "obj-85",
													"fontname" : "Arial",
													"outlettype" : [ "int" ]
												}

											}
, 											{
												"box" : 												{
													"maxclass" : "newobj",
													"text" : "if $i1 < 9 then $i1 else out2 $i1",
													"fontsize" : 12.0,
													"numinlets" : 1,
													"numoutlets" : 2,
													"patching_rect" : [ 63.0, 403.0, 174.0, 20.0 ],
													"id" : "obj-82",
													"fontname" : "Arial",
													"outlettype" : [ "", "" ]
												}

											}
, 											{
												"box" : 												{
													"maxclass" : "newobj",
													"text" : "expr pow(2\\,($i1))",
													"fontsize" : 12.0,
													"numinlets" : 1,
													"numoutlets" : 1,
													"patching_rect" : [ 393.0, 604.0, 105.0, 20.0 ],
													"id" : "obj-73",
													"fontname" : "Arial",
													"outlettype" : [ "" ]
												}

											}
, 											{
												"box" : 												{
													"maxclass" : "newobj",
													"text" : "accum",
													"fontsize" : 12.0,
													"numinlets" : 3,
													"numoutlets" : 1,
													"patching_rect" : [ 323.0, 630.0, 46.0, 20.0 ],
													"id" : "obj-74",
													"fontname" : "Arial",
													"outlettype" : [ "int" ]
												}

											}
, 											{
												"box" : 												{
													"maxclass" : "newobj",
													"text" : "expr abs($i1-8)",
													"fontsize" : 12.0,
													"numinlets" : 1,
													"numoutlets" : 1,
													"patching_rect" : [ 394.0, 566.0, 91.0, 20.0 ],
													"id" : "obj-75",
													"fontname" : "Arial",
													"outlettype" : [ "" ]
												}

											}
, 											{
												"box" : 												{
													"maxclass" : "newobj",
													"text" : "uzi",
													"fontsize" : 12.0,
													"numinlets" : 2,
													"numoutlets" : 3,
													"patching_rect" : [ 286.0, 569.0, 46.0, 20.0 ],
													"id" : "obj-76",
													"fontname" : "Arial",
													"outlettype" : [ "bang", "bang", "int" ]
												}

											}
, 											{
												"box" : 												{
													"maxclass" : "message",
													"text" : "set 0",
													"fontsize" : 12.0,
													"numinlets" : 2,
													"numoutlets" : 1,
													"patching_rect" : [ 393.0, 530.0, 37.0, 18.0 ],
													"id" : "obj-77",
													"fontname" : "Arial",
													"outlettype" : [ "" ]
												}

											}
, 											{
												"box" : 												{
													"maxclass" : "newobj",
													"text" : "change",
													"fontsize" : 12.0,
													"numinlets" : 1,
													"numoutlets" : 3,
													"patching_rect" : [ 321.0, 521.0, 50.0, 20.0 ],
													"id" : "obj-78",
													"fontname" : "Arial",
													"outlettype" : [ "", "int", "int" ]
												}

											}
, 											{
												"box" : 												{
													"maxclass" : "newobj",
													"text" : "t i b",
													"fontsize" : 12.0,
													"numinlets" : 1,
													"numoutlets" : 2,
													"patching_rect" : [ 322.0, 488.0, 32.5, 20.0 ],
													"id" : "obj-79",
													"fontname" : "Arial",
													"outlettype" : [ "int", "bang" ]
												}

											}
, 											{
												"box" : 												{
													"maxclass" : "newobj",
													"text" : "expr pow(2\\,($i1))",
													"fontsize" : 12.0,
													"numinlets" : 1,
													"numoutlets" : 1,
													"patching_rect" : [ 169.0, 575.0, 105.0, 20.0 ],
													"id" : "obj-25",
													"fontname" : "Arial",
													"outlettype" : [ "" ]
												}

											}
, 											{
												"box" : 												{
													"maxclass" : "newobj",
													"text" : "accum",
													"fontsize" : 12.0,
													"numinlets" : 3,
													"numoutlets" : 1,
													"patching_rect" : [ 99.0, 601.0, 46.0, 20.0 ],
													"id" : "obj-24",
													"fontname" : "Arial",
													"outlettype" : [ "int" ]
												}

											}
, 											{
												"box" : 												{
													"maxclass" : "newobj",
													"text" : "expr abs($i1-8)",
													"fontsize" : 12.0,
													"numinlets" : 1,
													"numoutlets" : 1,
													"patching_rect" : [ 170.0, 537.0, 91.0, 20.0 ],
													"id" : "obj-23",
													"fontname" : "Arial",
													"outlettype" : [ "" ]
												}

											}
, 											{
												"box" : 												{
													"maxclass" : "newobj",
													"text" : "uzi",
													"fontsize" : 12.0,
													"numinlets" : 2,
													"numoutlets" : 3,
													"patching_rect" : [ 62.0, 540.0, 46.0, 20.0 ],
													"id" : "obj-22",
													"fontname" : "Arial",
													"outlettype" : [ "bang", "bang", "int" ]
												}

											}
, 											{
												"box" : 												{
													"maxclass" : "message",
													"text" : "set 0",
													"fontsize" : 12.0,
													"numinlets" : 2,
													"numoutlets" : 1,
													"patching_rect" : [ 169.0, 501.0, 37.0, 18.0 ],
													"id" : "obj-21",
													"fontname" : "Arial",
													"outlettype" : [ "" ]
												}

											}
, 											{
												"box" : 												{
													"maxclass" : "newobj",
													"text" : "change",
													"fontsize" : 12.0,
													"numinlets" : 1,
													"numoutlets" : 3,
													"patching_rect" : [ 97.0, 492.0, 50.0, 20.0 ],
													"id" : "obj-20",
													"fontname" : "Arial",
													"outlettype" : [ "", "int", "int" ]
												}

											}
, 											{
												"box" : 												{
													"maxclass" : "newobj",
													"text" : "t i b",
													"fontsize" : 12.0,
													"numinlets" : 1,
													"numoutlets" : 2,
													"patching_rect" : [ 98.0, 459.0, 32.5, 20.0 ],
													"id" : "obj-19",
													"fontname" : "Arial",
													"outlettype" : [ "int", "bang" ]
												}

											}
, 											{
												"box" : 												{
													"maxclass" : "number",
													"fontsize" : 12.0,
													"numinlets" : 1,
													"numoutlets" : 2,
													"patching_rect" : [ 96.0, 361.0, 50.0, 20.0 ],
													"id" : "obj-18",
													"fontname" : "Arial",
													"outlettype" : [ "int", "bang" ]
												}

											}
, 											{
												"box" : 												{
													"maxclass" : "outlet",
													"numinlets" : 1,
													"numoutlets" : 0,
													"patching_rect" : [ 256.0, 344.0, 25.0, 25.0 ],
													"id" : "obj-17",
													"comment" : ""
												}

											}
, 											{
												"box" : 												{
													"maxclass" : "newobj",
													"text" : "line 0. 10",
													"fontsize" : 12.0,
													"numinlets" : 3,
													"numoutlets" : 2,
													"patching_rect" : [ 97.0, 333.0, 59.0, 20.0 ],
													"id" : "obj-12",
													"fontname" : "Arial",
													"outlettype" : [ "", "" ]
												}

											}
, 											{
												"box" : 												{
													"maxclass" : "newobj",
													"text" : "r 40h-slide-interp-time",
													"fontsize" : 12.0,
													"numinlets" : 0,
													"numoutlets" : 1,
													"patching_rect" : [ 265.0, 230.0, 127.0, 20.0 ],
													"id" : "obj-11",
													"fontname" : "Arial",
													"outlettype" : [ "" ]
												}

											}
, 											{
												"box" : 												{
													"maxclass" : "newobj",
													"text" : "expr abs($i1 - 16)",
													"fontsize" : 12.0,
													"numinlets" : 1,
													"numoutlets" : 1,
													"patching_rect" : [ 160.0, 222.0, 105.0, 20.0 ],
													"id" : "obj-10",
													"fontname" : "Arial",
													"outlettype" : [ "" ]
												}

											}
, 											{
												"box" : 												{
													"maxclass" : "newobj",
													"text" : "pack 0 0",
													"fontsize" : 12.0,
													"numinlets" : 2,
													"numoutlets" : 1,
													"patching_rect" : [ 119.0, 276.0, 56.0, 20.0 ],
													"id" : "obj-8",
													"fontname" : "Arial",
													"outlettype" : [ "" ]
												}

											}
, 											{
												"box" : 												{
													"maxclass" : "newobj",
													"text" : "expr abs($i1 - 8)",
													"fontsize" : 12.0,
													"numinlets" : 1,
													"numoutlets" : 1,
													"patching_rect" : [ 55.0, 223.0, 98.0, 20.0 ],
													"id" : "obj-7",
													"fontname" : "Arial",
													"outlettype" : [ "" ]
												}

											}
 ],
										"lines" : [ 											{
												"patchline" : 												{
													"source" : [ "obj-12", 0 ],
													"destination" : [ "obj-17", 0 ],
													"hidden" : 0,
													"midpoints" : [  ]
												}

											}
, 											{
												"patchline" : 												{
													"source" : [ "obj-4", 0 ],
													"destination" : [ "obj-10", 0 ],
													"hidden" : 0,
													"midpoints" : [  ]
												}

											}
, 											{
												"patchline" : 												{
													"source" : [ "obj-3", 0 ],
													"destination" : [ "obj-7", 0 ],
													"hidden" : 0,
													"midpoints" : [  ]
												}

											}
, 											{
												"patchline" : 												{
													"source" : [ "obj-74", 0 ],
													"destination" : [ "obj-2", 0 ],
													"hidden" : 0,
													"midpoints" : [  ]
												}

											}
, 											{
												"patchline" : 												{
													"source" : [ "obj-24", 0 ],
													"destination" : [ "obj-1", 0 ],
													"hidden" : 0,
													"midpoints" : [  ]
												}

											}
, 											{
												"patchline" : 												{
													"source" : [ "obj-87", 0 ],
													"destination" : [ "obj-79", 0 ],
													"hidden" : 0,
													"midpoints" : [  ]
												}

											}
, 											{
												"patchline" : 												{
													"source" : [ "obj-18", 0 ],
													"destination" : [ "obj-87", 0 ],
													"hidden" : 0,
													"midpoints" : [  ]
												}

											}
, 											{
												"patchline" : 												{
													"source" : [ "obj-85", 0 ],
													"destination" : [ "obj-79", 0 ],
													"hidden" : 0,
													"midpoints" : [  ]
												}

											}
, 											{
												"patchline" : 												{
													"source" : [ "obj-82", 1 ],
													"destination" : [ "obj-85", 0 ],
													"hidden" : 0,
													"midpoints" : [  ]
												}

											}
, 											{
												"patchline" : 												{
													"source" : [ "obj-82", 0 ],
													"destination" : [ "obj-19", 0 ],
													"hidden" : 0,
													"midpoints" : [  ]
												}

											}
, 											{
												"patchline" : 												{
													"source" : [ "obj-18", 0 ],
													"destination" : [ "obj-82", 0 ],
													"hidden" : 0,
													"midpoints" : [  ]
												}

											}
, 											{
												"patchline" : 												{
													"source" : [ "obj-73", 0 ],
													"destination" : [ "obj-74", 1 ],
													"hidden" : 0,
													"midpoints" : [  ]
												}

											}
, 											{
												"patchline" : 												{
													"source" : [ "obj-75", 0 ],
													"destination" : [ "obj-73", 0 ],
													"hidden" : 0,
													"midpoints" : [  ]
												}

											}
, 											{
												"patchline" : 												{
													"source" : [ "obj-76", 1 ],
													"destination" : [ "obj-74", 0 ],
													"hidden" : 0,
													"midpoints" : [  ]
												}

											}
, 											{
												"patchline" : 												{
													"source" : [ "obj-77", 0 ],
													"destination" : [ "obj-74", 0 ],
													"hidden" : 0,
													"midpoints" : [  ]
												}

											}
, 											{
												"patchline" : 												{
													"source" : [ "obj-76", 2 ],
													"destination" : [ "obj-75", 0 ],
													"hidden" : 0,
													"midpoints" : [  ]
												}

											}
, 											{
												"patchline" : 												{
													"source" : [ "obj-78", 0 ],
													"destination" : [ "obj-76", 0 ],
													"hidden" : 0,
													"midpoints" : [  ]
												}

											}
, 											{
												"patchline" : 												{
													"source" : [ "obj-79", 1 ],
													"destination" : [ "obj-77", 0 ],
													"hidden" : 0,
													"midpoints" : [  ]
												}

											}
, 											{
												"patchline" : 												{
													"source" : [ "obj-79", 0 ],
													"destination" : [ "obj-78", 0 ],
													"hidden" : 0,
													"midpoints" : [  ]
												}

											}
, 											{
												"patchline" : 												{
													"source" : [ "obj-19", 0 ],
													"destination" : [ "obj-20", 0 ],
													"hidden" : 0,
													"midpoints" : [  ]
												}

											}
, 											{
												"patchline" : 												{
													"source" : [ "obj-19", 1 ],
													"destination" : [ "obj-21", 0 ],
													"hidden" : 0,
													"midpoints" : [  ]
												}

											}
, 											{
												"patchline" : 												{
													"source" : [ "obj-20", 0 ],
													"destination" : [ "obj-22", 0 ],
													"hidden" : 0,
													"midpoints" : [  ]
												}

											}
, 											{
												"patchline" : 												{
													"source" : [ "obj-22", 2 ],
													"destination" : [ "obj-23", 0 ],
													"hidden" : 0,
													"midpoints" : [  ]
												}

											}
, 											{
												"patchline" : 												{
													"source" : [ "obj-21", 0 ],
													"destination" : [ "obj-24", 0 ],
													"hidden" : 0,
													"midpoints" : [  ]
												}

											}
, 											{
												"patchline" : 												{
													"source" : [ "obj-22", 1 ],
													"destination" : [ "obj-24", 0 ],
													"hidden" : 0,
													"midpoints" : [  ]
												}

											}
, 											{
												"patchline" : 												{
													"source" : [ "obj-23", 0 ],
													"destination" : [ "obj-25", 0 ],
													"hidden" : 0,
													"midpoints" : [  ]
												}

											}
, 											{
												"patchline" : 												{
													"source" : [ "obj-25", 0 ],
													"destination" : [ "obj-24", 1 ],
													"hidden" : 0,
													"midpoints" : [  ]
												}

											}
, 											{
												"patchline" : 												{
													"source" : [ "obj-8", 0 ],
													"destination" : [ "obj-12", 0 ],
													"hidden" : 0,
													"midpoints" : [  ]
												}

											}
, 											{
												"patchline" : 												{
													"source" : [ "obj-12", 0 ],
													"destination" : [ "obj-18", 0 ],
													"hidden" : 0,
													"midpoints" : [  ]
												}

											}
, 											{
												"patchline" : 												{
													"source" : [ "obj-11", 0 ],
													"destination" : [ "obj-8", 1 ],
													"hidden" : 0,
													"midpoints" : [  ]
												}

											}
, 											{
												"patchline" : 												{
													"source" : [ "obj-10", 0 ],
													"destination" : [ "obj-8", 0 ],
													"hidden" : 0,
													"midpoints" : [  ]
												}

											}
, 											{
												"patchline" : 												{
													"source" : [ "obj-7", 0 ],
													"destination" : [ "obj-8", 0 ],
													"hidden" : 0,
													"midpoints" : [  ]
												}

											}
 ]
									}
,
									"saved_object_attributes" : 									{
										"fontsize" : 12.0,
										"default_fontface" : 0,
										"default_fontname" : "Arial",
										"fontname" : "Arial",
										"default_fontsize" : 12.0,
										"globalpatchername" : "",
										"fontface" : 0
									}

								}

							}
, 							{
								"box" : 								{
									"maxclass" : "outlet",
									"numinlets" : 1,
									"numoutlets" : 0,
									"patching_rect" : [ 410.0, 324.0, 25.0, 25.0 ],
									"id" : "obj-18",
									"comment" : ""
								}

							}
, 							{
								"box" : 								{
									"maxclass" : "newobj",
									"text" : "scale 1. 16. 1 255",
									"fontsize" : 12.0,
									"numinlets" : 6,
									"numoutlets" : 1,
									"patching_rect" : [ 407.0, 270.0, 105.0, 20.0 ],
									"id" : "obj-19",
									"fontname" : "Arial",
									"outlettype" : [ "" ]
								}

							}
, 							{
								"box" : 								{
									"maxclass" : "newobj",
									"text" : "p doubleslide",
									"fontsize" : 12.0,
									"numinlets" : 2,
									"numoutlets" : 3,
									"patching_rect" : [ 194.0, 201.0, 81.0, 20.0 ],
									"id" : "obj-8",
									"fontname" : "Arial",
									"outlettype" : [ "int", "int", "" ],
									"patcher" : 									{
										"fileversion" : 1,
										"rect" : [ 2533.0, -47.0, 559.0, 795.0 ],
										"bglocked" : 0,
										"defrect" : [ 2533.0, -47.0, 559.0, 795.0 ],
										"openrect" : [ 0.0, 0.0, 0.0, 0.0 ],
										"openinpresentation" : 0,
										"default_fontsize" : 12.0,
										"default_fontface" : 0,
										"default_fontname" : "Arial",
										"gridonopen" : 0,
										"gridsize" : [ 15.0, 15.0 ],
										"gridsnaponopen" : 0,
										"toolbarvisible" : 1,
										"boxanimatetime" : 200,
										"imprint" : 0,
										"enablehscroll" : 1,
										"enablevscroll" : 1,
										"devicewidth" : 0.0,
										"boxes" : [ 											{
												"box" : 												{
													"maxclass" : "inlet",
													"numinlets" : 0,
													"numoutlets" : 1,
													"patching_rect" : [ 167.0, 136.0, 25.0, 25.0 ],
													"id" : "obj-4",
													"outlettype" : [ "" ],
													"comment" : ""
												}

											}
, 											{
												"box" : 												{
													"maxclass" : "inlet",
													"numinlets" : 0,
													"numoutlets" : 1,
													"patching_rect" : [ 61.0, 141.0, 25.0, 25.0 ],
													"id" : "obj-3",
													"outlettype" : [ "" ],
													"comment" : ""
												}

											}
, 											{
												"box" : 												{
													"maxclass" : "outlet",
													"numinlets" : 1,
													"numoutlets" : 0,
													"patching_rect" : [ 141.0, 675.0, 25.0, 25.0 ],
													"id" : "obj-2",
													"comment" : ""
												}

											}
, 											{
												"box" : 												{
													"maxclass" : "outlet",
													"numinlets" : 1,
													"numoutlets" : 0,
													"patching_rect" : [ 100.0, 670.0, 25.0, 25.0 ],
													"id" : "obj-1",
													"comment" : ""
												}

											}
, 											{
												"box" : 												{
													"maxclass" : "newobj",
													"text" : "if $i1 <9 then 0",
													"fontsize" : 12.0,
													"numinlets" : 1,
													"numoutlets" : 1,
													"patching_rect" : [ 184.0, 435.0, 90.0, 20.0 ],
													"id" : "obj-87",
													"fontname" : "Arial",
													"outlettype" : [ "" ]
												}

											}
, 											{
												"box" : 												{
													"maxclass" : "newobj",
													"text" : "- 8",
													"fontsize" : 12.0,
													"numinlets" : 2,
													"numoutlets" : 1,
													"patching_rect" : [ 302.0, 456.0, 32.5, 20.0 ],
													"id" : "obj-85",
													"fontname" : "Arial",
													"outlettype" : [ "int" ]
												}

											}
, 											{
												"box" : 												{
													"maxclass" : "newobj",
													"text" : "if $i1 < 9 then $i1 else out2 $i1",
													"fontsize" : 12.0,
													"numinlets" : 1,
													"numoutlets" : 2,
													"patching_rect" : [ 63.0, 403.0, 174.0, 20.0 ],
													"id" : "obj-82",
													"fontname" : "Arial",
													"outlettype" : [ "", "" ]
												}

											}
, 											{
												"box" : 												{
													"maxclass" : "newobj",
													"text" : "expr pow(2\\,($i1))",
													"fontsize" : 12.0,
													"numinlets" : 1,
													"numoutlets" : 1,
													"patching_rect" : [ 393.0, 604.0, 105.0, 20.0 ],
													"id" : "obj-73",
													"fontname" : "Arial",
													"outlettype" : [ "" ]
												}

											}
, 											{
												"box" : 												{
													"maxclass" : "newobj",
													"text" : "accum",
													"fontsize" : 12.0,
													"numinlets" : 3,
													"numoutlets" : 1,
													"patching_rect" : [ 323.0, 630.0, 46.0, 20.0 ],
													"id" : "obj-74",
													"fontname" : "Arial",
													"outlettype" : [ "int" ]
												}

											}
, 											{
												"box" : 												{
													"maxclass" : "newobj",
													"text" : "expr abs($i1-8)",
													"fontsize" : 12.0,
													"numinlets" : 1,
													"numoutlets" : 1,
													"patching_rect" : [ 394.0, 566.0, 91.0, 20.0 ],
													"id" : "obj-75",
													"fontname" : "Arial",
													"outlettype" : [ "" ]
												}

											}
, 											{
												"box" : 												{
													"maxclass" : "newobj",
													"text" : "uzi",
													"fontsize" : 12.0,
													"numinlets" : 2,
													"numoutlets" : 3,
													"patching_rect" : [ 286.0, 569.0, 46.0, 20.0 ],
													"id" : "obj-76",
													"fontname" : "Arial",
													"outlettype" : [ "bang", "bang", "int" ]
												}

											}
, 											{
												"box" : 												{
													"maxclass" : "message",
													"text" : "set 0",
													"fontsize" : 12.0,
													"numinlets" : 2,
													"numoutlets" : 1,
													"patching_rect" : [ 393.0, 530.0, 37.0, 18.0 ],
													"id" : "obj-77",
													"fontname" : "Arial",
													"outlettype" : [ "" ]
												}

											}
, 											{
												"box" : 												{
													"maxclass" : "newobj",
													"text" : "change",
													"fontsize" : 12.0,
													"numinlets" : 1,
													"numoutlets" : 3,
													"patching_rect" : [ 321.0, 521.0, 50.0, 20.0 ],
													"id" : "obj-78",
													"fontname" : "Arial",
													"outlettype" : [ "", "int", "int" ]
												}

											}
, 											{
												"box" : 												{
													"maxclass" : "newobj",
													"text" : "t i b",
													"fontsize" : 12.0,
													"numinlets" : 1,
													"numoutlets" : 2,
													"patching_rect" : [ 322.0, 488.0, 32.5, 20.0 ],
													"id" : "obj-79",
													"fontname" : "Arial",
													"outlettype" : [ "int", "bang" ]
												}

											}
, 											{
												"box" : 												{
													"maxclass" : "newobj",
													"text" : "expr pow(2\\,($i1))",
													"fontsize" : 12.0,
													"numinlets" : 1,
													"numoutlets" : 1,
													"patching_rect" : [ 169.0, 575.0, 105.0, 20.0 ],
													"id" : "obj-25",
													"fontname" : "Arial",
													"outlettype" : [ "" ]
												}

											}
, 											{
												"box" : 												{
													"maxclass" : "newobj",
													"text" : "accum",
													"fontsize" : 12.0,
													"numinlets" : 3,
													"numoutlets" : 1,
													"patching_rect" : [ 99.0, 601.0, 46.0, 20.0 ],
													"id" : "obj-24",
													"fontname" : "Arial",
													"outlettype" : [ "int" ]
												}

											}
, 											{
												"box" : 												{
													"maxclass" : "newobj",
													"text" : "expr abs($i1-8)",
													"fontsize" : 12.0,
													"numinlets" : 1,
													"numoutlets" : 1,
													"patching_rect" : [ 170.0, 537.0, 91.0, 20.0 ],
													"id" : "obj-23",
													"fontname" : "Arial",
													"outlettype" : [ "" ]
												}

											}
, 											{
												"box" : 												{
													"maxclass" : "newobj",
													"text" : "uzi",
													"fontsize" : 12.0,
													"numinlets" : 2,
													"numoutlets" : 3,
													"patching_rect" : [ 62.0, 540.0, 46.0, 20.0 ],
													"id" : "obj-22",
													"fontname" : "Arial",
													"outlettype" : [ "bang", "bang", "int" ]
												}

											}
, 											{
												"box" : 												{
													"maxclass" : "message",
													"text" : "set 0",
													"fontsize" : 12.0,
													"numinlets" : 2,
													"numoutlets" : 1,
													"patching_rect" : [ 169.0, 501.0, 37.0, 18.0 ],
													"id" : "obj-21",
													"fontname" : "Arial",
													"outlettype" : [ "" ]
												}

											}
, 											{
												"box" : 												{
													"maxclass" : "newobj",
													"text" : "change",
													"fontsize" : 12.0,
													"numinlets" : 1,
													"numoutlets" : 3,
													"patching_rect" : [ 97.0, 492.0, 50.0, 20.0 ],
													"id" : "obj-20",
													"fontname" : "Arial",
													"outlettype" : [ "", "int", "int" ]
												}

											}
, 											{
												"box" : 												{
													"maxclass" : "newobj",
													"text" : "t i b",
													"fontsize" : 12.0,
													"numinlets" : 1,
													"numoutlets" : 2,
													"patching_rect" : [ 98.0, 459.0, 32.5, 20.0 ],
													"id" : "obj-19",
													"fontname" : "Arial",
													"outlettype" : [ "int", "bang" ]
												}

											}
, 											{
												"box" : 												{
													"maxclass" : "number",
													"fontsize" : 12.0,
													"numinlets" : 1,
													"numoutlets" : 2,
													"patching_rect" : [ 96.0, 361.0, 50.0, 20.0 ],
													"id" : "obj-18",
													"fontname" : "Arial",
													"outlettype" : [ "int", "bang" ]
												}

											}
, 											{
												"box" : 												{
													"maxclass" : "outlet",
													"numinlets" : 1,
													"numoutlets" : 0,
													"patching_rect" : [ 256.0, 344.0, 25.0, 25.0 ],
													"id" : "obj-17",
													"comment" : ""
												}

											}
, 											{
												"box" : 												{
													"maxclass" : "newobj",
													"text" : "line 0. 10",
													"fontsize" : 12.0,
													"numinlets" : 3,
													"numoutlets" : 2,
													"patching_rect" : [ 97.0, 333.0, 59.0, 20.0 ],
													"id" : "obj-12",
													"fontname" : "Arial",
													"outlettype" : [ "", "" ]
												}

											}
, 											{
												"box" : 												{
													"maxclass" : "newobj",
													"text" : "r 40h-slide-interp-time",
													"fontsize" : 12.0,
													"numinlets" : 0,
													"numoutlets" : 1,
													"patching_rect" : [ 265.0, 230.0, 127.0, 20.0 ],
													"id" : "obj-11",
													"fontname" : "Arial",
													"outlettype" : [ "" ]
												}

											}
, 											{
												"box" : 												{
													"maxclass" : "newobj",
													"text" : "expr abs($i1 - 16)",
													"fontsize" : 12.0,
													"numinlets" : 1,
													"numoutlets" : 1,
													"patching_rect" : [ 160.0, 222.0, 105.0, 20.0 ],
													"id" : "obj-10",
													"fontname" : "Arial",
													"outlettype" : [ "" ]
												}

											}
, 											{
												"box" : 												{
													"maxclass" : "newobj",
													"text" : "pack 0 0",
													"fontsize" : 12.0,
													"numinlets" : 2,
													"numoutlets" : 1,
													"patching_rect" : [ 119.0, 276.0, 56.0, 20.0 ],
													"id" : "obj-8",
													"fontname" : "Arial",
													"outlettype" : [ "" ]
												}

											}
, 											{
												"box" : 												{
													"maxclass" : "newobj",
													"text" : "expr abs($i1 - 8)",
													"fontsize" : 12.0,
													"numinlets" : 1,
													"numoutlets" : 1,
													"patching_rect" : [ 55.0, 223.0, 98.0, 20.0 ],
													"id" : "obj-7",
													"fontname" : "Arial",
													"outlettype" : [ "" ]
												}

											}
 ],
										"lines" : [ 											{
												"patchline" : 												{
													"source" : [ "obj-12", 0 ],
													"destination" : [ "obj-17", 0 ],
													"hidden" : 0,
													"midpoints" : [  ]
												}

											}
, 											{
												"patchline" : 												{
													"source" : [ "obj-4", 0 ],
													"destination" : [ "obj-10", 0 ],
													"hidden" : 0,
													"midpoints" : [  ]
												}

											}
, 											{
												"patchline" : 												{
													"source" : [ "obj-3", 0 ],
													"destination" : [ "obj-7", 0 ],
													"hidden" : 0,
													"midpoints" : [  ]
												}

											}
, 											{
												"patchline" : 												{
													"source" : [ "obj-74", 0 ],
													"destination" : [ "obj-2", 0 ],
													"hidden" : 0,
													"midpoints" : [  ]
												}

											}
, 											{
												"patchline" : 												{
													"source" : [ "obj-24", 0 ],
													"destination" : [ "obj-1", 0 ],
													"hidden" : 0,
													"midpoints" : [  ]
												}

											}
, 											{
												"patchline" : 												{
													"source" : [ "obj-87", 0 ],
													"destination" : [ "obj-79", 0 ],
													"hidden" : 0,
													"midpoints" : [  ]
												}

											}
, 											{
												"patchline" : 												{
													"source" : [ "obj-18", 0 ],
													"destination" : [ "obj-87", 0 ],
													"hidden" : 0,
													"midpoints" : [  ]
												}

											}
, 											{
												"patchline" : 												{
													"source" : [ "obj-85", 0 ],
													"destination" : [ "obj-79", 0 ],
													"hidden" : 0,
													"midpoints" : [  ]
												}

											}
, 											{
												"patchline" : 												{
													"source" : [ "obj-82", 1 ],
													"destination" : [ "obj-85", 0 ],
													"hidden" : 0,
													"midpoints" : [  ]
												}

											}
, 											{
												"patchline" : 												{
													"source" : [ "obj-82", 0 ],
													"destination" : [ "obj-19", 0 ],
													"hidden" : 0,
													"midpoints" : [  ]
												}

											}
, 											{
												"patchline" : 												{
													"source" : [ "obj-18", 0 ],
													"destination" : [ "obj-82", 0 ],
													"hidden" : 0,
													"midpoints" : [  ]
												}

											}
, 											{
												"patchline" : 												{
													"source" : [ "obj-73", 0 ],
													"destination" : [ "obj-74", 1 ],
													"hidden" : 0,
													"midpoints" : [  ]
												}

											}
, 											{
												"patchline" : 												{
													"source" : [ "obj-75", 0 ],
													"destination" : [ "obj-73", 0 ],
													"hidden" : 0,
													"midpoints" : [  ]
												}

											}
, 											{
												"patchline" : 												{
													"source" : [ "obj-76", 1 ],
													"destination" : [ "obj-74", 0 ],
													"hidden" : 0,
													"midpoints" : [  ]
												}

											}
, 											{
												"patchline" : 												{
													"source" : [ "obj-77", 0 ],
													"destination" : [ "obj-74", 0 ],
													"hidden" : 0,
													"midpoints" : [  ]
												}

											}
, 											{
												"patchline" : 												{
													"source" : [ "obj-76", 2 ],
													"destination" : [ "obj-75", 0 ],
													"hidden" : 0,
													"midpoints" : [  ]
												}

											}
, 											{
												"patchline" : 												{
													"source" : [ "obj-78", 0 ],
													"destination" : [ "obj-76", 0 ],
													"hidden" : 0,
													"midpoints" : [  ]
												}

											}
, 											{
												"patchline" : 												{
													"source" : [ "obj-79", 1 ],
													"destination" : [ "obj-77", 0 ],
													"hidden" : 0,
													"midpoints" : [  ]
												}

											}
, 											{
												"patchline" : 												{
													"source" : [ "obj-79", 0 ],
													"destination" : [ "obj-78", 0 ],
													"hidden" : 0,
													"midpoints" : [  ]
												}

											}
, 											{
												"patchline" : 												{
													"source" : [ "obj-19", 0 ],
													"destination" : [ "obj-20", 0 ],
													"hidden" : 0,
													"midpoints" : [  ]
												}

											}
, 											{
												"patchline" : 												{
													"source" : [ "obj-19", 1 ],
													"destination" : [ "obj-21", 0 ],
													"hidden" : 0,
													"midpoints" : [  ]
												}

											}
, 											{
												"patchline" : 												{
													"source" : [ "obj-20", 0 ],
													"destination" : [ "obj-22", 0 ],
													"hidden" : 0,
													"midpoints" : [  ]
												}

											}
, 											{
												"patchline" : 												{
													"source" : [ "obj-22", 2 ],
													"destination" : [ "obj-23", 0 ],
													"hidden" : 0,
													"midpoints" : [  ]
												}

											}
, 											{
												"patchline" : 												{
													"source" : [ "obj-21", 0 ],
													"destination" : [ "obj-24", 0 ],
													"hidden" : 0,
													"midpoints" : [  ]
												}

											}
, 											{
												"patchline" : 												{
													"source" : [ "obj-22", 1 ],
													"destination" : [ "obj-24", 0 ],
													"hidden" : 0,
													"midpoints" : [  ]
												}

											}
, 											{
												"patchline" : 												{
													"source" : [ "obj-23", 0 ],
													"destination" : [ "obj-25", 0 ],
													"hidden" : 0,
													"midpoints" : [  ]
												}

											}
, 											{
												"patchline" : 												{
													"source" : [ "obj-25", 0 ],
													"destination" : [ "obj-24", 1 ],
													"hidden" : 0,
													"midpoints" : [  ]
												}

											}
, 											{
												"patchline" : 												{
													"source" : [ "obj-8", 0 ],
													"destination" : [ "obj-12", 0 ],
													"hidden" : 0,
													"midpoints" : [  ]
												}

											}
, 											{
												"patchline" : 												{
													"source" : [ "obj-12", 0 ],
													"destination" : [ "obj-18", 0 ],
													"hidden" : 0,
													"midpoints" : [  ]
												}

											}
, 											{
												"patchline" : 												{
													"source" : [ "obj-11", 0 ],
													"destination" : [ "obj-8", 1 ],
													"hidden" : 0,
													"midpoints" : [  ]
												}

											}
, 											{
												"patchline" : 												{
													"source" : [ "obj-10", 0 ],
													"destination" : [ "obj-8", 0 ],
													"hidden" : 0,
													"midpoints" : [  ]
												}

											}
, 											{
												"patchline" : 												{
													"source" : [ "obj-7", 0 ],
													"destination" : [ "obj-8", 0 ],
													"hidden" : 0,
													"midpoints" : [  ]
												}

											}
 ]
									}
,
									"saved_object_attributes" : 									{
										"fontsize" : 12.0,
										"default_fontface" : 0,
										"default_fontname" : "Arial",
										"fontname" : "Arial",
										"default_fontsize" : 12.0,
										"globalpatchername" : "",
										"fontface" : 0
									}

								}

							}
, 							{
								"box" : 								{
									"maxclass" : "outlet",
									"numinlets" : 1,
									"numoutlets" : 0,
									"patching_rect" : [ 542.0, 321.0, 25.0, 25.0 ],
									"id" : "obj-11",
									"comment" : ""
								}

							}
, 							{
								"box" : 								{
									"maxclass" : "newobj",
									"text" : "scale 1. 16. 1 100",
									"fontsize" : 12.0,
									"numinlets" : 6,
									"numoutlets" : 1,
									"patching_rect" : [ 539.0, 267.0, 105.0, 20.0 ],
									"id" : "obj-12",
									"fontname" : "Arial",
									"outlettype" : [ "" ]
								}

							}
, 							{
								"box" : 								{
									"maxclass" : "inlet",
									"numinlets" : 0,
									"numoutlets" : 1,
									"patching_rect" : [ 381.0, 20.0, 25.0, 25.0 ],
									"id" : "obj-10",
									"outlettype" : [ "int" ],
									"comment" : ""
								}

							}
, 							{
								"box" : 								{
									"maxclass" : "newobj",
									"text" : "p doubleslide",
									"fontsize" : 12.0,
									"numinlets" : 2,
									"numoutlets" : 3,
									"patching_rect" : [ 23.0, 202.0, 81.0, 20.0 ],
									"id" : "obj-9",
									"fontname" : "Arial",
									"outlettype" : [ "int", "int", "" ],
									"patcher" : 									{
										"fileversion" : 1,
										"rect" : [ 2533.0, -47.0, 559.0, 795.0 ],
										"bglocked" : 0,
										"defrect" : [ 2533.0, -47.0, 559.0, 795.0 ],
										"openrect" : [ 0.0, 0.0, 0.0, 0.0 ],
										"openinpresentation" : 0,
										"default_fontsize" : 12.0,
										"default_fontface" : 0,
										"default_fontname" : "Arial",
										"gridonopen" : 0,
										"gridsize" : [ 15.0, 15.0 ],
										"gridsnaponopen" : 0,
										"toolbarvisible" : 1,
										"boxanimatetime" : 200,
										"imprint" : 0,
										"enablehscroll" : 1,
										"enablevscroll" : 1,
										"devicewidth" : 0.0,
										"boxes" : [ 											{
												"box" : 												{
													"maxclass" : "inlet",
													"numinlets" : 0,
													"numoutlets" : 1,
													"patching_rect" : [ 167.0, 136.0, 25.0, 25.0 ],
													"id" : "obj-4",
													"outlettype" : [ "" ],
													"comment" : ""
												}

											}
, 											{
												"box" : 												{
													"maxclass" : "inlet",
													"numinlets" : 0,
													"numoutlets" : 1,
													"patching_rect" : [ 61.0, 141.0, 25.0, 25.0 ],
													"id" : "obj-3",
													"outlettype" : [ "" ],
													"comment" : ""
												}

											}
, 											{
												"box" : 												{
													"maxclass" : "outlet",
													"numinlets" : 1,
													"numoutlets" : 0,
													"patching_rect" : [ 141.0, 675.0, 25.0, 25.0 ],
													"id" : "obj-2",
													"comment" : ""
												}

											}
, 											{
												"box" : 												{
													"maxclass" : "outlet",
													"numinlets" : 1,
													"numoutlets" : 0,
													"patching_rect" : [ 100.0, 670.0, 25.0, 25.0 ],
													"id" : "obj-1",
													"comment" : ""
												}

											}
, 											{
												"box" : 												{
													"maxclass" : "newobj",
													"text" : "if $i1 <9 then 0",
													"fontsize" : 12.0,
													"numinlets" : 1,
													"numoutlets" : 1,
													"patching_rect" : [ 184.0, 435.0, 90.0, 20.0 ],
													"id" : "obj-87",
													"fontname" : "Arial",
													"outlettype" : [ "" ]
												}

											}
, 											{
												"box" : 												{
													"maxclass" : "newobj",
													"text" : "- 8",
													"fontsize" : 12.0,
													"numinlets" : 2,
													"numoutlets" : 1,
													"patching_rect" : [ 302.0, 456.0, 32.5, 20.0 ],
													"id" : "obj-85",
													"fontname" : "Arial",
													"outlettype" : [ "int" ]
												}

											}
, 											{
												"box" : 												{
													"maxclass" : "newobj",
													"text" : "if $i1 < 9 then $i1 else out2 $i1",
													"fontsize" : 12.0,
													"numinlets" : 1,
													"numoutlets" : 2,
													"patching_rect" : [ 63.0, 403.0, 174.0, 20.0 ],
													"id" : "obj-82",
													"fontname" : "Arial",
													"outlettype" : [ "", "" ]
												}

											}
, 											{
												"box" : 												{
													"maxclass" : "newobj",
													"text" : "expr pow(2\\,($i1))",
													"fontsize" : 12.0,
													"numinlets" : 1,
													"numoutlets" : 1,
													"patching_rect" : [ 393.0, 604.0, 105.0, 20.0 ],
													"id" : "obj-73",
													"fontname" : "Arial",
													"outlettype" : [ "" ]
												}

											}
, 											{
												"box" : 												{
													"maxclass" : "newobj",
													"text" : "accum",
													"fontsize" : 12.0,
													"numinlets" : 3,
													"numoutlets" : 1,
													"patching_rect" : [ 323.0, 630.0, 46.0, 20.0 ],
													"id" : "obj-74",
													"fontname" : "Arial",
													"outlettype" : [ "int" ]
												}

											}
, 											{
												"box" : 												{
													"maxclass" : "newobj",
													"text" : "expr abs($i1-8)",
													"fontsize" : 12.0,
													"numinlets" : 1,
													"numoutlets" : 1,
													"patching_rect" : [ 394.0, 566.0, 91.0, 20.0 ],
													"id" : "obj-75",
													"fontname" : "Arial",
													"outlettype" : [ "" ]
												}

											}
, 											{
												"box" : 												{
													"maxclass" : "newobj",
													"text" : "uzi",
													"fontsize" : 12.0,
													"numinlets" : 2,
													"numoutlets" : 3,
													"patching_rect" : [ 286.0, 569.0, 46.0, 20.0 ],
													"id" : "obj-76",
													"fontname" : "Arial",
													"outlettype" : [ "bang", "bang", "int" ]
												}

											}
, 											{
												"box" : 												{
													"maxclass" : "message",
													"text" : "set 0",
													"fontsize" : 12.0,
													"numinlets" : 2,
													"numoutlets" : 1,
													"patching_rect" : [ 393.0, 530.0, 37.0, 18.0 ],
													"id" : "obj-77",
													"fontname" : "Arial",
													"outlettype" : [ "" ]
												}

											}
, 											{
												"box" : 												{
													"maxclass" : "newobj",
													"text" : "change",
													"fontsize" : 12.0,
													"numinlets" : 1,
													"numoutlets" : 3,
													"patching_rect" : [ 321.0, 521.0, 50.0, 20.0 ],
													"id" : "obj-78",
													"fontname" : "Arial",
													"outlettype" : [ "", "int", "int" ]
												}

											}
, 											{
												"box" : 												{
													"maxclass" : "newobj",
													"text" : "t i b",
													"fontsize" : 12.0,
													"numinlets" : 1,
													"numoutlets" : 2,
													"patching_rect" : [ 322.0, 488.0, 32.5, 20.0 ],
													"id" : "obj-79",
													"fontname" : "Arial",
													"outlettype" : [ "int", "bang" ]
												}

											}
, 											{
												"box" : 												{
													"maxclass" : "newobj",
													"text" : "expr pow(2\\,($i1))",
													"fontsize" : 12.0,
													"numinlets" : 1,
													"numoutlets" : 1,
													"patching_rect" : [ 169.0, 575.0, 105.0, 20.0 ],
													"id" : "obj-25",
													"fontname" : "Arial",
													"outlettype" : [ "" ]
												}

											}
, 											{
												"box" : 												{
													"maxclass" : "newobj",
													"text" : "accum",
													"fontsize" : 12.0,
													"numinlets" : 3,
													"numoutlets" : 1,
													"patching_rect" : [ 99.0, 601.0, 46.0, 20.0 ],
													"id" : "obj-24",
													"fontname" : "Arial",
													"outlettype" : [ "int" ]
												}

											}
, 											{
												"box" : 												{
													"maxclass" : "newobj",
													"text" : "expr abs($i1-8)",
													"fontsize" : 12.0,
													"numinlets" : 1,
													"numoutlets" : 1,
													"patching_rect" : [ 170.0, 537.0, 91.0, 20.0 ],
													"id" : "obj-23",
													"fontname" : "Arial",
													"outlettype" : [ "" ]
												}

											}
, 											{
												"box" : 												{
													"maxclass" : "newobj",
													"text" : "uzi",
													"fontsize" : 12.0,
													"numinlets" : 2,
													"numoutlets" : 3,
													"patching_rect" : [ 62.0, 540.0, 46.0, 20.0 ],
													"id" : "obj-22",
													"fontname" : "Arial",
													"outlettype" : [ "bang", "bang", "int" ]
												}

											}
, 											{
												"box" : 												{
													"maxclass" : "message",
													"text" : "set 0",
													"fontsize" : 12.0,
													"numinlets" : 2,
													"numoutlets" : 1,
													"patching_rect" : [ 169.0, 501.0, 37.0, 18.0 ],
													"id" : "obj-21",
													"fontname" : "Arial",
													"outlettype" : [ "" ]
												}

											}
, 											{
												"box" : 												{
													"maxclass" : "newobj",
													"text" : "change",
													"fontsize" : 12.0,
													"numinlets" : 1,
													"numoutlets" : 3,
													"patching_rect" : [ 97.0, 492.0, 50.0, 20.0 ],
													"id" : "obj-20",
													"fontname" : "Arial",
													"outlettype" : [ "", "int", "int" ]
												}

											}
, 											{
												"box" : 												{
													"maxclass" : "newobj",
													"text" : "t i b",
													"fontsize" : 12.0,
													"numinlets" : 1,
													"numoutlets" : 2,
													"patching_rect" : [ 98.0, 459.0, 32.5, 20.0 ],
													"id" : "obj-19",
													"fontname" : "Arial",
													"outlettype" : [ "int", "bang" ]
												}

											}
, 											{
												"box" : 												{
													"maxclass" : "number",
													"fontsize" : 12.0,
													"numinlets" : 1,
													"numoutlets" : 2,
													"patching_rect" : [ 96.0, 361.0, 50.0, 20.0 ],
													"id" : "obj-18",
													"fontname" : "Arial",
													"outlettype" : [ "int", "bang" ]
												}

											}
, 											{
												"box" : 												{
													"maxclass" : "outlet",
													"numinlets" : 1,
													"numoutlets" : 0,
													"patching_rect" : [ 256.0, 344.0, 25.0, 25.0 ],
													"id" : "obj-17",
													"comment" : ""
												}

											}
, 											{
												"box" : 												{
													"maxclass" : "newobj",
													"text" : "line 0. 10",
													"fontsize" : 12.0,
													"numinlets" : 3,
													"numoutlets" : 2,
													"patching_rect" : [ 97.0, 333.0, 59.0, 20.0 ],
													"id" : "obj-12",
													"fontname" : "Arial",
													"outlettype" : [ "", "" ]
												}

											}
, 											{
												"box" : 												{
													"maxclass" : "newobj",
													"text" : "r 40h-slide-interp-time",
													"fontsize" : 12.0,
													"numinlets" : 0,
													"numoutlets" : 1,
													"patching_rect" : [ 265.0, 230.0, 127.0, 20.0 ],
													"id" : "obj-11",
													"fontname" : "Arial",
													"outlettype" : [ "" ]
												}

											}
, 											{
												"box" : 												{
													"maxclass" : "newobj",
													"text" : "expr abs($i1 - 16)",
													"fontsize" : 12.0,
													"numinlets" : 1,
													"numoutlets" : 1,
													"patching_rect" : [ 160.0, 222.0, 105.0, 20.0 ],
													"id" : "obj-10",
													"fontname" : "Arial",
													"outlettype" : [ "" ]
												}

											}
, 											{
												"box" : 												{
													"maxclass" : "newobj",
													"text" : "pack 0 0",
													"fontsize" : 12.0,
													"numinlets" : 2,
													"numoutlets" : 1,
													"patching_rect" : [ 119.0, 276.0, 56.0, 20.0 ],
													"id" : "obj-8",
													"fontname" : "Arial",
													"outlettype" : [ "" ]
												}

											}
, 											{
												"box" : 												{
													"maxclass" : "newobj",
													"text" : "expr abs($i1 - 8)",
													"fontsize" : 12.0,
													"numinlets" : 1,
													"numoutlets" : 1,
													"patching_rect" : [ 55.0, 223.0, 98.0, 20.0 ],
													"id" : "obj-7",
													"fontname" : "Arial",
													"outlettype" : [ "" ]
												}

											}
 ],
										"lines" : [ 											{
												"patchline" : 												{
													"source" : [ "obj-7", 0 ],
													"destination" : [ "obj-8", 0 ],
													"hidden" : 0,
													"midpoints" : [  ]
												}

											}
, 											{
												"patchline" : 												{
													"source" : [ "obj-10", 0 ],
													"destination" : [ "obj-8", 0 ],
													"hidden" : 0,
													"midpoints" : [  ]
												}

											}
, 											{
												"patchline" : 												{
													"source" : [ "obj-11", 0 ],
													"destination" : [ "obj-8", 1 ],
													"hidden" : 0,
													"midpoints" : [  ]
												}

											}
, 											{
												"patchline" : 												{
													"source" : [ "obj-12", 0 ],
													"destination" : [ "obj-18", 0 ],
													"hidden" : 0,
													"midpoints" : [  ]
												}

											}
, 											{
												"patchline" : 												{
													"source" : [ "obj-8", 0 ],
													"destination" : [ "obj-12", 0 ],
													"hidden" : 0,
													"midpoints" : [  ]
												}

											}
, 											{
												"patchline" : 												{
													"source" : [ "obj-25", 0 ],
													"destination" : [ "obj-24", 1 ],
													"hidden" : 0,
													"midpoints" : [  ]
												}

											}
, 											{
												"patchline" : 												{
													"source" : [ "obj-23", 0 ],
													"destination" : [ "obj-25", 0 ],
													"hidden" : 0,
													"midpoints" : [  ]
												}

											}
, 											{
												"patchline" : 												{
													"source" : [ "obj-22", 1 ],
													"destination" : [ "obj-24", 0 ],
													"hidden" : 0,
													"midpoints" : [  ]
												}

											}
, 											{
												"patchline" : 												{
													"source" : [ "obj-21", 0 ],
													"destination" : [ "obj-24", 0 ],
													"hidden" : 0,
													"midpoints" : [  ]
												}

											}
, 											{
												"patchline" : 												{
													"source" : [ "obj-22", 2 ],
													"destination" : [ "obj-23", 0 ],
													"hidden" : 0,
													"midpoints" : [  ]
												}

											}
, 											{
												"patchline" : 												{
													"source" : [ "obj-20", 0 ],
													"destination" : [ "obj-22", 0 ],
													"hidden" : 0,
													"midpoints" : [  ]
												}

											}
, 											{
												"patchline" : 												{
													"source" : [ "obj-19", 1 ],
													"destination" : [ "obj-21", 0 ],
													"hidden" : 0,
													"midpoints" : [  ]
												}

											}
, 											{
												"patchline" : 												{
													"source" : [ "obj-19", 0 ],
													"destination" : [ "obj-20", 0 ],
													"hidden" : 0,
													"midpoints" : [  ]
												}

											}
, 											{
												"patchline" : 												{
													"source" : [ "obj-79", 0 ],
													"destination" : [ "obj-78", 0 ],
													"hidden" : 0,
													"midpoints" : [  ]
												}

											}
, 											{
												"patchline" : 												{
													"source" : [ "obj-79", 1 ],
													"destination" : [ "obj-77", 0 ],
													"hidden" : 0,
													"midpoints" : [  ]
												}

											}
, 											{
												"patchline" : 												{
													"source" : [ "obj-78", 0 ],
													"destination" : [ "obj-76", 0 ],
													"hidden" : 0,
													"midpoints" : [  ]
												}

											}
, 											{
												"patchline" : 												{
													"source" : [ "obj-76", 2 ],
													"destination" : [ "obj-75", 0 ],
													"hidden" : 0,
													"midpoints" : [  ]
												}

											}
, 											{
												"patchline" : 												{
													"source" : [ "obj-77", 0 ],
													"destination" : [ "obj-74", 0 ],
													"hidden" : 0,
													"midpoints" : [  ]
												}

											}
, 											{
												"patchline" : 												{
													"source" : [ "obj-76", 1 ],
													"destination" : [ "obj-74", 0 ],
													"hidden" : 0,
													"midpoints" : [  ]
												}

											}
, 											{
												"patchline" : 												{
													"source" : [ "obj-75", 0 ],
													"destination" : [ "obj-73", 0 ],
													"hidden" : 0,
													"midpoints" : [  ]
												}

											}
, 											{
												"patchline" : 												{
													"source" : [ "obj-73", 0 ],
													"destination" : [ "obj-74", 1 ],
													"hidden" : 0,
													"midpoints" : [  ]
												}

											}
, 											{
												"patchline" : 												{
													"source" : [ "obj-18", 0 ],
													"destination" : [ "obj-82", 0 ],
													"hidden" : 0,
													"midpoints" : [  ]
												}

											}
, 											{
												"patchline" : 												{
													"source" : [ "obj-82", 0 ],
													"destination" : [ "obj-19", 0 ],
													"hidden" : 0,
													"midpoints" : [  ]
												}

											}
, 											{
												"patchline" : 												{
													"source" : [ "obj-82", 1 ],
													"destination" : [ "obj-85", 0 ],
													"hidden" : 0,
													"midpoints" : [  ]
												}

											}
, 											{
												"patchline" : 												{
													"source" : [ "obj-85", 0 ],
													"destination" : [ "obj-79", 0 ],
													"hidden" : 0,
													"midpoints" : [  ]
												}

											}
, 											{
												"patchline" : 												{
													"source" : [ "obj-18", 0 ],
													"destination" : [ "obj-87", 0 ],
													"hidden" : 0,
													"midpoints" : [  ]
												}

											}
, 											{
												"patchline" : 												{
													"source" : [ "obj-87", 0 ],
													"destination" : [ "obj-79", 0 ],
													"hidden" : 0,
													"midpoints" : [  ]
												}

											}
, 											{
												"patchline" : 												{
													"source" : [ "obj-24", 0 ],
													"destination" : [ "obj-1", 0 ],
													"hidden" : 0,
													"midpoints" : [  ]
												}

											}
, 											{
												"patchline" : 												{
													"source" : [ "obj-74", 0 ],
													"destination" : [ "obj-2", 0 ],
													"hidden" : 0,
													"midpoints" : [  ]
												}

											}
, 											{
												"patchline" : 												{
													"source" : [ "obj-3", 0 ],
													"destination" : [ "obj-7", 0 ],
													"hidden" : 0,
													"midpoints" : [  ]
												}

											}
, 											{
												"patchline" : 												{
													"source" : [ "obj-4", 0 ],
													"destination" : [ "obj-10", 0 ],
													"hidden" : 0,
													"midpoints" : [  ]
												}

											}
, 											{
												"patchline" : 												{
													"source" : [ "obj-12", 0 ],
													"destination" : [ "obj-17", 0 ],
													"hidden" : 0,
													"midpoints" : [  ]
												}

											}
 ]
									}
,
									"saved_object_attributes" : 									{
										"fontsize" : 12.0,
										"default_fontface" : 0,
										"default_fontname" : "Arial",
										"fontname" : "Arial",
										"default_fontsize" : 12.0,
										"globalpatchername" : "",
										"fontface" : 0
									}

								}

							}
, 							{
								"box" : 								{
									"maxclass" : "newobj",
									"text" : "udpsend localhost 8080",
									"fontsize" : 12.0,
									"numinlets" : 1,
									"numoutlets" : 0,
									"patching_rect" : [ 103.0, 330.0, 137.0, 20.0 ],
									"id" : "obj-30",
									"fontname" : "Arial"
								}

							}
, 							{
								"box" : 								{
									"maxclass" : "message",
									"text" : "/pwm_slide_2/led_col $1 $2",
									"fontsize" : 12.0,
									"numinlets" : 2,
									"numoutlets" : 1,
									"patching_rect" : [ 96.0, 303.0, 159.0, 18.0 ],
									"id" : "obj-29",
									"fontname" : "Arial",
									"outlettype" : [ "" ]
								}

							}
, 							{
								"box" : 								{
									"maxclass" : "newobj",
									"text" : "funnel 8",
									"fontsize" : 12.0,
									"numinlets" : 8,
									"numoutlets" : 1,
									"patching_rect" : [ 97.0, 274.0, 113.5, 20.0 ],
									"id" : "obj-28",
									"fontname" : "Arial",
									"outlettype" : [ "list" ]
								}

							}
, 							{
								"box" : 								{
									"maxclass" : "outlet",
									"numinlets" : 1,
									"numoutlets" : 0,
									"patching_rect" : [ 294.0, 325.0, 25.0, 25.0 ],
									"id" : "obj-17",
									"comment" : ""
								}

							}
, 							{
								"box" : 								{
									"maxclass" : "newobj",
									"text" : "scale 1. 16. 1 255",
									"fontsize" : 12.0,
									"numinlets" : 6,
									"numoutlets" : 1,
									"patching_rect" : [ 291.0, 271.0, 105.0, 20.0 ],
									"id" : "obj-15",
									"fontname" : "Arial",
									"outlettype" : [ "" ]
								}

							}
, 							{
								"box" : 								{
									"maxclass" : "newobj",
									"text" : "s 40h-slide-interp-time",
									"fontsize" : 12.0,
									"numinlets" : 1,
									"numoutlets" : 0,
									"patching_rect" : [ 381.0, 114.0, 129.0, 20.0 ],
									"id" : "obj-14",
									"fontname" : "Arial"
								}

							}
, 							{
								"box" : 								{
									"maxclass" : "number",
									"fontsize" : 12.0,
									"numinlets" : 1,
									"numoutlets" : 2,
									"patching_rect" : [ 379.0, 69.0, 50.0, 20.0 ],
									"id" : "obj-13",
									"fontname" : "Arial",
									"outlettype" : [ "int", "bang" ]
								}

							}
, 							{
								"box" : 								{
									"maxclass" : "newobj",
									"text" : "route 0 1 2 3 4 5 6 7",
									"fontsize" : 12.0,
									"numinlets" : 1,
									"numoutlets" : 9,
									"patching_rect" : [ 111.0, 161.0, 127.0, 20.0 ],
									"id" : "obj-6",
									"fontname" : "Arial",
									"outlettype" : [ "", "", "", "", "", "", "", "", "" ]
								}

							}
, 							{
								"box" : 								{
									"maxclass" : "newobj",
									"text" : "gate",
									"fontsize" : 12.0,
									"numinlets" : 2,
									"numoutlets" : 1,
									"patching_rect" : [ 109.0, 125.0, 34.0, 20.0 ],
									"id" : "obj-5",
									"fontname" : "Arial",
									"outlettype" : [ "" ]
								}

							}
, 							{
								"box" : 								{
									"maxclass" : "newobj",
									"text" : "pack",
									"fontsize" : 12.0,
									"numinlets" : 2,
									"numoutlets" : 1,
									"patching_rect" : [ 109.0, 90.0, 36.0, 20.0 ],
									"id" : "obj-4",
									"fontname" : "Arial",
									"outlettype" : [ "" ]
								}

							}
, 							{
								"box" : 								{
									"maxclass" : "newobj",
									"text" : "unpack 0 0 0",
									"fontsize" : 12.0,
									"numinlets" : 1,
									"numoutlets" : 3,
									"patching_rect" : [ 108.0, 61.0, 79.0, 20.0 ],
									"id" : "obj-3",
									"fontname" : "Arial",
									"outlettype" : [ "int", "int", "int" ]
								}

							}
, 							{
								"box" : 								{
									"maxclass" : "inlet",
									"numinlets" : 0,
									"numoutlets" : 1,
									"patching_rect" : [ 106.0, 16.0, 25.0, 25.0 ],
									"id" : "obj-1",
									"outlettype" : [ "" ],
									"comment" : ""
								}

							}
 ],
						"lines" : [ 							{
								"patchline" : 								{
									"source" : [ "obj-8", 1 ],
									"destination" : [ "obj-28", 5 ],
									"hidden" : 0,
									"midpoints" : [  ]
								}

							}
, 							{
								"patchline" : 								{
									"source" : [ "obj-8", 0 ],
									"destination" : [ "obj-28", 4 ],
									"hidden" : 0,
									"midpoints" : [  ]
								}

							}
, 							{
								"patchline" : 								{
									"source" : [ "obj-16", 1 ],
									"destination" : [ "obj-28", 3 ],
									"hidden" : 0,
									"midpoints" : [  ]
								}

							}
, 							{
								"patchline" : 								{
									"source" : [ "obj-16", 0 ],
									"destination" : [ "obj-28", 2 ],
									"hidden" : 0,
									"midpoints" : [  ]
								}

							}
, 							{
								"patchline" : 								{
									"source" : [ "obj-6", 5 ],
									"destination" : [ "obj-8", 1 ],
									"hidden" : 0,
									"midpoints" : [  ]
								}

							}
, 							{
								"patchline" : 								{
									"source" : [ "obj-6", 4 ],
									"destination" : [ "obj-8", 0 ],
									"hidden" : 0,
									"midpoints" : [  ]
								}

							}
, 							{
								"patchline" : 								{
									"source" : [ "obj-6", 3 ],
									"destination" : [ "obj-16", 1 ],
									"hidden" : 0,
									"midpoints" : [  ]
								}

							}
, 							{
								"patchline" : 								{
									"source" : [ "obj-6", 2 ],
									"destination" : [ "obj-16", 0 ],
									"hidden" : 0,
									"midpoints" : [  ]
								}

							}
, 							{
								"patchline" : 								{
									"source" : [ "obj-5", 0 ],
									"destination" : [ "obj-6", 0 ],
									"hidden" : 0,
									"midpoints" : [  ]
								}

							}
, 							{
								"patchline" : 								{
									"source" : [ "obj-3", 2 ],
									"destination" : [ "obj-5", 0 ],
									"hidden" : 0,
									"midpoints" : [  ]
								}

							}
, 							{
								"patchline" : 								{
									"source" : [ "obj-4", 0 ],
									"destination" : [ "obj-5", 1 ],
									"hidden" : 0,
									"midpoints" : [  ]
								}

							}
, 							{
								"patchline" : 								{
									"source" : [ "obj-3", 1 ],
									"destination" : [ "obj-4", 1 ],
									"hidden" : 0,
									"midpoints" : [  ]
								}

							}
, 							{
								"patchline" : 								{
									"source" : [ "obj-3", 0 ],
									"destination" : [ "obj-4", 0 ],
									"hidden" : 0,
									"midpoints" : [  ]
								}

							}
, 							{
								"patchline" : 								{
									"source" : [ "obj-1", 0 ],
									"destination" : [ "obj-3", 0 ],
									"hidden" : 0,
									"midpoints" : [  ]
								}

							}
, 							{
								"patchline" : 								{
									"source" : [ "obj-29", 0 ],
									"destination" : [ "obj-30", 0 ],
									"hidden" : 0,
									"midpoints" : [  ]
								}

							}
, 							{
								"patchline" : 								{
									"source" : [ "obj-28", 0 ],
									"destination" : [ "obj-29", 0 ],
									"hidden" : 0,
									"midpoints" : [  ]
								}

							}
, 							{
								"patchline" : 								{
									"source" : [ "obj-6", 0 ],
									"destination" : [ "obj-9", 0 ],
									"hidden" : 0,
									"midpoints" : [  ]
								}

							}
, 							{
								"patchline" : 								{
									"source" : [ "obj-6", 1 ],
									"destination" : [ "obj-9", 1 ],
									"hidden" : 0,
									"midpoints" : [  ]
								}

							}
, 							{
								"patchline" : 								{
									"source" : [ "obj-9", 0 ],
									"destination" : [ "obj-28", 0 ],
									"hidden" : 0,
									"midpoints" : [  ]
								}

							}
, 							{
								"patchline" : 								{
									"source" : [ "obj-9", 1 ],
									"destination" : [ "obj-28", 1 ],
									"hidden" : 0,
									"midpoints" : [  ]
								}

							}
, 							{
								"patchline" : 								{
									"source" : [ "obj-13", 0 ],
									"destination" : [ "obj-14", 0 ],
									"hidden" : 0,
									"midpoints" : [  ]
								}

							}
, 							{
								"patchline" : 								{
									"source" : [ "obj-10", 0 ],
									"destination" : [ "obj-13", 0 ],
									"hidden" : 0,
									"midpoints" : [  ]
								}

							}
, 							{
								"patchline" : 								{
									"source" : [ "obj-9", 2 ],
									"destination" : [ "obj-15", 0 ],
									"hidden" : 0,
									"midpoints" : [  ]
								}

							}
, 							{
								"patchline" : 								{
									"source" : [ "obj-15", 0 ],
									"destination" : [ "obj-17", 0 ],
									"hidden" : 0,
									"midpoints" : [  ]
								}

							}
, 							{
								"patchline" : 								{
									"source" : [ "obj-19", 0 ],
									"destination" : [ "obj-18", 0 ],
									"hidden" : 0,
									"midpoints" : [  ]
								}

							}
, 							{
								"patchline" : 								{
									"source" : [ "obj-16", 2 ],
									"destination" : [ "obj-19", 0 ],
									"hidden" : 0,
									"midpoints" : [  ]
								}

							}
, 							{
								"patchline" : 								{
									"source" : [ "obj-8", 2 ],
									"destination" : [ "obj-12", 0 ],
									"hidden" : 0,
									"midpoints" : [  ]
								}

							}
, 							{
								"patchline" : 								{
									"source" : [ "obj-12", 0 ],
									"destination" : [ "obj-11", 0 ],
									"hidden" : 0,
									"midpoints" : [  ]
								}

							}
 ]
					}
,
					"saved_object_attributes" : 					{
						"fontsize" : 12.0,
						"default_fontface" : 0,
						"default_fontname" : "Arial",
						"fontname" : "Arial",
						"default_fontsize" : 12.0,
						"globalpatchername" : "",
						"fontface" : 0
					}

				}

			}
, 			{
				"box" : 				{
					"maxclass" : "message",
					"text" : "/sys/prefix /pwm_slide_2",
					"fontsize" : 9.0,
					"numinlets" : 2,
					"numoutlets" : 1,
					"patching_rect" : [ 312.0, 72.0, 109.0, 15.0 ],
					"id" : "obj-1",
					"fontname" : "Arial",
					"outlettype" : [ "" ]
				}

			}
, 			{
				"box" : 				{
					"maxclass" : "newobj",
					"text" : "udpsend localhost 8080",
					"hidden" : 1,
					"fontsize" : 9.0,
					"numinlets" : 1,
					"numoutlets" : 0,
					"patching_rect" : [ 381.0, 97.0, 115.0, 17.0 ],
					"id" : "obj-2",
					"fontname" : "Arial"
				}

			}
, 			{
				"box" : 				{
					"maxclass" : "newobj",
					"text" : "route /pwm_slide_2/press",
					"fontsize" : 9.0,
					"numinlets" : 1,
					"numoutlets" : 2,
					"patching_rect" : [ 44.0, 42.0, 113.0, 17.0 ],
					"id" : "obj-3",
					"fontname" : "Arial",
					"outlettype" : [ "", "" ]
				}

			}
, 			{
				"box" : 				{
					"maxclass" : "newobj",
					"text" : "udpreceive 8000",
					"fontsize" : 9.0,
					"numinlets" : 1,
					"numoutlets" : 1,
					"patching_rect" : [ 42.0, 19.0, 86.0, 17.0 ],
					"id" : "obj-4",
					"fontname" : "Arial",
					"outlettype" : [ "" ]
				}

			}
 ],
		"lines" : [ 			{
				"patchline" : 				{
					"source" : [ "obj-25", 0 ],
					"destination" : [ "obj-20", 0 ],
					"hidden" : 0,
					"midpoints" : [  ]
				}

			}
, 			{
				"patchline" : 				{
					"source" : [ "obj-25", 0 ],
					"destination" : [ "obj-20", 1 ],
					"hidden" : 0,
					"midpoints" : [  ]
				}

			}
, 			{
				"patchline" : 				{
					"source" : [ "obj-25", 0 ],
					"destination" : [ "obj-20", 2 ],
					"hidden" : 0,
					"midpoints" : [  ]
				}

			}
, 			{
				"patchline" : 				{
					"source" : [ "obj-22", 0 ],
					"destination" : [ "obj-24", 0 ],
					"hidden" : 0,
					"midpoints" : [  ]
				}

			}
, 			{
				"patchline" : 				{
					"source" : [ "obj-17", 0 ],
					"destination" : [ "obj-22", 0 ],
					"hidden" : 0,
					"midpoints" : [  ]
				}

			}
, 			{
				"patchline" : 				{
					"source" : [ "obj-9", 0 ],
					"destination" : [ "obj-17", 0 ],
					"hidden" : 0,
					"midpoints" : [  ]
				}

			}
, 			{
				"patchline" : 				{
					"source" : [ "obj-9", 0 ],
					"destination" : [ "obj-14", 0 ],
					"hidden" : 0,
					"midpoints" : [ 146.5, 465.0, 195.0, 465.0, 195.0, 435.0, 219.5, 435.0 ]
				}

			}
, 			{
				"patchline" : 				{
					"source" : [ "obj-13", 0 ],
					"destination" : [ "obj-14", 0 ],
					"hidden" : 0,
					"midpoints" : [ 120.5, 495.0, 195.0, 495.0, 195.0, 435.0, 219.5, 435.0 ]
				}

			}
, 			{
				"patchline" : 				{
					"source" : [ "obj-12", 0 ],
					"destination" : [ "obj-14", 0 ],
					"hidden" : 0,
					"midpoints" : [ 166.5, 438.0, 207.0, 438.0, 207.0, 435.0, 219.5, 435.0 ]
				}

			}
, 			{
				"patchline" : 				{
					"source" : [ "obj-5", 2 ],
					"destination" : [ "obj-18", 0 ],
					"hidden" : 0,
					"midpoints" : [  ]
				}

			}
, 			{
				"patchline" : 				{
					"source" : [ "obj-5", 1 ],
					"destination" : [ "obj-6", 0 ],
					"hidden" : 0,
					"midpoints" : [  ]
				}

			}
, 			{
				"patchline" : 				{
					"source" : [ "obj-5", 0 ],
					"destination" : [ "obj-47", 0 ],
					"hidden" : 0,
					"midpoints" : [  ]
				}

			}
, 			{
				"patchline" : 				{
					"source" : [ "obj-15", 0 ],
					"destination" : [ "obj-13", 0 ],
					"hidden" : 0,
					"midpoints" : [  ]
				}

			}
, 			{
				"patchline" : 				{
					"source" : [ "obj-15", 1 ],
					"destination" : [ "obj-9", 0 ],
					"hidden" : 0,
					"midpoints" : [  ]
				}

			}
, 			{
				"patchline" : 				{
					"source" : [ "obj-4", 0 ],
					"destination" : [ "obj-3", 0 ],
					"hidden" : 1,
					"midpoints" : [  ]
				}

			}
, 			{
				"patchline" : 				{
					"source" : [ "obj-3", 0 ],
					"destination" : [ "obj-5", 0 ],
					"hidden" : 0,
					"midpoints" : [  ]
				}

			}
, 			{
				"patchline" : 				{
					"source" : [ "obj-1", 0 ],
					"destination" : [ "obj-2", 0 ],
					"hidden" : 1,
					"midpoints" : [  ]
				}

			}
, 			{
				"patchline" : 				{
					"source" : [ "obj-7", 0 ],
					"destination" : [ "obj-8", 0 ],
					"hidden" : 0,
					"midpoints" : [  ]
				}

			}
, 			{
				"patchline" : 				{
					"source" : [ "obj-8", 0 ],
					"destination" : [ "obj-5", 1 ],
					"hidden" : 0,
					"midpoints" : [  ]
				}

			}
, 			{
				"patchline" : 				{
					"source" : [ "obj-18", 0 ],
					"destination" : [ "obj-23", 0 ],
					"hidden" : 0,
					"midpoints" : [  ]
				}

			}
, 			{
				"patchline" : 				{
					"source" : [ "obj-47", 0 ],
					"destination" : [ "obj-10", 0 ],
					"hidden" : 0,
					"midpoints" : [  ]
				}

			}
, 			{
				"patchline" : 				{
					"source" : [ "obj-20", 2 ],
					"destination" : [ "obj-11", 0 ],
					"hidden" : 0,
					"midpoints" : [  ]
				}

			}
, 			{
				"patchline" : 				{
					"source" : [ "obj-20", 0 ],
					"destination" : [ "obj-11", 0 ],
					"hidden" : 0,
					"midpoints" : [  ]
				}

			}
, 			{
				"patchline" : 				{
					"source" : [ "obj-20", 1 ],
					"destination" : [ "obj-11", 0 ],
					"hidden" : 0,
					"midpoints" : [  ]
				}

			}
, 			{
				"patchline" : 				{
					"source" : [ "obj-19", 0 ],
					"destination" : [ "obj-20", 3 ],
					"hidden" : 0,
					"midpoints" : [  ]
				}

			}
, 			{
				"patchline" : 				{
					"source" : [ "obj-20", 3 ],
					"destination" : [ "obj-11", 0 ],
					"hidden" : 0,
					"midpoints" : [  ]
				}

			}
, 			{
				"patchline" : 				{
					"source" : [ "obj-47", 0 ],
					"destination" : [ "obj-20", 2 ],
					"hidden" : 0,
					"midpoints" : [  ]
				}

			}
, 			{
				"patchline" : 				{
					"source" : [ "obj-6", 0 ],
					"destination" : [ "obj-21", 0 ],
					"hidden" : 0,
					"midpoints" : [  ]
				}

			}
, 			{
				"patchline" : 				{
					"source" : [ "obj-6", 0 ],
					"destination" : [ "obj-20", 1 ],
					"hidden" : 0,
					"midpoints" : [  ]
				}

			}
, 			{
				"patchline" : 				{
					"source" : [ "obj-18", 0 ],
					"destination" : [ "obj-20", 0 ],
					"hidden" : 0,
					"midpoints" : [  ]
				}

			}
 ]
	}

}
